<svg width="18" height="19" viewBox="0 0 18 19" fill="none" xmlns="http://www.w3.org/2000/svg">
<g id="360-degrees 1" clip-path="url(#clip0_4146_100314)">
<g id="g2136">
<g id="g2138">
<g id="Clip path group">
<mask id="mask0_4146_100314" style="mask-type:luminance" maskUnits="userSpaceOnUse" x="0" y="0" width="18" height="19">
<g id="clipPath2144">
<path id="path2142" d="M0 0.0966816H18V18.0967H0V0.0966816Z" fill="white"/>
</g>
</mask>
<g mask="url(#mask0_4146_100314)">
<g id="g2140">
<g id="g2146">
<path id="path2148" d="M9 11.6493C6.79665 11.6493 4.73287 11.3407 3.18881 10.7803C1.87246 10.3027 1.05469 9.65957 1.05469 9.10202C1.05469 8.54448 1.87246 7.90137 3.18881 7.4237C3.87077 7.1762 4.65416 6.97785 5.5061 6.8335C5.43487 7.56334 5.3981 8.32272 5.3981 9.09668C5.3981 9.50052 5.40826 9.90636 5.42834 10.303C5.44303 10.5938 5.69039 10.8189 5.98166 10.803C6.27251 10.7883 6.49638 10.5405 6.48165 10.2497C6.46249 9.87075 6.45279 9.4828 6.45279 9.09668C6.45279 8.26583 6.49666 7.45481 6.58139 6.68405C7.35395 6.5989 8.16701 6.55478 9 6.55478C9.2733 6.55478 9.54872 6.55967 9.81858 6.56926C10.1097 6.57949 10.354 6.35214 10.3644 6.06104C10.3747 5.77002 10.1472 5.52561 9.85616 5.51524C9.57382 5.50519 9.28578 5.50009 9 5.50009C8.22382 5.50009 7.4623 5.53708 6.73049 5.60872C6.87494 4.75446 7.07361 3.969 7.32167 3.28549C7.79938 1.9691 8.44246 1.15137 9 1.15137C9.55754 1.15137 10.2007 1.9691 10.6784 3.28549C11.2387 4.82956 11.5472 6.89333 11.5472 9.09668C11.5472 9.93143 11.5029 10.7461 11.4175 11.5201C10.6452 11.6052 9.8326 11.6493 9 11.6493ZM16.76 7.18931C16.3989 6.94136 15.9603 6.71291 15.459 6.51003L15.6049 6.4607C15.8808 6.36743 16.0289 6.06815 15.9356 5.79224C15.8423 5.5163 15.5428 5.3684 15.2672 5.46156L13.6019 6.02455C13.4447 6.07774 13.3217 6.20181 13.2698 6.35949C13.218 6.5172 13.2435 6.69006 13.3385 6.82615L14.3453 8.2671C14.4478 8.41391 14.6116 8.49245 14.778 8.49245C14.8823 8.49245 14.9876 8.46162 15.0796 8.39735C15.3183 8.23057 15.3767 7.90179 15.2099 7.66304L15.096 7.50013C15.5107 7.6699 15.8701 7.8576 16.1631 8.0588C16.6675 8.40509 16.9453 8.77556 16.9453 9.10202C16.9453 9.65957 16.1275 10.3027 14.8112 10.7803C14.129 11.0279 13.3452 11.2264 12.4929 11.3707C12.5648 10.6375 12.6019 9.87448 12.6019 9.09668C12.6019 6.77373 12.2709 4.58216 11.6698 2.9257C11.3656 2.08755 11.0047 1.42165 10.597 0.946444C10.2644 0.558775 9.71733 0.0966816 9 0.0966816C8.28267 0.0966816 7.7356 0.558775 7.40299 0.946444C6.99532 1.42165 6.63437 2.08755 6.33027 2.9257C6.03134 3.74945 5.7992 4.70553 5.64135 5.74429C4.60501 5.9021 3.65112 6.13392 2.82906 6.43222C1.9909 6.7364 1.32497 7.09731 0.849797 7.50502C0.462129 7.83763 0 8.3847 0 9.10202C0 9.81935 0.462129 10.3664 0.849797 10.699C1.32497 11.1067 1.9909 11.4677 2.82906 11.7718C4.48552 12.3729 6.67709 12.704 9 12.704C9.77558 12.704 10.5365 12.667 11.2677 12.5955C11.1234 13.4456 10.9254 14.2272 10.6784 14.9078C10.2007 16.2242 9.55754 17.042 9 17.042C8.67944 17.042 8.31129 16.7523 7.96342 16.2263C7.76819 15.9312 7.58514 15.5721 7.41846 15.1597L7.53071 15.2424C7.76507 15.4151 8.09529 15.3653 8.26812 15.1308C8.44091 14.8964 8.39095 14.5663 8.15653 14.3935L6.74163 13.3504C6.60797 13.252 6.43577 13.2221 6.2769 13.2699C6.11793 13.3177 5.99073 13.4375 5.9336 13.5934L5.32846 15.2437C5.22823 15.5172 5.36861 15.8201 5.64202 15.9204C5.70192 15.9423 5.76323 15.9527 5.82353 15.9527C6.03847 15.9527 6.24037 15.8204 6.31867 15.6068L6.38634 15.4223C7.0489 17.1406 7.96757 18.0967 9 18.0967C9.71733 18.0967 10.2644 17.6346 10.597 17.2469C11.0047 16.7717 11.3656 16.1058 11.6698 15.2676C11.9677 14.4468 12.1992 13.4945 12.357 12.46C13.394 12.3022 14.3484 12.0703 15.1709 11.7718C16.0091 11.4677 16.675 11.1067 17.1502 10.699C17.5379 10.3664 18 9.81935 18 9.10202C18 8.61778 17.7849 7.89283 16.76 7.18931Z" fill="#E4E4DC"/>
</g>
</g>
</g>
</g>
</g>
</g>
</g>
<defs>
<clipPath id="clip0_4146_100314">
<rect width="18" height="18" fill="white" transform="translate(0 0.0966797)"/>
</clipPath>
</defs>
</svg>
