<svg width="18" height="18" viewBox="0 0 18 18" fill="none" xmlns="http://www.w3.org/2000/svg">
<g clip-path="url(#clip0_4146_99589)">
<mask id="mask0_4146_99589" style="mask-type:luminance" maskUnits="userSpaceOnUse" x="0" y="0" width="18" height="18">
<path d="M0 1.90735e-06H18V18H0V1.90735e-06Z" fill="white"/>
</mask>
<g mask="url(#mask0_4146_99589)">
<path d="M9 11.5526C6.79665 11.5526 4.73287 11.244 3.18881 10.6837C1.87246 10.206 1.05469 9.56289 1.05469 9.00534C1.05469 8.4478 1.87246 7.80469 3.18881 7.32702C3.87077 7.07952 4.65416 6.88117 5.5061 6.73682C5.43487 7.46666 5.3981 8.22604 5.3981 9C5.3981 9.40384 5.40826 9.80968 5.42834 10.2063C5.44303 10.4972 5.69039 10.7223 5.98166 10.7063C6.27251 10.6916 6.49638 10.4439 6.48165 10.153C6.46249 9.77407 6.45279 9.38612 6.45279 9C6.45279 8.16915 6.49666 7.35813 6.58139 6.58737C7.35395 6.50222 8.16701 6.4581 9 6.4581C9.2733 6.4581 9.54872 6.46299 9.81858 6.47258C10.1097 6.48281 10.354 6.25546 10.3644 5.96437C10.3747 5.67334 10.1472 5.42894 9.85616 5.41856C9.57382 5.40851 9.28578 5.40341 9 5.40341C8.22382 5.40341 7.4623 5.4404 6.73049 5.51204C6.87494 4.65778 7.07361 3.87232 7.32167 3.18881C7.79938 1.87242 8.44246 1.05469 9 1.05469C9.55754 1.05469 10.2007 1.87242 10.6784 3.18881C11.2387 4.73288 11.5472 6.79665 11.5472 9C11.5472 9.83475 11.5029 10.6495 11.4175 11.4235C10.6452 11.5085 9.8326 11.5526 9 11.5526ZM16.76 7.09263C16.3989 6.84468 15.9603 6.61623 15.459 6.41335L15.6049 6.36402C15.8808 6.27075 16.0289 5.97147 15.9356 5.69556C15.8423 5.41962 15.5428 5.27172 15.2672 5.36488L13.6019 5.92787C13.4447 5.98106 13.3217 6.10513 13.2698 6.26281C13.218 6.42052 13.2435 6.59338 13.3385 6.72947L14.3453 8.17042C14.4478 8.31723 14.6116 8.39577 14.778 8.39577C14.8823 8.39577 14.9876 8.36494 15.0796 8.30067C15.3183 8.13389 15.3767 7.80511 15.2099 7.56636L15.096 7.40345C15.5107 7.57322 15.8701 7.76092 16.1631 7.96212C16.6675 8.30841 16.9453 8.67888 16.9453 9.00534C16.9453 9.56289 16.1275 10.206 14.8112 10.6837C14.129 10.9312 13.3452 11.1297 12.4929 11.274C12.5648 10.5409 12.6019 9.7778 12.6019 9C12.6019 6.67705 12.2709 4.48548 11.6698 2.82903C11.3656 1.99087 11.0047 1.32497 10.597 0.849764C10.2644 0.462095 9.71733 1.90735e-06 9 1.90735e-06C8.28267 1.90735e-06 7.7356 0.462095 7.40299 0.849764C6.99532 1.32497 6.63437 1.99087 6.33027 2.82903C6.03134 3.65277 5.7992 4.60885 5.64135 5.64761C4.60501 5.80542 3.65112 6.03724 2.82906 6.33554C1.9909 6.63972 1.32497 7.00063 0.849797 7.40834C0.462129 7.74095 0 8.28802 0 9.00534C0 9.72267 0.462129 10.2697 0.849797 10.6024C1.32497 11.01 1.9909 11.371 2.82906 11.6751C4.48552 12.2762 6.67709 12.6073 9 12.6073C9.77558 12.6073 10.5365 12.5704 11.2677 12.4989C11.1234 13.3489 10.9254 14.1305 10.6784 14.8112C10.2007 16.1275 9.55754 16.9453 9 16.9453C8.67944 16.9453 8.31129 16.6556 7.96342 16.1297C7.76819 15.8345 7.58514 15.4754 7.41846 15.063L7.53071 15.1457C7.76507 15.3185 8.09529 15.2686 8.26812 15.0341C8.44091 14.7997 8.39095 14.4696 8.15653 14.2968L6.74163 13.2538C6.60797 13.1553 6.43577 13.1254 6.2769 13.1732C6.11793 13.221 5.99073 13.3408 5.9336 13.4967L5.32846 15.147C5.22823 15.4205 5.36861 15.7235 5.64202 15.8237C5.70192 15.8457 5.76323 15.8561 5.82353 15.8561C6.03847 15.8561 6.24037 15.7237 6.31867 15.5101L6.38634 15.3256C7.0489 17.0439 7.96757 18 9 18C9.71733 18 10.2644 17.5379 10.597 17.1502C11.0047 16.675 11.3656 16.0091 11.6698 15.1709C11.9677 14.3501 12.1992 13.3978 12.357 12.3633C13.394 12.2055 14.3484 11.9736 15.1709 11.6751C16.0091 11.371 16.675 11.01 17.1502 10.6024C17.5379 10.2697 18 9.72267 18 9.00534C18 8.5211 17.7849 7.79615 16.76 7.09263Z" fill="#E4E4DC"/>
</g>
</g>
<defs>
<clipPath id="clip0_4146_99589">
<rect width="18" height="18" fill="white"/>
</clipPath>
</defs>
</svg>
