<svg width="14" height="14" viewBox="0 0 14 14" fill="none" xmlns="http://www.w3.org/2000/svg">
<path d="M5 3.41114V8.91114M9 4.91114V10.4111M9.33533 12.7431L12.5853 11.1185C12.8393 10.9918 13 10.7318 13 10.4478V2.12447C13 1.56714 12.4133 1.20447 11.9147 1.45381L9.33533 2.74314C9.124 2.84914 8.87533 2.84914 8.66467 2.74314L5.33533 1.07914C5.23121 1.0271 5.1164 1 5 1C4.8836 1 4.76879 1.0271 4.66467 1.07914L1.41467 2.70381C1.16 2.83114 1 3.09114 1 3.37447V11.6978C1 12.2551 1.58667 12.6178 2.08533 12.3685L4.66467 11.0791C4.876 10.9731 5.12467 10.9731 5.33533 11.0791L8.66467 12.7438C8.876 12.8491 9.12467 12.8491 9.33533 12.7438V12.7431Z" stroke="#2B2A28" stroke-opacity="0.7" stroke-linecap="round" stroke-linejoin="round"/>
</svg>
