<svg width="16" height="16" viewBox="0 0 16 16" fill="none" xmlns="http://www.w3.org/2000/svg">
<path d="M6 4.49903V9.99903M10 5.99903V11.499M10.3353 13.831L13.5853 12.2064C13.8393 12.0797 14 11.8197 14 11.5357V3.21237C14 2.65503 13.4133 2.29237 12.9147 2.5417L10.3353 3.83103C10.124 3.93703 9.87533 3.93703 9.66467 3.83103L6.33533 2.16703C6.23121 2.11499 6.1164 2.08789 6 2.08789C5.8836 2.08789 5.76879 2.11499 5.66467 2.16703L2.41467 3.7917C2.16 3.91903 2 4.17903 2 4.46237V12.7857C2 13.343 2.58667 13.7057 3.08533 13.4564L5.66467 12.167C5.876 12.061 6.12467 12.061 6.33533 12.167L9.66467 13.8317C9.876 13.937 10.1247 13.937 10.3353 13.8317V13.831Z" stroke="#8E8E93" stroke-linecap="round" stroke-linejoin="round"/>
</svg>
