<svg width="12" height="12" viewBox="0 0 12 12" fill="none" xmlns="http://www.w3.org/2000/svg">
<g id="Building Modern" clip-path="url(#clip0_4268_26948)">
<path id="Vector" d="M1.625 4.875H5.875C6.00761 4.875 6.13479 4.92768 6.22855 5.02145C6.32232 5.11521 6.375 5.24239 6.375 5.375V11.625H1.125V5.375C1.125 5.24239 1.17768 5.11521 1.27145 5.02145C1.36521 4.92768 1.49239 4.875 1.625 4.875Z" stroke="#666666" stroke-linecap="round" stroke-linejoin="round"/>
<path id="Vector_2" d="M7.875 11.625H10.875V1.125C10.875 0.926088 10.796 0.735322 10.6553 0.59467C10.5147 0.454018 10.3239 0.375 10.125 0.375H5.625C5.42609 0.375 5.23532 0.454018 5.09467 0.59467C4.95402 0.735322 4.875 0.926088 4.875 1.125V3.375H5.625" stroke="#666666" stroke-linecap="round" stroke-linejoin="round"/>
<path id="Vector_3" d="M1.125 11.625H0.375" stroke="#666666" stroke-linecap="round" stroke-linejoin="round"/>
<path id="Vector_4" d="M10.875 11.625H11.625" stroke="#666666" stroke-linecap="round" stroke-linejoin="round"/>
<path id="Vector_5" d="M4.875 1.875H7.125" stroke="#666666" stroke-linecap="round" stroke-linejoin="round"/>
<path id="Vector_6" d="M1.125 6.375H2.25" stroke="#666666" stroke-linecap="round" stroke-linejoin="round"/>
<path id="Vector_7" d="M4.125 11.625H2.625V10.125C2.625 9.92609 2.70402 9.73532 2.84467 9.59467C2.98532 9.45402 3.17609 9.375 3.375 9.375C3.57391 9.375 3.76468 9.45402 3.90533 9.59467C4.04598 9.73532 4.125 9.92609 4.125 10.125V11.625Z" stroke="#666666" stroke-linecap="round" stroke-linejoin="round"/>
<path id="Vector_8" d="M9.375 11.625H7.875V9.375C7.875 9.17609 7.95402 8.98532 8.09467 8.84467C8.23532 8.70402 8.42609 8.625 8.625 8.625C8.82391 8.625 9.01468 8.70402 9.15533 8.84467C9.29598 8.98532 9.375 9.17609 9.375 9.375V11.625Z" stroke="#666666" stroke-linecap="round" stroke-linejoin="round"/>
</g>
<defs>
<clipPath id="clip0_4268_26948">
<rect width="12" height="12" fill="white"/>
</clipPath>
</defs>
</svg>
