<svg width="26" height="26" viewBox="0 0 26 26" fill="none" xmlns="http://www.w3.org/2000/svg">
<g id="app-store 1" clip-path="url(#clip0_4731_1938)">
<g id="Group">
<path id="Vector" d="M20.4475 0.601562H5.54937C2.75908 0.601562 0.5 2.86064 0.5 5.65093V20.5522C0.5 23.3394 2.75908 25.5984 5.54937 25.5984H20.4506C23.2378 25.5984 25.5 23.3394 25.5 20.5491V5.65093C25.4969 2.86064 23.2378 0.601562 20.4475 0.601562Z" fill="url(#paint0_linear_4731_1938)"/>
<g id="Group_2">
<path id="Vector_2" d="M12.8934 6.34702L13.3996 5.47212C13.712 4.92529 14.4088 4.74097 14.9556 5.05342C15.5024 5.36587 15.6868 6.06265 15.3743 6.60947L10.4968 15.0522H14.0245C15.1681 15.0522 15.8086 16.3958 15.3118 17.3269H4.96938C4.33823 17.3269 3.83203 16.8207 3.83203 16.1896C3.83203 15.5584 4.33823 15.0522 4.96938 15.0522H7.86904L11.5811 8.6186L10.4219 6.60635C10.1094 6.05952 10.2938 5.36899 10.8406 5.05029C11.3874 4.73784 12.0779 4.92217 12.3966 5.46899L12.8934 6.34702Z" fill="white"/>
<path id="Vector_3" d="M8.50537 18.5019L7.41177 20.3985C7.09932 20.9454 6.40254 21.1297 5.85571 20.8172C5.30889 20.5048 5.12456 19.808 5.43701 19.2612L6.24941 17.8551C7.16802 17.5708 7.9148 17.7895 8.50537 18.5019Z" fill="white"/>
<path id="Vector_4" d="M17.9226 15.0618H20.8815C21.5127 15.0618 22.0189 15.568 22.0189 16.1991C22.0189 16.8303 21.5127 17.3365 20.8815 17.3365H19.238L20.3472 19.2612C20.6597 19.8081 20.4753 20.4986 19.9285 20.8173C19.3817 21.1297 18.6912 20.9454 18.3725 20.3986C16.5039 17.1583 15.101 14.7337 14.1699 13.1183C13.2168 11.4747 13.898 9.8249 14.5698 9.26562C15.3166 10.5467 16.4321 12.4809 17.9226 15.0618Z" fill="white"/>
</g>
</g>
</g>
<defs>
<linearGradient id="paint0_linear_4731_1938" x1="13" y1="0.601563" x2="13" y2="25.5984" gradientUnits="userSpaceOnUse">
<stop stop-color="#00BFFC"/>
<stop offset="1" stop-color="#0073F6"/>
</linearGradient>
<clipPath id="clip0_4731_1938">
<rect width="25" height="25" fill="white" transform="translate(0.5 0.601562)"/>
</clipPath>
</defs>
</svg>
