<svg width="16" height="16" viewBox="0 0 16 16" fill="none" xmlns="http://www.w3.org/2000/svg">
<g clip-path="url(#clip0_506_3311)">
<path d="M4.86694 4.77344C3.30119 4.77344 2.02734 6.04728 2.02734 7.61303C2.02734 9.17878 3.30119 10.4526 4.86694 10.4526C6.43269 10.4526 7.70653 9.17878 7.70653 7.61303C7.70653 6.04728 6.43269 4.77344 4.86694 4.77344ZM4.86694 9.51513C3.81809 9.51513 2.96484 8.66184 2.96484 7.61303C2.96484 6.56422 3.81813 5.71094 4.86694 5.71094C5.91575 5.71094 6.76903 6.56422 6.76903 7.61303C6.76903 8.66184 5.91575 9.51513 4.86694 9.51513Z" fill="#2B2A28" fill-opacity="0.7"/>
<path d="M15.5312 11.1729H11.9411V10.2053C11.9411 9.94647 11.7312 9.73659 11.4723 9.73659H9.73291V7.52666C9.73291 7.17487 9.69503 6.83181 9.62378 6.501L10.3063 5.99109C10.6027 5.76969 10.7951 5.44609 10.8482 5.07997C10.9012 4.71381 10.8084 4.34897 10.587 4.05256L9.80781 3.00953C9.58641 2.71312 9.26284 2.52072 8.89669 2.46769C8.5305 2.41469 8.16569 2.50741 7.86928 2.72884L7.17809 3.24519C6.49003 2.87222 5.70256 2.66019 4.86647 2.66019C2.18306 2.66022 0 4.84328 0 7.52666V11.2748C0 12.5275 1.01916 13.5467 2.27187 13.5467H11.4723C11.7312 13.5467 11.9411 13.3368 11.9411 13.0779V12.1104H15.0625V13.0719C15.0625 13.3308 15.2724 13.5407 15.5312 13.5407C15.7901 13.5407 16 13.3308 16 13.0719V11.6416C16 11.3827 15.7901 11.1729 15.5312 11.1729ZM8.43034 3.47991C8.52609 3.40837 8.64391 3.37837 8.76234 3.39553C8.88066 3.41266 8.98519 3.47484 9.05675 3.57059L9.83597 4.61366C9.90753 4.70944 9.9375 4.82731 9.92037 4.94562C9.90325 5.06394 9.84106 5.1685 9.74528 5.24003L9.31728 5.55978C9.01484 4.87803 8.56025 4.27834 7.99681 3.80381L8.43034 3.47991ZM11.0036 12.6092H2.27187C1.53609 12.6092 0.9375 12.0106 0.9375 11.2748V7.52666C0.9375 5.36022 2.70003 3.59772 4.86647 3.59772C7.03291 3.59772 8.79544 5.36025 8.79544 7.52669V10.2054C8.79544 10.4642 9.00531 10.6741 9.26419 10.6741H11.0036V12.6092H11.0036Z" fill="#2B2A28" fill-opacity="0.7"/>
</g>
<defs>
<clipPath id="clip0_506_3311">
<rect width="16" height="16" fill="white"/>
</clipPath>
</defs>
</svg>
