<svg width="64" height="64" viewBox="0 0 64 64" fill="none" xmlns="http://www.w3.org/2000/svg">
<g id="sad 1" clip-path="url(#clip0_3585_26590)">
<g id="Group">
<g id="Group_2">
<g id="Group_3">
<path id="Vector" d="M32 0C14.3555 0 0 14.3555 0 32C0 49.6445 14.3555 64 32 64C49.6459 64 64 49.6445 64 32C64 14.3555 49.6459 0 32 0ZM32 61.2174C15.8887 61.2174 2.78261 48.1113 2.78261 32C2.78261 15.8887 15.8887 2.78261 32 2.78261C48.1099 2.78261 61.2174 15.8887 61.2174 32C61.2174 48.1113 48.1099 61.2174 32 61.2174Z" fill="#EF3D3D"/>
<path id="Vector_2" d="M25.0431 26.4317C25.0431 24.1305 23.1704 22.2578 20.8692 22.2578C18.568 22.2578 16.6953 24.1305 16.6953 26.4317C16.6953 28.7329 18.568 30.6056 20.8692 30.6056C23.1704 30.6056 25.0431 28.7329 25.0431 26.4317ZM19.4779 26.4317C19.4779 25.6651 20.1026 25.0404 20.8692 25.0404C21.6358 25.0404 22.2605 25.6651 22.2605 26.4317C22.2605 27.1983 21.6358 27.823 20.8692 27.823C20.1026 27.823 19.4779 27.1983 19.4779 26.4317Z" fill="#EF3D3D"/>
<path id="Vector_3" d="M43.1309 22.2578C40.8297 22.2578 38.957 24.1305 38.957 26.4317C38.957 28.7329 40.8297 30.6056 43.1309 30.6056C45.4322 30.6056 47.3049 28.7329 47.3049 26.4317C47.3049 24.1305 45.4322 22.2578 43.1309 22.2578ZM43.1309 27.823C42.3629 27.823 41.7396 27.1983 41.7396 26.4317C41.7396 25.6651 42.3629 25.0404 43.1309 25.0404C43.8989 25.0404 44.5222 25.6651 44.5222 26.4317C44.5222 27.1983 43.8989 27.823 43.1309 27.823Z" fill="#EF3D3D"/>
<path id="Vector_4" d="M31.9985 38.9531C26.8117 38.9531 21.8698 41.15 18.4402 44.9816C17.9282 45.5549 17.9769 46.4342 18.5488 46.9462C19.122 47.4596 20.0013 47.4095 20.5133 46.8376C23.4156 43.5945 27.602 41.7357 31.9985 41.7357C36.395 41.7357 40.5815 43.5945 43.4837 46.8376C43.7578 47.1451 44.139 47.301 44.5202 47.301C44.85 47.301 45.1839 47.1841 45.4482 46.9462C46.0201 46.4342 46.0688 45.5549 45.5568 44.9816C42.1272 41.1514 37.1867 38.9531 31.9985 38.9531Z" fill="#EF3D3D"/>
</g>
</g>
</g>
</g>
<defs>
<clipPath id="clip0_3585_26590">
<rect width="64" height="64" fill="white"/>
</clipPath>
</defs>
</svg>
