<svg width="17" height="15" viewBox="0 0 17 15" fill="none" xmlns="http://www.w3.org/2000/svg">
<g opacity="0.7">
<path d="M14.6805 6.9995V2.55075C14.6805 1.64613 13.9445 0.910156 13.0399 0.910156H3.96003C3.05541 0.910156 2.3195 1.64613 2.3195 2.55075V6.9995C1.27713 7.25025 0.5 8.18984 0.5 9.30806V12.6263C0.5 12.8895 0.713406 13.1029 0.976656 13.1029H2.31947V14.2558C2.31947 14.519 2.53288 14.7324 2.79612 14.7324C3.05937 14.7324 3.27278 14.519 3.27278 14.2558V13.1029H13.7272V14.2558C13.7272 14.519 13.9406 14.7324 14.2038 14.7324C14.4671 14.7324 14.6805 14.519 14.6805 14.2558V13.1029H16.0233C16.2865 13.1029 16.4999 12.8895 16.4999 12.6263V9.30806C16.5 8.18984 15.7229 7.25025 14.6805 6.9995ZM3.27281 2.55075C3.27281 2.17181 3.58113 1.8635 3.96003 1.8635H13.0399C13.4189 1.8635 13.7272 2.17181 13.7272 2.55075V6.93331H12.152V6.18131C12.152 4.93538 11.1384 3.92175 9.89247 3.92175H7.10759C5.86166 3.92175 4.84803 4.93541 4.84803 6.18131V6.93328H3.27281V2.55075ZM11.1987 6.18131V6.93328H5.80128V6.18131C5.80128 5.46103 6.38725 4.87506 7.10753 4.87506H9.89244C10.6127 4.87503 11.1987 5.46106 11.1987 6.18131ZM1.45331 12.1496V9.30806C1.45331 8.52428 2.09097 7.88662 2.87475 7.88662H14.1252C14.909 7.88662 15.5466 8.52428 15.5466 9.30806V12.1496H1.45331Z" fill="#2B2A28"/>
</g>
</svg>
