<svg width="14" height="15" viewBox="0 0 14 15" fill="none" xmlns="http://www.w3.org/2000/svg">
<g clip-path="url(#clip0_13571_47275)">
<path d="M11.75 11.5H11.375V6.1875C11.375 3.98281 9.74531 2.16094 7.625 1.85781V1.25C7.625 0.904688 7.34531 0.625 7 0.625C6.65469 0.625 6.375 0.904688 6.375 1.25V1.85781C4.25469 2.16094 2.625 3.98281 2.625 6.1875V11.5H2.25C1.97344 11.5 1.75 11.7234 1.75 12V12.5C1.75 12.5687 1.80625 12.625 1.875 12.625H5.25C5.25 13.5906 6.03438 14.375 7 14.375C7.96563 14.375 8.75 13.5906 8.75 12.625H12.125C12.1938 12.625 12.25 12.5687 12.25 12.5V12C12.25 11.7234 12.0266 11.5 11.75 11.5ZM7 13.375C6.58594 13.375 6.25 13.0391 6.25 12.625H7.75C7.75 13.0391 7.41406 13.375 7 13.375ZM3.75 11.5V6.1875C3.75 5.31875 4.0875 4.50312 4.70156 3.88906C5.31563 3.275 6.13125 2.9375 7 2.9375C7.86875 2.9375 8.68438 3.275 9.29844 3.88906C9.9125 4.50312 10.25 5.31875 10.25 6.1875V11.5H3.75Z" fill="#8E8E93"/>
</g>
<defs>
<clipPath id="clip0_13571_47275">
<rect width="14" height="14" fill="white" transform="translate(0 0.5)"/>
</clipPath>
</defs>
</svg>
