<svg width="18" height="18" viewBox="0 0 18 18" fill="none" xmlns="http://www.w3.org/2000/svg">
<g id="blueprint 1" clip-path="url(#clip0_7952_26712)">
<path id="Vector" d="M16.6337 0.325195H0.95205C0.519028 0.325195 0.167969 0.67829 0.167969 1.11382V16.8866C0.167969 17.3221 0.519028 17.6752 0.95205 17.6752H9.83831C10.2713 17.6752 10.6224 17.3221 10.6224 16.8866C10.6224 16.451 10.2713 16.0979 9.83831 16.0979H1.73613V9.26318H5.39518V12.1546C5.39518 12.5901 5.74624 12.9432 6.17926 12.9432C6.61228 12.9432 6.96334 12.5901 6.96334 12.1546V4.79408C6.96334 4.35855 6.61228 4.00545 6.17926 4.00545C5.74624 4.00545 5.39518 4.35855 5.39518 4.79408V7.68592H1.73613V1.90245H9.57695V5.84579C9.57695 6.28133 9.92801 6.63442 10.361 6.63442H14.0201C14.4531 6.63442 14.8042 6.28133 14.8042 5.84579C14.8042 5.41026 14.4531 5.05717 14.0201 5.05717H11.1451V1.90245H15.8496V11.3662H10.361C9.92801 11.3662 9.57695 11.7193 9.57695 12.1548C9.57695 12.5903 9.92801 12.9434 10.361 12.9434H15.8496V16.0979H14.5428C14.1098 16.0979 13.7587 16.451 13.7587 16.8866C13.7587 17.3221 14.1098 17.6752 14.5428 17.6752H16.6337C17.0667 17.6752 17.4178 17.3221 17.4178 16.8866V1.11382C17.4178 0.67829 17.0667 0.325195 16.6337 0.325195Z" fill="#8D8D87"/>
</g>
<defs>
<clipPath id="clip0_7952_26712">
<rect width="17.25" height="17.35" fill="white" transform="translate(0.167969 0.325195)"/>
</clipPath>
</defs>
</svg>
