<svg width="24" height="24" viewBox="0 0 24 24" fill="none" xmlns="http://www.w3.org/2000/svg">
<g id="hand 1">
<path id="Vector" fill-rule="evenodd" clip-rule="evenodd" d="M12.964 2.83984C9.56172 2.83984 6.80363 5.59793 6.80363 9.00019C6.80363 10.3958 7.26728 11.6821 8.04912 12.7148C8.17413 12.8799 8.14159 13.1151 7.97646 13.2402C7.81135 13.3652 7.57615 13.3326 7.45114 13.1675C6.57409 12.009 6.05363 10.5648 6.05363 9.00019C6.05363 5.18372 9.14751 2.08984 12.964 2.08984C16.7805 2.08984 19.8743 5.18372 19.8743 9.00019C19.8743 10.4952 19.3992 11.8803 18.5916 13.0114C18.4713 13.1799 18.2371 13.219 18.0685 13.0987C17.9 12.9783 17.8609 12.7441 17.9812 12.5756C18.701 11.5675 19.1243 10.3339 19.1243 9.00019C19.1243 5.59793 16.3662 2.83984 12.964 2.83984ZM10.7783 5.94966C10.3162 5.94966 9.9415 6.32432 9.9415 6.78649C9.9415 7.24868 10.3162 7.62334 10.7783 7.62334C11.2405 7.62334 11.6152 7.24868 11.6152 6.78649C11.6152 6.32432 11.2405 5.94966 10.7783 5.94966ZM9.1915 6.78649C9.1915 5.91012 9.90196 5.19966 10.7783 5.19966C11.6547 5.19966 12.3652 5.91012 12.3652 6.78649C12.3652 7.66289 11.6547 8.37334 10.7783 8.37334C9.90196 8.37334 9.1915 7.66289 9.1915 6.78649ZM15.5089 5.30363C15.678 5.42329 15.718 5.65733 15.5983 5.82636L10.7976 12.6074C10.6779 12.7765 10.4438 12.8165 10.2748 12.6968C10.1058 12.5771 10.0658 12.3431 10.1854 12.1741L14.9862 5.39301C15.1058 5.22398 15.3399 5.18395 15.5089 5.30363ZM15.0846 10.5196C14.6224 10.5196 14.2478 10.8943 14.2478 11.3565C14.2478 11.8187 14.6224 12.1933 15.0846 12.1933C15.5468 12.1933 15.9214 11.8187 15.9214 11.3565C15.9214 10.8943 15.5468 10.5196 15.0846 10.5196ZM13.4978 11.3565C13.4978 10.4801 14.2082 9.76964 15.0846 9.76964C15.961 9.76964 16.6714 10.4801 16.6714 11.3565C16.6714 12.2329 15.961 12.9433 15.0846 12.9433C14.2082 12.9433 13.4978 12.2329 13.4978 11.3565ZM21.4598 13.997C21.2251 13.6662 20.7824 13.5591 20.4224 13.7461L16.5628 15.7511C16.379 15.8466 16.1526 15.775 16.0571 15.5912C15.9616 15.4074 16.0332 15.181 16.217 15.0855L20.0766 13.0806C20.7687 12.721 21.62 12.9268 22.0715 13.5629C22.6098 14.3215 22.3703 15.3794 21.5579 15.8323L14.4927 19.7712C13.9902 20.0513 13.4245 20.1983 12.8492 20.1983H7.16112C6.65686 20.1983 6.17384 20.4016 5.82111 20.7619L5.05596 21.5436C4.9111 21.6917 4.67367 21.6942 4.52566 21.5494C4.37764 21.4045 4.37509 21.1671 4.51996 21.019L5.28513 20.2373C5.77892 19.7327 6.45514 19.4483 7.16112 19.4483H12.8492C13.2967 19.4483 13.7367 19.3339 14.1275 19.1161L21.1928 15.1772C21.6153 14.9417 21.7398 14.3915 21.4598 13.997ZM7.58539 14.8912C6.79769 14.7903 6.00653 15.0437 5.43029 15.5861L2.78046 18.0801C2.62964 18.222 2.39232 18.2148 2.25036 18.064C2.10842 17.9132 2.11561 17.6759 2.26643 17.534L4.91626 15.0399C5.65784 14.342 6.67328 14.0183 7.68066 14.1473C8.90922 14.3046 10.2837 14.4688 10.7269 14.4852C11.2014 14.5028 12.7217 14.5003 14.0097 14.4935C14.9291 14.4887 15.6792 15.2319 15.6792 16.1526C15.6792 17.0678 14.9373 17.8097 14.0221 17.8097H10.3097C10.1026 17.8097 9.93473 17.6418 9.93473 17.4347C9.93473 17.2276 10.1026 17.0597 10.3097 17.0597H14.0221C14.523 17.0597 14.9292 16.6536 14.9292 16.1526C14.9292 15.6489 14.5186 15.2409 14.0136 15.2435C12.7347 15.2502 11.1938 15.253 10.6991 15.2347C10.2131 15.2167 8.79535 15.0462 7.58539 14.8912Z" fill="black"/>
</g>
</svg>
