<svg width="85" height="85" viewBox="0 0 85 85" fill="none" xmlns="http://www.w3.org/2000/svg">
<circle opacity="0.5" cx="42.5" cy="42.5" r="42.5" fill="#E4E4DC"/>
<path d="M53.2889 53.2902L51.7828 54.8006L54.7993 57.8172L56.3097 56.311L53.2889 53.2902ZM67.5993 42.0006L69.1097 43.511L70.6159 42.0006L69.1097 40.4902L67.5993 42.0006ZM56.3097 27.6902L54.7993 26.1841L51.7828 29.2006L53.2889 30.711L56.3097 27.6902ZM27.6889 56.311L29.1993 57.8172L32.2159 54.8006L30.7097 53.2902L27.6889 56.311ZM16.3993 42.0006L14.8889 40.4902L13.3828 42.0006L14.8889 43.511L16.3993 42.0006ZM30.7097 30.711L32.2159 29.2006L29.1993 26.1841L27.6889 27.6902L30.7097 30.711ZM56.3097 56.311L69.1097 43.511L66.0889 40.4902L53.2889 53.2902L56.3097 56.311ZM69.1097 40.4902L56.3097 27.6902L53.2889 30.711L66.0889 43.511L69.1097 40.4902ZM30.7097 53.2902L17.9097 40.4902L14.8889 43.511L27.6889 56.311L30.7097 53.2902ZM17.9097 43.511L30.7097 30.711L27.6889 27.6902L14.8889 40.4902L17.9097 43.511ZM44.1625 16.0508L35.6292 67.2508L39.8361 67.9505L48.3695 16.7505L44.1625 16.0508Z" fill="#A79F92"/>
</svg>
