<svg width="49" height="48" viewBox="0 0 49 48" fill="none" xmlns="http://www.w3.org/2000/svg">
<g id="Building Modern 3">
<path id="Vector" d="M3.87109 46.5V16.5H21.8711V46.5" stroke="#A79F92" stroke-width="1.71" stroke-linecap="round" stroke-linejoin="round"/>
<path id="Vector_2" d="M9.87109 46.5V22.5" stroke="#A79F92" stroke-width="1.71" stroke-linecap="round" stroke-linejoin="round"/>
<path id="Vector_3" d="M15.8711 46.5V22.5" stroke="#A79F92" stroke-width="1.71" stroke-linecap="round" stroke-linejoin="round"/>
<path id="Vector_4" d="M3.87109 16.5L12.8711 6L21.8711 16.5" stroke="#A79F92" stroke-width="1.71" stroke-linecap="round" stroke-linejoin="round"/>
<path id="Vector_5" d="M12.8711 1.5V6" stroke="#A79F92" stroke-width="1.71" stroke-linecap="round" stroke-linejoin="round"/>
<path id="Vector_6" d="M45.8711 46.4997V22.0817C45.871 21.7668 45.7718 21.4598 45.5877 21.2043C45.4036 20.9487 45.1438 20.7575 44.8451 20.6577L29.8451 15.6577C29.6196 15.5821 29.3793 15.5613 29.1441 15.5971C28.9089 15.6328 28.6856 15.724 28.4927 15.8632C28.2998 16.0024 28.1428 16.1855 28.0347 16.3974C27.9266 16.6093 27.8705 16.8438 27.8711 17.0817V46.4997" stroke="#A79F92" stroke-width="1.71" stroke-linecap="round" stroke-linejoin="round"/>
<path id="Vector_7" d="M39.8711 42V43.5" stroke="#A79F92" stroke-width="1.71" stroke-linecap="round" stroke-linejoin="round"/>
<path id="Vector_8" d="M39.8711 34.5V36" stroke="#A79F92" stroke-width="1.71" stroke-linecap="round" stroke-linejoin="round"/>
<path id="Vector_9" d="M39.8711 27V28.5" stroke="#A79F92" stroke-width="1.71" stroke-linecap="round" stroke-linejoin="round"/>
<path id="Vector_10" d="M33.8711 42V43.5" stroke="#A79F92" stroke-width="1.71" stroke-linecap="round" stroke-linejoin="round"/>
<path id="Vector_11" d="M33.8711 34.5V36" stroke="#A79F92" stroke-width="1.71" stroke-linecap="round" stroke-linejoin="round"/>
<path id="Vector_12" d="M33.8711 27V28.5" stroke="#A79F92" stroke-width="1.71" stroke-linecap="round" stroke-linejoin="round"/>
</g>
</svg>
