<svg width="24" height="24" viewBox="0 0 24 24" fill="none" xmlns="http://www.w3.org/2000/svg">
<g id="Building Modern 4">
<path id="Vector" d="M1.5 23.25V8.25H10.5V23.25" stroke="#2B2A28" stroke-width="0.76" stroke-linecap="round" stroke-linejoin="round"/>
<path id="Vector_2" d="M4.5 23.25V11.25" stroke="#2B2A28" stroke-width="0.76" stroke-linecap="round" stroke-linejoin="round"/>
<path id="Vector_3" d="M7.5 23.25V11.25" stroke="#2B2A28" stroke-width="0.76" stroke-linecap="round" stroke-linejoin="round"/>
<path id="Vector_4" d="M1.5 8.25L6 3L10.5 8.25" stroke="#2B2A28" stroke-width="0.76" stroke-linecap="round" stroke-linejoin="round"/>
<path id="Vector_5" d="M6 0.75V3" stroke="#2B2A28" stroke-width="0.76" stroke-linecap="round" stroke-linejoin="round"/>
<path id="Vector_6" d="M22.5 23.2469V11.0379C22.4999 10.8805 22.4504 10.727 22.3583 10.5992C22.2663 10.4714 22.1364 10.3758 21.987 10.3259L14.487 7.82593C14.3742 7.78814 14.2541 7.77774 14.1365 7.79561C14.0189 7.81347 13.9073 7.85908 13.8108 7.92867C13.7143 7.99825 13.6358 8.0898 13.5818 8.19575C13.5278 8.3017 13.4997 8.41899 13.5 8.53793V23.2469" stroke="#2B2A28" stroke-width="0.76" stroke-linecap="round" stroke-linejoin="round"/>
<path id="Vector_7" d="M19.5 21V21.75" stroke="#2B2A28" stroke-width="0.76" stroke-linecap="round" stroke-linejoin="round"/>
<path id="Vector_8" d="M19.5 17.25V18" stroke="#2B2A28" stroke-width="0.76" stroke-linecap="round" stroke-linejoin="round"/>
<path id="Vector_9" d="M19.5 13.5V14.25" stroke="#2B2A28" stroke-width="0.76" stroke-linecap="round" stroke-linejoin="round"/>
<path id="Vector_10" d="M16.5 21V21.75" stroke="#2B2A28" stroke-width="0.76" stroke-linecap="round" stroke-linejoin="round"/>
<path id="Vector_11" d="M16.5 17.25V18" stroke="#2B2A28" stroke-width="0.76" stroke-linecap="round" stroke-linejoin="round"/>
<path id="Vector_12" d="M16.5 13.5V14.25" stroke="#2B2A28" stroke-width="0.76" stroke-linecap="round" stroke-linejoin="round"/>
</g>
</svg>
