<svg width="22" height="22" viewBox="0 0 22 22" fill="none" xmlns="http://www.w3.org/2000/svg">
<g id="carbon:send">
<path id="Vector" d="M18.8722 10.389L3.74719 2.82651C3.62865 2.76723 3.49549 2.74347 3.36376 2.75811C3.23203 2.77275 3.10733 2.82515 3.00469 2.90901C2.90667 2.99117 2.83351 3.09903 2.79343 3.22048C2.75335 3.34193 2.74794 3.47216 2.77782 3.59651L4.81282 11.0009L2.75032 18.3846C2.72229 18.4885 2.71901 18.5975 2.74076 18.7028C2.76251 18.8082 2.80868 18.9069 2.87555 18.9912C2.94242 19.0754 3.02813 19.1428 3.12578 19.1879C3.22344 19.233 3.33031 19.2546 3.43782 19.2509C3.54544 19.2502 3.65141 19.2243 3.74719 19.1753L18.8722 11.6128C18.9848 11.5551 19.0793 11.4674 19.1453 11.3595C19.2113 11.2515 19.2462 11.1274 19.2462 11.0009C19.2462 10.8744 19.2113 10.7503 19.1453 10.6423C19.0793 10.5344 18.9848 10.4467 18.8722 10.389ZM4.50344 17.264L6.02282 11.6884H12.3753V10.3134H6.02282L4.50344 4.73776L17.0228 11.0009L4.50344 17.264Z" fill="#2B2A28"/>
</g>
</svg>
