<svg width="57" height="56" viewBox="0 0 57 56" fill="none" xmlns="http://www.w3.org/2000/svg">
<rect x="0.335938" width="56" height="56" rx="28" fill="#284047" fill-opacity="0.2"/>
<g clip-path="url(#clip0_3208_33897)">
<path d="M43.8025 36.6679C44.097 36.6679 44.3358 36.4291 44.3358 36.1346C44.3358 35.84 44.097 35.6013 43.8025 35.6013H43.2692C43.2692 35.3067 43.0304 35.068 42.7359 35.068C42.4413 35.068 42.2026 35.3067 42.2026 35.6013H33.6693C33.6693 35.3067 33.4305 35.068 33.136 35.068C32.8415 35.068 32.6027 35.3067 32.6027 35.6013H32.0694C31.7749 35.6013 31.5361 35.8401 31.5361 36.1346C31.5361 36.4291 31.7749 36.6679 32.0694 36.6679H32.6027V38.2679H32.0694C31.7749 38.2679 31.5361 38.5066 31.5361 38.8012C31.5361 39.0957 31.7749 39.3345 32.0694 39.3345H32.6027V39.8678H32.0694C31.7749 39.8678 31.5361 40.1066 31.5361 40.4011C31.5361 40.6956 31.7749 40.9344 32.0694 40.9344H32.6027V42.5343H23.5361V38.1219C24.3251 38.5665 25.2152 38.8004 26.1207 38.8011C29.1494 38.7575 31.5716 36.2711 31.536 33.2423C31.5524 31.1365 30.3765 29.2025 28.4993 28.2482C29.1173 27.4068 29.4484 26.389 29.4438 25.3451C29.4624 23.0412 27.8462 21.047 25.5884 20.5878C26.1597 19.328 26.0615 17.8656 25.3268 16.6935C24.5922 15.5214 23.319 14.7955 21.9361 14.7604C21.9203 14.7604 21.905 14.7626 21.8893 14.7628C21.6054 12.9274 20.0149 11.5802 18.1578 11.6018C16.3008 11.6234 14.7422 13.0074 14.5011 14.8489C13.1506 15.1078 12.2183 16.3512 12.3483 17.7201C12.4782 19.0891 13.6278 20.1348 15.003 20.1349H18.1117C18.1598 20.2882 18.2169 20.4387 18.2826 20.5853C16.0249 21.046 14.4095 23.041 14.4285 25.3451C14.4239 26.3891 14.755 27.4069 15.373 28.2482C13.4958 29.2026 12.3199 31.1366 12.3363 33.2424C12.3007 36.2711 14.7229 38.7575 17.7516 38.8012C18.6572 38.8005 19.5473 38.5666 20.3362 38.122V42.5344H12.8697C12.5751 42.5344 12.3364 42.7731 12.3364 43.0677C12.3364 43.3623 12.5751 43.601 12.8697 43.601H43.8025C44.097 43.601 44.3358 43.3623 44.3358 43.0677C44.3358 42.7731 44.097 42.5344 43.8025 42.5344H43.2692V40.9344H43.8025C44.097 40.9344 44.3358 40.6957 44.3358 40.4011C44.3358 40.1066 44.097 39.8678 43.8025 39.8678H43.2692V39.3345H43.8025C44.097 39.3345 44.3358 39.0958 44.3358 38.8012C44.3358 38.5067 44.097 38.2679 43.8025 38.2679H43.2692V36.6679L43.8025 36.6679ZM17.9157 18.8838C17.9157 18.9458 17.9227 19.0066 17.9254 19.0682H15.003C14.1194 19.0682 13.403 18.3519 13.403 17.4682C13.403 16.5845 14.1194 15.8682 15.003 15.8682C15.1444 15.8683 15.2801 15.8121 15.3801 15.7121C15.4801 15.6121 15.5363 15.4764 15.5363 15.3349C15.5336 13.943 16.6038 12.7842 17.9914 12.6763C19.3791 12.5684 20.6155 13.5479 20.828 14.9234C19.0885 15.4548 17.9044 17.0651 17.9157 18.8838ZM22.4695 42.5345H21.4029V37.338C21.594 37.16 21.7722 36.9686 21.9362 36.7653C22.1001 36.9686 22.2783 37.16 22.4695 37.3379L22.4695 42.5345ZM22.5343 35.7573L26.0465 32.245C26.2516 32.0362 26.25 31.7012 26.0431 31.4943C25.8363 31.2873 25.5012 31.2858 25.2924 31.4909L22.4695 34.3137V28.8888L24.9799 26.3785C25.1859 26.1699 25.1849 25.8341 24.9775 25.6267C24.7702 25.4194 24.4344 25.4183 24.2257 25.6243L22.4695 27.3805V24.9348C22.4695 24.6402 22.2307 24.4015 21.9362 24.4015C21.6416 24.4015 21.4029 24.6403 21.4029 24.9348V27.3805L19.6466 25.6243C19.438 25.4183 19.1022 25.4194 18.8948 25.6267C18.6875 25.834 18.6865 26.1698 18.8925 26.3785L21.4028 28.8889V34.3138L18.5799 31.4909C18.3713 31.2849 18.0355 31.286 17.8281 31.4933C17.6208 31.7006 17.6197 32.0365 17.8257 32.2451L21.338 35.7573C20.5572 36.9841 19.2056 37.7292 17.7515 37.7345C15.3116 37.6916 13.3666 35.6824 13.4029 33.2424C13.3802 31.3129 14.5998 29.5872 16.4263 28.9644C16.6028 28.9062 16.7363 28.7603 16.7786 28.5792C16.8208 28.3981 16.7656 28.2082 16.6331 28.0779C15.9 27.3582 15.4895 26.3724 15.4951 25.3451C15.4602 23.3101 17.0696 21.626 19.1041 21.5686C19.3243 21.5881 19.5348 21.4741 19.6388 21.279C19.7297 21.0998 19.7119 20.8846 19.5927 20.7228C19.1974 20.191 18.9834 19.5464 18.9823 18.8838C18.9563 17.2249 20.2774 15.8578 21.9361 15.8271C23.5949 15.8578 24.916 17.2249 24.8899 18.8838C24.8888 19.5464 24.6748 20.191 24.2795 20.7228C24.1627 20.886 24.1481 21.101 24.2417 21.2785C24.336 21.4586 24.5226 21.5712 24.7259 21.5707C26.7751 21.6076 28.4082 23.2957 28.3771 25.3451C28.3827 26.3724 27.9722 27.3582 27.2391 28.0779C27.1065 28.2082 27.0514 28.3981 27.0936 28.5792C27.1359 28.7603 27.2694 28.9062 27.4459 28.9644C29.4943 29.6806 30.7429 31.7532 30.4187 33.8988C30.0945 36.0444 28.2892 37.6556 26.1207 37.7345C24.6665 37.7292 23.3151 36.9841 22.5343 35.7573ZM42.2025 42.5345H33.6693V40.9345H42.2025V42.5345ZM42.2025 39.8678H33.6693V39.3345H42.2025V39.8678ZM42.2025 38.2679H33.6693V36.6679H42.2025V38.2679Z" fill="black"/>
<path d="M35.2683 24.9355H41.6682C43.0433 24.9354 44.1929 23.8898 44.3229 22.5208C44.4529 21.1518 43.5206 19.9085 42.17 19.6497C41.926 17.7916 40.3423 16.4023 38.4683 16.4023C36.5943 16.4023 35.0106 17.7916 34.7665 19.6497C33.416 19.9085 32.4837 21.1518 32.6136 22.5208C32.7436 23.8898 33.8932 24.9354 35.2683 24.9355ZM35.2683 20.6689C35.4098 20.669 35.5455 20.6128 35.6455 20.5127C35.7455 20.4127 35.8017 20.277 35.8017 20.1355C35.8017 18.6628 36.9956 17.4689 38.4683 17.4689C39.9411 17.4689 41.135 18.6627 41.135 20.1355C41.1349 20.277 41.1911 20.4126 41.2912 20.5127C41.3912 20.6127 41.5269 20.6689 41.6684 20.6689C42.552 20.6689 43.2683 21.3853 43.2683 22.2689C43.2683 23.1525 42.552 23.8688 41.6684 23.8688H35.2685C34.3849 23.8688 33.6685 23.1525 33.6685 22.2689C33.6685 21.3852 34.3847 20.6689 35.2683 20.6689Z" fill="black"/>
</g>
<defs>
<clipPath id="clip0_3208_33897">
<rect width="32" height="32" fill="white" transform="translate(12.3359 12)"/>
</clipPath>
</defs>
</svg>
