<svg width="57" height="56" viewBox="0 0 57 56" fill="none" xmlns="http://www.w3.org/2000/svg">
<rect x="0.335938" width="56" height="56" rx="28" fill="#8BB8AA" fill-opacity="0.5"/>
<g clip-path="url(#clip0_3208_33816)">
<path d="M37.3583 21.5056C37.3466 21.5056 37.3354 21.5018 37.3231 21.5008C34.5387 21.1029 31.7118 21.1029 28.9274 21.5008C28.0183 21.6307 27.1188 21.8213 26.2351 22.0714C25.6783 22.2258 25.1328 22.4186 24.6026 22.6485V13.2016C24.6026 12.3179 23.8863 11.6016 23.0026 11.6016C18.7956 11.6081 15.3118 14.8707 15.0298 19.0682H13.9359C13.0523 19.0682 12.3359 19.7846 12.3359 20.6682V24.9349C12.3359 25.8186 13.0523 26.5349 13.9359 26.5349H15.0298C15.3118 30.7325 18.7956 33.9951 23.0026 34.0016C23.7802 33.9996 24.4437 33.4388 24.5754 32.6725C24.9569 33.1242 25.3739 33.5448 25.8223 33.9301L22.153 40.8608C21.8409 41.4502 21.867 42.1614 22.2214 42.7264C22.5758 43.2914 23.2047 43.6244 23.8712 43.6C24.5378 43.5756 25.1406 43.1974 25.4527 42.608L29.017 35.8757C29.8277 36.1962 30.6731 36.4206 31.5359 36.5445V40.9349C31.5359 41.8186 32.2523 42.5349 33.1359 42.5349C34.0196 42.5349 34.7359 41.8186 34.7359 40.9349V36.5445C35.5988 36.4205 36.4442 36.196 37.2549 35.8757L40.8191 42.608C41.1312 43.1974 41.7341 43.5756 42.4006 43.6C43.0672 43.6244 43.6961 43.2914 44.0505 42.7264C44.4049 42.1614 44.431 41.4502 44.1189 40.8608L40.4527 33.936C42.9259 31.8191 44.3454 28.7236 44.3359 25.4682C44.3359 23.4224 41.1893 22.0725 37.3583 21.5056ZM39.433 27.9344L38.001 22.6837C38.5343 22.7813 39.0351 22.897 39.5007 23.0197L41.3333 27.2816C40.7184 27.5497 40.0829 27.768 39.433 27.9344ZM35.745 28.5514L35.1541 22.3365C35.7445 22.376 36.3071 22.4341 36.8469 22.505L38.3935 28.176C37.5183 28.3501 36.6341 28.4754 35.745 28.5514ZM34.0783 22.2848L34.6826 28.625C34.1813 28.6506 33.6693 28.6682 33.1359 28.6682C32.6138 28.6682 32.0986 28.6533 31.5893 28.6272L32.201 22.2832C32.5118 22.2732 32.8234 22.2682 33.1359 22.2682C33.4559 22.2682 33.7685 22.2752 34.0783 22.2848ZM27.8789 28.1733L29.4191 22.5093C29.9722 22.4357 30.5429 22.3786 31.1258 22.3386L30.5274 28.5536C29.6382 28.476 28.754 28.349 27.8789 28.1733ZM26.5269 23.0954C27.065 22.9392 27.6501 22.8064 28.2639 22.6928L26.8394 27.9306C26.0676 27.7352 25.318 27.4607 24.6026 27.1114V23.8282C25.218 23.5205 25.8626 23.275 26.5269 23.0954ZM13.4026 24.9349V20.6682C13.4026 20.3737 13.6414 20.1349 13.9359 20.1349H15.0026V25.4682H13.9359C13.6414 25.4682 13.4026 25.2295 13.4026 24.9349ZM23.0026 32.9349C19.1753 32.9305 16.0737 29.8289 16.0693 26.0016V19.6016C16.0737 15.7742 19.1753 12.6726 23.0026 12.6682C23.2972 12.6682 23.5359 12.907 23.5359 13.2016V32.4016C23.5359 32.6961 23.2972 32.9349 23.0026 32.9349ZM24.5098 42.1082C24.2986 42.4931 23.8197 42.6403 23.4287 42.4405C23.0384 42.2338 22.8894 41.7499 23.0959 41.3594L27.3311 33.3594C27.4302 33.1719 27.5998 33.0316 27.8026 32.9696C27.8794 32.9464 27.9592 32.9347 28.0394 32.9349C28.3195 32.9354 28.579 33.0824 28.7234 33.3224C28.8679 33.5624 28.8763 33.8605 28.7455 34.1082L24.5098 42.1082ZM33.1359 41.4682C32.8414 41.4682 32.6026 41.2295 32.6026 40.9349V36.6554C32.7759 36.6634 32.9525 36.6682 33.1359 36.6682C33.3194 36.6682 33.4959 36.6634 33.6693 36.6554V40.9349C33.6693 41.2295 33.4305 41.4682 33.1359 41.4682ZM43.2335 41.9696C43.1717 42.1731 43.0306 42.3431 42.8421 42.4416C42.4512 42.6397 41.9736 42.4925 41.7621 42.1088L37.5263 34.1088C37.3954 33.861 37.4036 33.5627 37.5481 33.3225C37.6926 33.0823 37.9522 32.9353 38.2325 32.9349C38.3124 32.9352 38.3918 32.9472 38.4682 32.9706C38.6713 33.0329 38.8413 33.1733 38.9407 33.361L43.1759 41.361C43.2757 41.548 43.2964 41.7672 43.2335 41.9696ZM39.9407 32.969L39.8831 32.8624C39.4005 31.9513 38.2707 31.604 37.3597 32.0866C36.4486 32.5693 36.1013 33.699 36.5839 34.6101L36.7535 34.9301C34.4256 35.8289 31.8463 35.8289 29.5183 34.9301L29.6879 34.6101C30.004 34.0204 29.9803 33.3065 29.6257 32.7391C29.2712 32.1716 28.64 31.8374 27.9714 31.8629C27.3027 31.8885 26.6989 32.27 26.3887 32.8629L26.3354 32.9658C25.6692 32.3646 25.0864 31.6769 24.6026 30.921V28.2896C25.3953 28.6256 26.2163 28.8903 27.0559 29.0805C27.0633 29.0849 27.071 29.0889 27.0789 29.0922C27.0991 29.0965 27.1196 29.0992 27.1402 29.1002C28.3938 29.3828 29.6672 29.5685 30.9493 29.656H30.9557C30.9727 29.656 30.9903 29.6586 31.009 29.6586C31.7023 29.7072 32.4143 29.7333 33.1365 29.7333C33.8421 29.7333 34.553 29.7077 35.257 29.6576H35.2639C35.2818 29.6578 35.2996 29.6569 35.3173 29.6549C35.3226 29.6549 35.3263 29.6517 35.3317 29.6506C36.6087 29.5619 37.8774 29.3776 39.1269 29.0992C39.1509 29.0975 39.1747 29.0943 39.1983 29.0896C39.209 29.0864 39.2165 29.0789 39.2271 29.0752C40.5903 28.8049 41.8903 28.2802 43.0591 27.5285C42.6286 29.629 41.5356 31.5359 39.9407 32.969ZM42.2767 26.776L40.8479 23.4522C42.3802 24.041 43.2693 24.7717 43.2693 25.4682C43.2693 25.905 42.913 26.3552 42.2767 26.776Z" fill="black"/>
<path d="M17.6661 20.1338C17.9607 20.1338 18.1995 19.895 18.1995 19.6005C18.2052 17.3215 19.8078 15.3586 22.0395 14.897C22.3217 14.8323 22.5007 14.5542 22.4428 14.2705C22.3849 13.9868 22.1112 13.8011 21.8261 13.8522C19.0984 14.4159 17.1395 16.8151 17.1328 19.6005C17.1328 19.7419 17.189 19.8776 17.289 19.9776C17.389 20.0776 17.5247 20.1338 17.6661 20.1338Z" fill="black"/>
<path d="M29.0661 16.0528C28.6276 16.3342 28.3549 16.8126 28.3359 17.3333C28.3554 17.8537 28.6281 18.3317 29.0661 18.6133C29.3327 18.832 29.4026 18.9077 29.4026 19.0666C29.4026 19.3612 29.6414 19.6 29.9359 19.6C30.2305 19.6 30.4693 19.3612 30.4693 19.0666C30.4502 18.5461 30.1774 18.068 29.7391 17.7866C29.4725 17.5674 29.4026 17.4912 29.4026 17.3322C29.4026 17.1733 29.4703 17.0976 29.7391 16.8789C30.1773 16.5972 30.45 16.1189 30.4693 15.5984C30.4506 15.0776 30.1775 14.5992 29.7386 14.3184C29.4719 14.1002 29.4026 14.0245 29.4026 13.8666C29.4026 13.7088 29.4703 13.633 29.7391 13.4144C30.1777 13.1335 30.4505 12.6553 30.4693 12.1349C30.4693 11.8403 30.2305 11.6016 29.9359 11.6016C29.6414 11.6016 29.4026 11.8403 29.4026 12.1349C29.4026 12.2949 29.3349 12.3685 29.0666 12.5866C28.6277 12.8675 28.3546 13.3459 28.3359 13.8666C28.3545 14.3873 28.6274 14.8656 29.0661 15.1466C29.3327 15.3653 29.4026 15.441 29.4026 15.5989C29.4026 15.7568 29.3349 15.8341 29.0661 16.0528Z" fill="black"/>
<path d="M32.2692 16.0528C31.8308 16.3342 31.558 16.8126 31.5391 17.3333C31.5585 17.8537 31.8312 18.3317 32.2692 18.6133C32.5359 18.832 32.6057 18.9077 32.6057 19.0666C32.6057 19.3612 32.8445 19.6 33.1391 19.6C33.4336 19.6 33.6724 19.3612 33.6724 19.0666C33.6533 18.5461 33.3805 18.068 32.9423 17.7866C32.6756 17.5674 32.6057 17.4912 32.6057 17.3322C32.6057 17.1733 32.6735 17.0976 32.9423 16.8789C33.3804 16.5972 33.6531 16.1189 33.6724 15.5984C33.6537 15.0776 33.3806 14.5992 32.9417 14.3184C32.6751 14.1002 32.6057 14.0245 32.6057 13.8666C32.6057 13.7088 32.6735 13.633 32.9423 13.4144C33.3808 13.1335 33.6537 12.6553 33.6724 12.1349C33.6724 11.8403 33.4336 11.6016 33.1391 11.6016C32.8445 11.6016 32.6057 11.8403 32.6057 12.1349C32.6057 12.2949 32.538 12.3685 32.2697 12.5866C31.8308 12.8675 31.5577 13.3459 31.5391 13.8666C31.5576 14.3873 31.8305 14.8656 32.2692 15.1466C32.5359 15.3653 32.6057 15.441 32.6057 15.5989C32.6057 15.7568 32.538 15.8341 32.2692 16.0528Z" fill="black"/>
<path d="M35.4645 16.0528C35.0261 16.3342 34.7533 16.8126 34.7344 17.3333C34.7538 17.8537 35.0265 18.3317 35.4645 18.6133C35.7312 18.832 35.801 18.9077 35.801 19.0666C35.801 19.3612 36.0398 19.6 36.3344 19.6C36.6289 19.6 36.8677 19.3612 36.8677 19.0666C36.8486 18.5461 36.5759 18.068 36.1376 17.7866C35.8709 17.5674 35.801 17.4912 35.801 17.3322C35.801 17.1733 35.8688 17.0976 36.1376 16.8789C36.5757 16.5972 36.8484 16.1189 36.8677 15.5984C36.849 15.0776 36.5759 14.5992 36.137 14.3184C35.8704 14.1002 35.801 14.0245 35.801 13.8666C35.801 13.7088 35.8688 13.633 36.1376 13.4144C36.5761 13.1335 36.849 12.6553 36.8677 12.1349C36.8677 11.8403 36.6289 11.6016 36.3344 11.6016C36.0398 11.6016 35.801 11.8403 35.801 12.1349C35.801 12.2949 35.7333 12.3685 35.465 12.5866C35.0261 12.8675 34.7531 13.3459 34.7344 13.8666C34.7529 14.3873 35.0258 14.8656 35.4645 15.1466C35.7312 15.3653 35.801 15.441 35.801 15.5989C35.801 15.7568 35.7333 15.8341 35.4645 16.0528Z" fill="black"/>
</g>
<defs>
<clipPath id="clip0_3208_33816">
<rect width="32" height="32" fill="white" transform="translate(12.3359 12)"/>
</clipPath>
</defs>
</svg>
