<svg width="57" height="56" viewBox="0 0 57 56" fill="none" xmlns="http://www.w3.org/2000/svg">
<rect x="0.664062" width="56" height="56" rx="28" fill="#B3A7B5" fill-opacity="0.5"/>
<g clip-path="url(#clip0_3208_33810)">
<path d="M33.8207 16.8047H23.5132C20.6456 16.8185 17.9001 17.9673 15.8772 19.9999C13.8544 22.0325 12.7188 24.7834 12.7188 27.6511C12.7188 30.5187 13.8544 33.2697 15.8772 35.3023C17.9001 37.3349 20.6456 38.4837 23.5132 38.4974H33.8207C36.6883 38.4837 39.4338 37.3349 41.4566 35.3023C43.4795 33.2697 44.6151 30.5187 44.6151 27.6511C44.6151 24.7834 43.4795 22.0325 41.4566 19.9999C39.4338 17.9673 36.6883 16.8185 33.8207 16.8047ZM32.6044 17.6797V19.3047H31.3962V17.6797H32.6044ZM33.8207 25.1797C34.4718 25.1862 35.0941 25.4495 35.5522 25.9123C36.0103 26.375 36.2673 26.9999 36.2673 27.6511C36.2673 28.3022 36.0103 28.9271 35.5522 29.3899C35.0941 29.8526 34.4718 30.1159 33.8207 30.1224H23.5132C22.862 30.1159 22.2398 29.8526 21.7817 29.3899C21.3235 28.9271 21.0665 28.3022 21.0665 27.6511C21.0665 26.9999 21.3235 26.375 21.7817 25.9123C22.2398 25.4495 22.862 25.1862 23.5132 25.1797H33.8207ZM31.3957 24.3047V22.6797H32.6044V24.3047H31.3957ZM30.5207 24.3047H23.5132C22.6307 24.3123 21.7869 24.6682 21.1656 25.295C20.5442 25.9217 20.1956 26.7685 20.1956 27.6511C20.1956 28.5336 20.5442 29.3804 21.1656 30.0071C21.7869 30.6339 22.6307 30.9898 23.5132 30.9974H33.8207C34.7032 30.9898 35.5469 30.6339 36.1683 30.0071C36.7896 29.3804 37.1383 28.5336 37.1383 27.6511C37.1383 26.7685 36.7896 25.9217 36.1683 25.295C35.5469 24.6682 34.7032 24.3123 33.8207 24.3047H33.4794V22.6797H33.8207C35.1331 22.689 36.3885 23.2169 37.3132 24.1482C38.238 25.0795 38.7569 26.3386 38.7569 27.6511C38.7569 28.9635 38.238 30.2227 37.3132 31.154C36.3885 32.0853 35.1331 32.6131 33.8207 32.6224H23.5132C22.2008 32.6131 20.9453 32.0853 20.0206 31.154C19.0959 30.2227 18.5769 28.9635 18.5769 27.6511C18.5769 26.3386 19.0959 25.0795 20.0206 24.1482C20.9453 23.2169 22.2008 22.689 23.5132 22.6797H30.5212L30.5207 24.3047ZM23.5129 21.8047C21.969 21.8148 20.4917 22.4352 19.4036 23.5305C18.3154 24.6258 17.7047 26.1071 17.7047 27.6511C17.7047 29.195 18.3154 30.6763 19.4036 31.7716C20.4917 32.8669 21.969 33.4873 23.5129 33.4974H33.8207C35.3646 33.4873 36.8419 32.8669 37.93 31.7716C39.0182 30.6763 39.629 29.195 39.629 27.6511C39.629 26.1071 39.0182 24.6258 37.93 23.5305C36.8419 22.4352 35.3646 21.8148 33.8207 21.8047H33.4794V20.1797H33.8207C35.7947 20.1911 37.684 20.9833 39.0759 22.3832C40.4677 23.7831 41.249 25.677 41.249 27.6511C41.249 29.6251 40.4677 31.519 39.0759 32.9189C37.684 34.3188 35.7947 35.111 33.8207 35.1224H23.5132C21.5391 35.111 19.6498 34.3188 18.258 32.9189C16.8661 31.519 16.0849 29.6251 16.0849 27.6511C16.0849 25.677 16.8661 23.7831 18.258 22.3832C19.6498 20.9833 21.5391 20.1911 23.5132 20.1797H30.5212V21.8047H23.5129ZM32.6042 21.8047H31.3962V20.1797H32.6044L32.6042 21.8047ZM33.8204 37.6224H23.5132C20.8773 37.6092 18.3538 36.5529 16.4946 34.6843C14.6353 32.8157 13.5916 30.287 13.5916 27.6511C13.5916 25.0151 14.6353 22.4864 16.4946 20.6178C18.3538 18.7493 20.8773 17.6929 23.5132 17.6797H30.5212V19.3047H23.5132C21.3075 19.3168 19.1963 20.2014 17.6409 21.7654C16.0855 23.3293 15.2124 25.4453 15.2124 27.6511C15.2124 29.8568 16.0855 31.9728 17.6409 33.5368C19.1963 35.1007 21.3075 35.9854 23.5132 35.9974H33.8207C36.0264 35.9854 38.1376 35.1007 39.693 33.5368C41.2484 31.9728 42.1215 29.8568 42.1215 27.6511C42.1215 25.4453 41.2484 23.3293 39.693 21.7654C38.1376 20.2014 36.0264 19.3168 33.8207 19.3047H33.4794V17.6797H33.8207C36.4566 17.6929 38.9801 18.7493 40.8393 20.6178C42.6985 22.4864 43.7423 25.0151 43.7423 27.6511C43.7423 30.287 42.6985 32.8157 40.8393 34.6843C38.9801 36.5529 36.4564 37.6092 33.8204 37.6224Z" fill="#2B2A28"/>
</g>
<defs>
<clipPath id="clip0_3208_33810">
<rect width="32" height="32" fill="white" transform="translate(12.6641 12)"/>
</clipPath>
</defs>
</svg>
