<svg width="56" height="56" viewBox="0 0 56 56" fill="none" xmlns="http://www.w3.org/2000/svg">
<rect width="56" height="56" rx="28" fill="#5872A7" fill-opacity="0.25"/>
<g clip-path="url(#clip0_3208_33829)">
<path d="M43.2159 39.9016H39.9986C39.6388 39.9016 39.3449 39.8236 39.0742 39.6564C38.0988 39.0527 37.3217 37.1194 36.8574 35.9642C36.8053 35.8346 36.7531 35.7051 36.7003 35.5757C35.9364 33.7023 34.9857 31.3708 33.097 30.1672C32.2514 29.6268 31.2902 29.3529 30.2402 29.3529H28.9763V24.0148C29.4254 24.0136 29.8471 23.8386 30.1636 23.5221C30.4818 23.2052 30.6572 22.7823 30.6576 22.3313C30.6581 21.8794 30.4829 21.4551 30.1637 21.1359L26.67 17.6545C26.4866 17.4717 26.1898 17.4722 26.0071 17.6557C25.8244 17.8391 25.8249 18.1359 26.0083 18.3186L29.5014 21.7994C29.6427 21.9407 29.7204 22.1292 29.7202 22.3304C29.72 22.5306 29.6425 22.718 29.5014 22.8586C29.2094 23.1506 28.7343 23.1506 28.4422 22.8586L21.6603 16.0782C21.4772 15.8952 21.1804 15.8952 20.9974 16.0782L14.2154 22.8586C14.0743 22.9998 13.8861 23.0774 13.6853 23.0774C13.685 23.0774 13.6848 23.0774 13.6845 23.0774C13.4843 23.0772 13.2969 22.9998 13.1557 22.858C13.0151 22.718 12.9377 22.5306 12.9375 22.3304C12.9373 22.1292 13.015 21.9407 13.1563 21.7994L20.7999 14.1556C20.9399 14.0151 21.1273 13.9376 21.3274 13.9374H21.3282C21.529 13.9374 21.7173 14.0151 21.8584 14.1562L24.5655 16.8634C24.7485 17.0465 25.0453 17.0465 25.2284 16.8634C25.4114 16.6804 25.4114 16.3836 25.2284 16.2006L22.5213 13.4934C22.2031 13.1752 21.7794 13 21.3282 13C21.3276 13 21.3271 13 21.3266 13C20.8756 13.0004 20.4527 13.1758 20.1364 13.4934L12.4934 21.1365C12.1748 21.4551 11.9996 21.8794 12 22.3313C12.0004 22.7822 12.1759 23.2051 12.4928 23.5209C12.8092 23.8385 13.2312 24.0138 13.6813 24.0148V32.2718V42.3517H12.4688C12.2099 42.3517 12 42.5616 12 42.8205C12 43.0794 12.2099 43.2892 12.4688 43.2892H43.2354C43.657 43.2892 44 42.947 44 42.5264V40.6856C44 40.2533 43.6483 39.9016 43.2159 39.9016ZM15.7524 42.3518H14.6188V32.7406H15.7524V42.3518ZM18.9751 42.3518H16.6899V32.7406H18.5119H18.9751V42.3518ZM22.7451 42.3518H19.9126V40.855H22.7451V42.3518ZM22.7451 39.9175H19.9126V38.1514H22.7451V39.9175ZM22.7451 37.2139H19.9126V35.446H22.7451V37.2139ZM22.7451 34.5085H19.9126V32.7406H22.7451V34.5085ZM23.677 31.8031H18.9806V29.4796C18.9806 28.1848 20.034 27.1314 21.3288 27.1314C22.6236 27.1314 23.677 28.1848 23.677 29.4796V31.8031ZM25.966 42.3518H23.6826V32.7406H24.1458H25.966V42.3518ZM24.6145 31.8031V29.4796C24.6145 27.6679 23.1406 26.1939 21.3288 26.1939C19.5171 26.1939 18.0431 27.6678 18.0431 29.4796V31.8031H16.2211H14.6188V23.7343C14.7112 23.6728 14.7981 23.6017 14.8783 23.5215L21.3288 17.0726L27.7793 23.5215C27.8595 23.6017 27.9464 23.6728 28.0388 23.7344V31.8031H26.4348H24.6145ZM28.9763 42.3518V39.2488C28.9763 38.9899 28.7664 38.7801 28.5076 38.7801C28.2487 38.7801 28.0388 38.9899 28.0388 39.2488V42.3518H26.9035V32.7406H28.0388V37.0856C28.0388 37.3444 28.2487 37.5543 28.5076 37.5543C28.7664 37.5543 28.9763 37.3444 28.9763 37.0856V32.7406H30.2402C30.6431 32.7406 30.9718 32.8304 31.2745 33.0232C32.2669 33.6558 33.0059 35.4799 33.4948 36.687C33.5553 36.8362 33.6159 36.9853 33.6766 37.1345C34.4025 38.9231 35.2971 41.1272 37.0128 42.3518H28.9763ZM43.0625 42.3518H39.9986C39.1864 42.3518 38.4414 42.1459 37.7846 41.7399C36.1456 40.7249 35.2954 38.6301 34.5452 36.7819C34.4848 36.6329 34.4241 36.484 34.3638 36.335C33.83 35.0174 33.0234 33.0262 31.7782 32.2325C31.3244 31.9435 30.8214 31.803 30.2402 31.803H28.9763V30.2902H30.2402C31.1085 30.2902 31.8998 30.5146 32.5927 30.9574C34.2303 32.001 35.0814 34.0881 35.8323 35.9296C35.8844 36.0575 35.9361 36.1856 35.9876 36.3138C36.5276 37.6574 37.3437 39.6878 38.5811 40.4537C39.0009 40.7129 39.4646 40.839 39.9986 40.839H43.0625V42.3518Z" fill="#2B2A28"/>
<path d="M33.4946 21.297H40.3598C42.3659 21.297 43.9981 19.6656 43.9981 17.6604C43.9981 15.6542 42.3659 14.0221 40.3598 14.0221C40.336 14.0221 40.3121 14.0223 40.2881 14.0228C39.5548 12.7297 38.1659 11.9102 36.6641 11.9102C34.3669 11.9102 32.4979 13.7784 32.4979 16.0747C32.4979 16.1597 32.5006 16.2453 32.5058 16.3308C31.5511 16.7234 30.9141 17.6528 30.9141 18.7163C30.9141 20.1393 32.0717 21.297 33.4946 21.297ZM33.1192 17.1158C33.3584 17.06 33.5139 16.8291 33.4757 16.5865C33.449 16.4164 33.4354 16.2442 33.4354 16.0747C33.4354 14.2953 34.8837 12.8477 36.6641 12.8477C37.9123 12.8477 39.0599 13.5782 39.5877 14.7086C39.6726 14.8902 39.8635 14.9977 40.0626 14.9763C40.1678 14.965 40.2649 14.9595 40.3597 14.9595C41.8489 14.9595 43.0605 16.1711 43.0605 17.6603C43.0605 19.1486 41.8489 20.3594 40.3597 20.3594H33.4946C32.5886 20.3594 31.8516 19.6223 31.8516 18.7163C31.8516 17.9482 32.3729 17.2901 33.1192 17.1158Z" fill="#2B2A28"/>
<path d="M21.3267 20.6289C20.1773 20.6289 19.2422 21.564 19.2422 22.7135C19.2422 23.8629 20.1773 24.798 21.3267 24.798C22.4761 24.798 23.4112 23.8629 23.4112 22.7135C23.4112 21.564 22.4761 20.6289 21.3267 20.6289ZM21.3267 23.8605C20.6943 23.8605 20.1797 23.346 20.1797 22.7135C20.1797 22.081 20.6943 21.5664 21.3267 21.5664C21.9591 21.5664 22.4737 22.081 22.4737 22.7135C22.4737 23.346 21.9591 23.8605 21.3267 23.8605Z" fill="#2B2A28"/>
</g>
<defs>
<clipPath id="clip0_3208_33829">
<rect width="32" height="32" fill="white" transform="translate(12 12)"/>
</clipPath>
</defs>
</svg>
