<svg width="56" height="56" viewBox="0 0 56 56" fill="none" xmlns="http://www.w3.org/2000/svg">
<rect width="56" height="56" rx="28" fill="#DCCCC0"/>
<g clip-path="url(#clip0_4146_99602)">
<path d="M28 11.5996C19.1776 11.5996 12 18.7772 12 27.5996C12 36.422 19.1776 43.5996 28 43.5996C36.8224 43.5996 44 36.422 44 27.5996C44 18.7772 36.8224 11.5996 28 11.5996ZM28 42.5329C19.7659 42.5329 13.0667 35.8337 13.0667 27.5996C13.0667 19.3655 19.7659 12.6663 28 12.6663C36.2341 12.6663 42.9333 19.3655 42.9333 27.5996C42.9333 35.8337 36.2341 42.5329 28 42.5329Z" fill="black"/>
<path d="M42.8314 32.4106C40.3803 30.8773 38.6682 26.2677 38.6682 21.201C38.6682 19.5706 38.8362 17.9898 39.168 16.5029C39.232 16.2154 39.0507 15.93 38.7632 15.866C38.4746 15.8031 38.1904 15.9834 38.1264 16.2709C37.7781 17.834 37.6016 19.4927 37.6016 21.201C37.6016 26.7018 39.4762 31.57 42.2661 33.3146C42.3541 33.3695 42.4517 33.3957 42.5482 33.3957C42.7259 33.3957 42.8997 33.3071 43.0011 33.1455C43.1567 32.8959 43.081 32.5663 42.8314 32.4106Z" fill="black"/>
<path d="M24.0278 12.2122C23.9184 12.169 23.7984 12.1615 23.6848 12.1935C16.8053 14.1168 12 20.4522 12 27.6C12 36.4223 19.1776 43.6 28 43.6C30.6314 43.6 33.2427 42.9456 35.5514 41.7072C35.6917 41.632 35.7909 41.4975 35.8224 41.3418L35.9936 40.4837L36.0047 40.4138C36.2645 38.7818 36.5333 37.0949 36.5333 35.3333C36.5333 24.5141 31.5077 15.2223 24.0278 12.2122ZM34.9515 40.2458L34.8262 40.8837C32.727 41.9637 30.3723 42.5333 28.0001 42.5333C19.7659 42.5333 13.0667 35.8341 13.0667 27.6C13.0667 20.9893 17.4699 15.1232 23.7974 13.2703C30.7846 16.192 35.4667 25.0272 35.4667 35.3333C35.4667 37.0107 35.2048 38.6555 34.9515 40.2458Z" fill="black"/>
<path d="M24.4406 39.3611C23.4374 39.0187 22.4299 38.5147 21.3596 37.8187C21.1121 37.6582 20.7819 37.728 20.6214 37.975C20.4609 38.2219 20.5308 38.552 20.7777 38.7126C21.9233 39.4572 23.0086 39.9995 24.0966 40.3702C24.1537 40.3894 24.2118 40.399 24.2689 40.399C24.4908 40.399 24.6982 40.2593 24.7734 40.0385C24.8684 39.7595 24.7196 39.456 24.4406 39.3611Z" fill="black"/>
<path d="M18.8151 35.7996C18.6903 35.6444 18.5538 35.4812 18.4125 35.3132C17.9975 34.8188 17.5266 34.2588 17.2754 33.7596C17.1426 33.4967 16.8221 33.39 16.5591 33.5233C16.2962 33.6562 16.1901 33.9766 16.3229 34.2396C16.6301 34.8497 17.1431 35.4604 17.596 35.9996C17.732 36.1612 17.8637 36.318 17.9831 36.4668C18.0888 36.5985 18.2434 36.6668 18.3997 36.6668C18.5165 36.6668 18.6344 36.6284 18.733 36.5495C18.9629 36.3649 18.9997 36.0294 18.8151 35.7996Z" fill="black"/>
<path d="M42.9356 23.0207C27.3223 22.8965 18.1137 28.1295 13.1356 32.5599C12.9159 32.7557 12.8962 33.0927 13.0919 33.313C13.1969 33.4313 13.3436 33.4917 13.4902 33.4917C13.6161 33.4917 13.743 33.4469 13.8444 33.3567C18.6822 29.0511 27.662 23.961 42.9254 24.0874C42.9275 24.0874 42.9292 24.0874 42.9307 24.0874C43.223 24.0874 43.4614 23.8517 43.464 23.5589C43.4669 23.2645 43.23 23.0234 42.9356 23.0207Z" fill="black"/>
<path d="M16.853 16.934C16.6903 16.934 16.5287 16.927 16.3671 16.919C16.0711 16.9137 15.8231 17.1324 15.8092 17.4268C15.7949 17.7207 16.0221 17.9708 16.3164 17.9847C16.4946 17.9932 16.6732 18.0007 16.853 18.0007C23.9111 18.0007 29.653 24.8194 29.653 33.2007C29.653 36.9329 28.7469 40.2364 27.0327 42.7537C26.8669 42.9975 26.9298 43.3292 27.1736 43.495C27.2653 43.5574 27.3698 43.5873 27.4733 43.5873C27.644 43.5873 27.8114 43.5057 27.9149 43.3542C29.7496 40.6588 30.7197 37.1479 30.7197 33.2006C30.7197 24.231 24.4989 16.934 16.853 16.934Z" fill="black"/>
</g>
<defs>
<clipPath id="clip0_4146_99602">
<rect width="32" height="32" fill="white" transform="translate(12 12)"/>
</clipPath>
</defs>
</svg>
