<svg width="56" height="56" viewBox="0 0 56 56" fill="none" xmlns="http://www.w3.org/2000/svg">
<rect width="56" height="56" rx="28" fill="#E4E4DC"/>
<g clip-path="url(#clip0_4146_99655)">
<path d="M42.3498 29.9504C43.1706 28.54 43.7172 26.9516 43.9165 25.2583C43.9172 25.2529 43.9177 25.2475 43.9184 25.2422C43.9726 24.7759 44.0014 24.3017 44.0014 23.821C44.0014 20.6467 42.7846 17.7515 40.7934 15.5764C40.7617 15.532 40.7243 15.4914 40.6818 15.4565C39.3884 14.0808 37.781 13.0034 35.9746 12.3413C35.9421 12.3267 35.9084 12.3145 35.874 12.3057C34.5935 11.8491 33.2155 11.5996 31.78 11.5996C30.1789 11.5996 28.6489 11.9097 27.2463 12.4719C27.2082 12.4834 27.1716 12.4985 27.1362 12.5171C25.4116 13.228 23.8843 14.3227 22.6606 15.6941C22.6206 15.7295 22.5849 15.7693 22.5549 15.8132C20.6894 17.9597 19.5586 20.7607 19.5586 23.821C19.5586 24.2798 19.585 24.7326 19.6345 25.1784C19.635 25.1841 19.6357 25.1894 19.6365 25.1948C19.7273 26.0039 19.8975 26.789 20.1389 27.5427L13.5737 34.1079C13.3296 34.352 13.3296 34.7478 13.5737 34.9919C13.6958 35.114 13.8557 35.175 14.0156 35.175C14.1755 35.175 14.3354 35.114 14.4575 34.9919L20.6289 28.8208C20.8008 29.2024 20.9917 29.5739 21.2004 29.9336C21.2195 29.9765 21.2436 30.0168 21.2717 30.0542C22.821 32.656 25.3083 34.6364 28.2639 35.5261L23.8611 39.9287C23.6172 40.1728 23.6172 40.5686 23.8611 40.8127C23.9831 40.9348 24.1433 40.9958 24.3032 40.9958C24.4631 40.9958 24.623 40.9348 24.7451 40.8127L29.6941 35.8635C30.3723 35.9807 31.0691 36.0424 31.78 36.0424C36.2319 36.0424 40.135 33.6491 42.2717 30.082C42.3029 30.0415 42.3293 29.9975 42.3498 29.9504ZM36.9421 29.9751L34.7185 26.5532L35.9008 22.9143L38.7111 22.2832L39.4423 22.1191L42.6374 25.4001C42.4433 26.7409 42.0058 28.0041 41.3711 29.1433L36.9421 29.9751ZM28.8418 26.5532L26.6191 29.9734L22.1765 29.1208C21.54 27.9721 21.104 26.6977 20.915 25.3452L24.1142 22.1181L27.6594 22.9143L28.4472 25.3393L28.8418 26.5532ZM22.6828 17.6943L23.2466 21.218L20.8105 23.6753C20.8396 21.4636 21.5254 19.4075 22.6828 17.6943ZM29.9824 26.0188L28.8784 22.6211L31.7685 20.5215L34.6587 22.6213L33.5547 26.0188H29.9824ZM42.7502 23.7243L40.3015 21.2097L40.7343 17.488C41.9868 19.2539 42.7299 21.4043 42.7502 23.7243ZM39.6301 16.1645L39.0769 20.9202L37.7321 21.2219L35.5551 21.7107L32.4165 19.4304V16.0469L35.8086 13.6157C37.259 14.1904 38.5581 15.0659 39.6301 16.1645ZM34.3176 13.1465L31.7536 14.9841L28.8952 13.2353C29.8149 12.9844 30.782 12.8496 31.78 12.8496C32.6533 12.8496 33.5029 12.9526 34.3176 13.1465ZM27.3784 13.7725L31.1435 16.0762V19.4304L28.9297 21.0388L28.0051 21.7107L24.4641 20.9158L23.7366 16.3682C24.7534 15.2715 25.9909 14.3826 27.3784 13.7725ZM23.1431 30.5791L26.5154 31.2265L28.2329 34.2036C26.2038 33.5085 24.4411 32.2343 23.1431 30.5791ZM29.9248 34.6347L27.6467 30.686L29.8674 27.2688H33.6926L35.9133 30.686L33.6357 34.6345C33.0322 34.7378 32.4123 34.7922 31.78 34.7922C31.1477 34.7924 30.5281 34.738 29.9248 34.6347ZM35.3274 34.2036L37.0439 31.2278L40.4033 30.5967C39.1067 32.2434 37.3493 33.511 35.3274 34.2036Z" fill="#2B2A28"/>
<path d="M20.6077 34.1077L12.1831 42.5325C11.939 42.7767 11.939 43.1724 12.1831 43.4166C12.3052 43.5384 12.4651 43.5994 12.625 43.5994C12.7849 43.5994 12.9448 43.5384 13.0669 43.4163L21.4917 34.9918C21.7356 34.7476 21.7356 34.3519 21.4917 34.1077C21.2475 33.8638 20.8518 33.8638 20.6077 34.1077Z" fill="#2B2A28"/>
<path d="M22.3828 41.6621C22.2185 41.6621 22.0574 41.729 21.9412 41.8452C21.825 41.9614 21.7578 42.1226 21.7578 42.2876C21.7578 42.4519 21.8247 42.6125 21.9412 42.729C22.0574 42.8459 22.2185 42.9126 22.3828 42.9126C22.5474 42.9126 22.7085 42.8459 22.8247 42.729C22.9409 42.6128 23.0078 42.4519 23.0078 42.2876C23.0078 42.1226 22.9412 41.9614 22.8247 41.8452C22.7085 41.729 22.5474 41.6621 22.3828 41.6621Z" fill="#2B2A28"/>
</g>
<defs>
<clipPath id="clip0_4146_99655">
<rect width="32" height="32" fill="white" transform="translate(12 12)"/>
</clipPath>
</defs>
</svg>
