<svg width="56" height="56" viewBox="0 0 56 56" fill="none" xmlns="http://www.w3.org/2000/svg">
<rect width="56" height="56" rx="28" fill="#DCCCC0" fill-opacity="0.5"/>
<path d="M41.9346 32.9258C41.6755 32.9258 41.4658 33.1357 41.4658 33.3945V40.8677H31.8037V31.9963C31.8037 31.3931 31.313 30.9023 30.71 30.9023H25.2949C24.6919 30.9023 24.2012 31.3933 24.2012 31.9963V40.8677H14.5391V33.3945C14.5391 33.1357 14.3293 32.9258 14.0703 32.9258C13.8113 32.9258 13.6016 33.1357 13.6016 33.3945V41.0864C13.6016 41.4827 13.9241 41.8052 14.3203 41.8052H41.6846C42.0808 41.8052 42.4033 41.4827 42.4033 41.0864V33.3945C42.4033 33.1357 42.1936 32.9258 41.9346 32.9258ZM25.1387 40.8677V31.9963C25.1387 31.9102 25.2087 31.8398 25.2949 31.8398H30.71C30.7961 31.8398 30.8662 31.9102 30.8662 31.9963V40.8677H25.1387Z" fill="#2B2A28"/>
<path d="M39.7053 39.0134C40.2556 39.0134 40.7034 38.5657 40.7034 38.0154V32.9001C40.7034 32.3499 40.2556 31.9023 39.7053 31.9023H33.9043C33.354 31.9023 32.9062 32.3499 32.9062 32.9001V38.0154C32.9062 38.5657 33.354 39.0134 33.9043 39.0134H39.7053ZM33.8438 38.0154V32.9001C33.8438 32.8669 33.8708 32.8398 33.9043 32.8398H39.7053C39.7388 32.8398 39.7659 32.8669 39.7659 32.9001V38.0154C39.7659 38.0488 39.7388 38.0759 39.7053 38.0759H33.9043C33.8708 38.0759 33.8438 38.0488 33.8438 38.0154Z" fill="#2B2A28"/>
<path d="M22.0959 39.0134C22.6462 39.0134 23.094 38.5657 23.094 38.0154V32.9001C23.094 32.3499 22.6462 31.9023 22.0959 31.9023H16.2949C15.7446 31.9023 15.2969 32.3499 15.2969 32.9001V38.0154C15.2969 38.5657 15.7446 39.0134 16.2949 39.0134H22.0959ZM16.2344 38.0154V32.9001C16.2344 32.8669 16.2615 32.8398 16.2949 32.8398H22.0959C22.1294 32.8398 22.1565 32.8669 22.1565 32.9001V38.0154C22.1565 38.0488 22.1294 38.0759 22.0959 38.0759H16.2949C16.2615 38.0759 16.2344 38.0488 16.2344 38.0154Z" fill="#2B2A28"/>
<path d="M42.6226 20.3247C42.6226 19.824 43.03 19.4167 43.5312 19.4167C43.7903 19.4167 44 19.2068 44 18.948V17.801C44 17.5422 43.7903 17.3323 43.5312 17.3323H35.7932C35.5342 17.3323 35.3245 17.5422 35.3245 17.801C35.3245 18.0601 35.5342 18.2698 35.7932 18.2698H43.0625V18.5396C42.4207 18.708 41.9141 19.2144 41.7454 19.856H34.3711V15.6948C34.3711 14.4373 33.3479 13.4141 32.0903 13.4141H23.9099C22.6521 13.4141 21.6292 14.4373 21.6292 15.6948V17.3323H12.4688C12.2097 17.3323 12 17.5422 12 17.801V18.948C12 19.2068 12.2097 19.4167 12.4688 19.4167C12.97 19.4167 13.3774 19.824 13.3774 20.3247C13.3774 20.4939 13.467 20.6421 13.6013 20.7246V23.9263H12.7578C12.3613 23.9263 12.0388 24.2488 12.0388 24.645V27.1975C12.0388 27.5938 12.3613 27.9163 12.7578 27.9163H13.6013V31.5234C13.6013 31.7822 13.811 31.9922 14.0701 31.9922C14.3291 31.9922 14.5388 31.7822 14.5388 31.5234V27.9163H41.5V31.5242C41.5 31.783 41.7097 31.9929 41.9688 31.9929C42.2275 31.9929 42.4375 31.783 42.4375 31.5242V27.9163H43.281C43.6775 27.9163 44 27.5938 44 27.1975V24.645C44 24.2488 43.6775 23.9263 43.281 23.9263H42.4375V20.698C42.5498 20.6123 42.6226 20.4771 42.6226 20.3247ZM22.5664 15.6948C22.5664 14.9541 23.1692 14.3516 23.9097 14.3516H32.0901C32.8308 14.3516 33.4333 14.9541 33.4333 15.6948V20.8093C33.4333 21.55 32.8308 22.1526 32.0901 22.1526H23.9099C23.1692 22.1526 22.5667 21.55 22.5667 20.8093V15.6948H22.5664ZM43.0625 26.9788H12.9763V24.8638H43.0625V26.9788ZM14.5388 23.9263V20.7935H20.2231C20.4822 20.7935 20.6919 20.5837 20.6919 20.3247C20.6919 20.0659 20.4822 19.856 20.2231 19.856H14.2546C14.0859 19.2144 13.5793 18.708 12.9375 18.5396V18.2698H21.6289V20.8096C21.6289 22.0671 22.6521 23.0903 23.9097 23.0903H32.0901C33.3479 23.0903 34.3708 22.0671 34.3708 20.8096V20.7937H41.4998V23.9263H14.5388Z" fill="#2B2A28"/>
<path d="M26.1875 35.8828H25.8125C25.5535 35.8828 25.3438 36.0928 25.3438 36.3516C25.3438 36.6104 25.5535 36.8203 25.8125 36.8203H26.1875C26.4465 36.8203 26.6562 36.6104 26.6562 36.3516C26.6562 36.0928 26.4465 35.8828 26.1875 35.8828Z" fill="#2B2A28"/>
<path d="M24.6404 16.2188H25.2148L25.8042 19.0361C25.9185 19.582 26.4062 19.9785 26.9641 19.9785H29.7476C30.2375 19.9785 30.6831 19.6704 30.8562 19.2122L31.7754 16.7788C31.8628 16.5471 31.8311 16.2874 31.6904 16.084C31.5498 15.8804 31.3179 15.7588 31.0706 15.7588H27.1338C26.875 15.7588 26.665 15.9685 26.665 16.2275C26.665 16.4863 26.875 16.6963 27.1338 16.6963H30.8044L29.9792 18.8809C29.9431 18.9766 29.8501 19.041 29.7478 19.041H26.9641C26.8477 19.041 26.7458 18.958 26.7219 18.8442L26.1301 16.0159C26.041 15.5901 25.6609 15.2812 25.2258 15.2812H24.6406C24.3816 15.2812 24.1719 15.491 24.1719 15.75C24.1719 16.0088 24.3816 16.2188 24.6404 16.2188Z" fill="#2B2A28"/>
<path d="M27.0469 20.375H26.9219C26.6628 20.375 26.4531 20.5847 26.4531 20.8438C26.4531 21.1025 26.6628 21.3125 26.9219 21.3125H27.0469C27.3059 21.3125 27.5156 21.1025 27.5156 20.8438C27.5156 20.5847 27.3059 20.375 27.0469 20.375Z" fill="#2B2A28"/>
<path d="M29.0781 20.375H28.9531C28.6941 20.375 28.4844 20.5847 28.4844 20.8438C28.4844 21.1025 28.6941 21.3125 28.9531 21.3125H29.0781C29.3372 21.3125 29.5469 21.1025 29.5469 20.8438C29.5469 20.5847 29.3372 20.375 29.0781 20.375Z" fill="#2B2A28"/>
</svg>
