<svg width="57" height="56" viewBox="0 0 57 56" fill="none" xmlns="http://www.w3.org/2000/svg">
<rect x="0.664062" width="56" height="56" rx="28" fill="#805B52" fill-opacity="0.2"/>
<g clip-path="url(#clip0_3208_33873)">
<path d="M28.6641 11.6016C25.4996 11.6016 22.4061 12.5399 19.7749 14.298C17.1438 16.0562 15.093 18.555 13.882 21.4786C12.671 24.4022 12.3541 27.6193 12.9715 30.723C13.5889 33.8267 15.1127 36.6776 17.3504 38.9153C19.588 41.1529 22.4389 42.6768 25.5426 43.2941C28.6463 43.9115 31.8634 43.5946 34.787 42.3836C37.7106 41.1726 40.2095 39.1219 41.9676 36.4907C43.7257 33.8595 44.6641 30.7661 44.6641 27.6016C44.6593 23.3596 42.972 19.2927 39.9725 16.2932C36.9729 13.2936 32.9061 11.6064 28.6641 11.6016ZM17.0406 36.9626C14.7278 34.0962 13.5568 30.4758 13.7528 26.7979C13.9487 23.1201 15.4979 19.6446 18.1022 17.0402C20.7065 14.4359 24.182 12.8866 27.8598 12.6905C31.5377 12.4944 35.1582 13.6654 38.0246 15.9781L17.0406 36.9626ZM17.7414 37.7701L38.8326 16.6789C39.0929 16.921 39.3442 17.1724 39.5867 17.433L18.4955 38.5242C18.2346 38.2825 17.9832 38.0311 17.7414 37.7701ZM43.5974 27.6016C43.5994 30.4188 42.8039 33.1791 41.3029 35.5631C39.8018 37.9472 37.6566 39.8577 35.1152 41.0736C32.5738 42.2894 29.7402 42.7611 26.942 42.434C24.1438 42.1069 21.4954 40.9943 19.303 39.225L40.2875 18.2405C42.4313 20.8892 43.5999 24.194 43.5974 27.6016Z" fill="black"/>
<path d="M26.4032 24.5819L25.6486 25.336C25.5485 25.436 25.4922 25.5717 25.4922 25.7132C25.4921 25.8546 25.5483 25.9903 25.6483 26.0904C25.7483 26.1905 25.884 26.2467 26.0254 26.2468C26.1669 26.2468 26.3026 26.1907 26.4027 26.0907L27.1574 25.3366C27.2069 25.287 27.2462 25.2282 27.2731 25.1635C27.2999 25.0988 27.3137 25.0295 27.3137 24.9594C27.3138 24.8894 27.3 24.82 27.2732 24.7553C27.2464 24.6905 27.2071 24.6317 27.1576 24.5822C27.1081 24.5326 27.0493 24.4933 26.9846 24.4665C26.9199 24.4396 26.8505 24.4258 26.7805 24.4258C26.7104 24.4258 26.6411 24.4395 26.5763 24.4663C26.5116 24.4931 26.4528 24.5324 26.4032 24.5819Z" fill="black"/>
<path d="M28.6683 22.3202L27.9142 23.0743C27.8646 23.1238 27.8253 23.1826 27.7985 23.2473C27.7717 23.312 27.7578 23.3814 27.7578 23.4514C27.7578 23.5215 27.7716 23.5909 27.7983 23.6556C27.8251 23.7203 27.8644 23.7792 27.9139 23.8287C27.9634 23.8783 28.0222 23.9176 28.0869 23.9444C28.1517 23.9712 28.221 23.9851 28.2911 23.9851C28.3611 23.9851 28.4305 23.9713 28.4952 23.9445C28.5599 23.9178 28.6188 23.8785 28.6683 23.829L29.4225 23.0748C29.5225 22.9748 29.5788 22.8392 29.5788 22.6977C29.5789 22.5562 29.5227 22.4205 29.4227 22.3204C29.3227 22.2204 29.1871 22.1641 29.0456 22.1641C28.9041 22.164 28.7684 22.2202 28.6683 22.3202Z" fill="black"/>
<path d="M30.9269 20.0585L30.1722 20.8126C30.072 20.9126 30.0157 21.0483 30.0156 21.1898C30.0155 21.3313 30.0717 21.4671 30.1717 21.5673C30.2717 21.6674 30.4074 21.7237 30.5489 21.7238C30.6904 21.7239 30.8262 21.6678 30.9263 21.5678L31.681 20.8131C31.7811 20.7131 31.8373 20.5775 31.8374 20.436C31.8374 20.2945 31.7813 20.1588 31.6813 20.0587C31.5813 19.9586 31.4456 19.9024 31.3041 19.9023C31.1626 19.9023 31.0269 19.9584 30.9269 20.0585Z" fill="black"/>
<path d="M33.1904 17.7956L32.4363 18.5498C32.3853 18.599 32.3447 18.6578 32.3167 18.7229C32.2888 18.788 32.2741 18.8579 32.2735 18.9288C32.2728 18.9996 32.2863 19.0698 32.3132 19.1353C32.34 19.2009 32.3796 19.2604 32.4296 19.3105C32.4797 19.3606 32.5393 19.4002 32.6048 19.427C32.6704 19.4538 32.7406 19.4673 32.8114 19.4667C32.8822 19.4661 32.9522 19.4514 33.0173 19.4234C33.0823 19.3955 33.1412 19.3548 33.1904 19.3039L33.9451 18.5498C33.996 18.5006 34.0366 18.4417 34.0646 18.3766C34.0925 18.3116 34.1072 18.2416 34.1079 18.1708C34.1085 18.1 34.095 18.0297 34.0682 17.9642C34.0413 17.8986 34.0017 17.8391 33.9517 17.789C33.9016 17.7389 33.842 17.6993 33.7765 17.6725C33.711 17.6457 33.6407 17.6322 33.5699 17.6328C33.4991 17.6334 33.4291 17.6482 33.364 17.6761C33.299 17.7041 33.2396 17.7447 33.1904 17.7956Z" fill="black"/>
<path d="M36.2051 15.5312C36.1051 15.4312 35.9695 15.375 35.8281 15.375C35.6866 15.375 35.551 15.4312 35.451 15.5312L34.6963 16.2853C34.5992 16.3859 34.5456 16.5207 34.5469 16.6605C34.5482 16.8004 34.6044 16.9341 34.7034 17.0329C34.8023 17.1317 34.9361 17.1877 35.076 17.1888C35.2158 17.19 35.3505 17.1361 35.451 17.0389L36.2051 16.2848C36.305 16.1848 36.361 16.0492 36.361 15.908C36.361 15.7667 36.305 15.6311 36.2051 15.5312Z" fill="black"/>
<path d="M17.3466 33.6327L16.5925 34.3873C16.5416 34.4365 16.5009 34.4954 16.473 34.5605C16.445 34.6255 16.4303 34.6955 16.4297 34.7663C16.4291 34.8371 16.4426 34.9074 16.4694 34.9729C16.4962 35.0385 16.5358 35.098 16.5859 35.1481C16.636 35.1982 16.6955 35.2378 16.7611 35.2646C16.8266 35.2914 16.8968 35.3049 16.9677 35.3043C17.0385 35.3037 17.1085 35.2889 17.1735 35.261C17.2386 35.233 17.2974 35.1924 17.3466 35.1415L18.1002 34.3873C18.1498 34.3378 18.1891 34.279 18.2159 34.2143C18.2428 34.1496 18.2566 34.0802 18.2566 34.0102C18.2566 33.9401 18.2429 33.8708 18.2161 33.806C18.1893 33.7413 18.15 33.6825 18.1005 33.6329C18.051 33.5834 17.9922 33.5441 17.9275 33.5172C17.8628 33.4904 17.7934 33.4766 17.7234 33.4766C17.6533 33.4765 17.5839 33.4903 17.5192 33.5171C17.4545 33.5439 17.3962 33.5832 17.3466 33.6327Z" fill="black"/>
<path d="M19.6136 31.3732L18.8595 32.1274C18.8099 32.1769 18.7706 32.2357 18.7438 32.3004C18.717 32.3651 18.7031 32.4344 18.7031 32.5045C18.7031 32.5746 18.7169 32.6439 18.7437 32.7087C18.7704 32.7734 18.8097 32.8322 18.8592 32.8818C18.9088 32.9313 18.9675 32.9706 19.0323 32.9975C19.097 33.0243 19.1663 33.0381 19.2364 33.0381C19.3064 33.0382 19.3758 33.0244 19.4405 32.9976C19.5053 32.9708 19.5641 32.9315 19.6136 32.882L20.3678 32.1279C20.4187 32.0787 20.4593 32.0198 20.4873 31.9548C20.5152 31.8897 20.53 31.8197 20.5306 31.7489C20.5312 31.6781 20.5177 31.6079 20.4909 31.5423C20.4641 31.4768 20.4245 31.4172 20.3744 31.3671C20.3243 31.3171 20.2648 31.2775 20.1992 31.2507C20.1337 31.2238 20.0634 31.2103 19.9926 31.211C19.9218 31.2116 19.8518 31.2263 19.7868 31.2542C19.7217 31.2822 19.6628 31.3223 19.6136 31.3732Z" fill="black"/>
<path d="M21.8779 29.1095L21.1238 29.8642C21.0728 29.9134 21.0322 29.9722 21.0042 30.0373C20.9763 30.1024 20.9616 30.1723 20.961 30.2432C20.9603 30.314 20.9738 30.3842 21.0007 30.4497C21.0275 30.5153 21.0671 30.5748 21.1171 30.6249C21.1672 30.675 21.2268 30.7146 21.2923 30.7414C21.3579 30.7682 21.4281 30.7817 21.4989 30.7811C21.5697 30.7805 21.6397 30.7658 21.7048 30.7378C21.7698 30.7099 21.8287 30.6692 21.8779 30.6183L22.6326 29.8636C22.6821 29.8141 22.7213 29.7553 22.7481 29.6905C22.7749 29.6258 22.7887 29.5564 22.7887 29.4864C22.7886 29.4163 22.7748 29.347 22.748 29.2823C22.7212 29.2175 22.6818 29.1587 22.6323 29.1092C22.5827 29.0597 22.5239 29.0204 22.4592 28.9937C22.3945 28.9669 22.3251 28.9531 22.255 28.9531C22.185 28.9531 22.1156 28.967 22.0509 28.9938C21.9862 29.0206 21.9274 29.0599 21.8779 29.1095Z" fill="black"/>
<path d="M24.1362 26.8464L23.3816 27.6005C23.3306 27.6497 23.29 27.7086 23.262 27.7737C23.2341 27.8387 23.2194 27.9087 23.2188 27.9795C23.2182 28.0503 23.2316 28.1206 23.2585 28.1861C23.2853 28.2517 23.3249 28.3112 23.375 28.3613C23.425 28.4114 23.4846 28.451 23.5501 28.4778C23.6157 28.5046 23.6859 28.5181 23.7567 28.5175C23.8275 28.5169 23.8975 28.5022 23.9626 28.4742C24.0277 28.4462 24.0865 28.4056 24.1357 28.3547L24.8904 27.6005C24.9413 27.5513 24.9819 27.4925 25.0099 27.4274C25.0378 27.3624 25.0526 27.2924 25.0532 27.2216C25.0538 27.1507 25.0403 27.0805 25.0135 27.015C24.9867 26.9494 24.9471 26.8899 24.897 26.8398C24.8469 26.7897 24.7874 26.7501 24.7218 26.7233C24.6563 26.6965 24.586 26.683 24.5152 26.6836C24.4444 26.6842 24.3744 26.6989 24.3094 26.7269C24.2443 26.7548 24.1854 26.7955 24.1362 26.8464Z" fill="black"/>
<path d="M30.5488 30.7732C30.6189 30.7734 30.6883 30.7597 30.753 30.7329C30.8178 30.706 30.8765 30.6666 30.9259 30.6169L31.6806 29.8623C31.7315 29.8131 31.7721 29.7542 31.8001 29.6891C31.828 29.6241 31.8428 29.5541 31.8434 29.4833C31.844 29.4125 31.8305 29.3422 31.8037 29.2767C31.7769 29.2111 31.7373 29.1516 31.6872 29.1015C31.6371 29.0514 31.5776 29.0118 31.512 28.985C31.4465 28.9582 31.3762 28.9447 31.3054 28.9453C31.2346 28.9459 31.1646 28.9607 31.0996 28.9886C31.0345 29.0166 30.9756 29.0572 30.9264 29.1081L30.1718 29.8628C30.0972 29.9374 30.0464 30.0324 30.0259 30.1358C30.0053 30.2393 30.0159 30.3465 30.0562 30.4439C30.0966 30.5414 30.1649 30.6247 30.2526 30.6833C30.3403 30.7419 30.4434 30.7732 30.5488 30.7732Z" fill="black"/>
<path d="M32.8145 28.5096C32.9559 28.5095 33.0915 28.4533 33.1915 28.3533L33.9462 27.5992C34.0434 27.4986 34.0971 27.3638 34.0959 27.224C34.0947 27.0842 34.0386 26.9504 33.9397 26.8515C33.8408 26.7526 33.7071 26.6965 33.5672 26.6953C33.4274 26.6941 33.2927 26.7479 33.1921 26.845L32.4374 27.5992C32.3628 27.6737 32.3121 27.7688 32.2915 27.8722C32.2709 27.9757 32.2815 28.0829 32.3218 28.1803C32.3622 28.2777 32.4305 28.361 32.5182 28.4196C32.6059 28.4782 32.709 28.5095 32.8145 28.5096Z" fill="black"/>
<path d="M35.0728 26.2478C35.2143 26.2478 35.3499 26.1916 35.4499 26.0916L36.204 25.3374C36.3012 25.2369 36.3549 25.1021 36.3537 24.9623C36.3525 24.8225 36.2964 24.6887 36.1975 24.5898C36.0986 24.4909 35.9649 24.4348 35.825 24.4336C35.6852 24.4324 35.5505 24.4862 35.4499 24.5833L34.6952 25.3374C34.6206 25.4121 34.5698 25.5071 34.5493 25.6106C34.5287 25.7141 34.5393 25.8214 34.5798 25.9188C34.6202 26.0163 34.6886 26.0996 34.7764 26.1581C34.8641 26.2167 34.9673 26.2479 35.0728 26.2478Z" fill="black"/>
<path d="M37.3379 23.9852C37.4793 23.9852 37.615 23.929 37.715 23.829L38.4691 23.0748C38.5692 22.9748 38.6254 22.8392 38.6255 22.6977C38.6255 22.5562 38.5694 22.4205 38.4694 22.3204C38.3694 22.2204 38.2337 22.1641 38.0922 22.1641C37.9508 22.164 37.815 22.2202 37.715 22.3202L36.9608 23.0743C36.8863 23.1489 36.8355 23.2439 36.8149 23.3474C36.7944 23.4508 36.8049 23.558 36.8453 23.6555C36.8856 23.7529 36.954 23.8362 37.0417 23.8948C37.1293 23.9534 37.2324 23.9852 37.3379 23.9852Z" fill="black"/>
<path d="M39.603 21.7219C39.7444 21.7219 39.8801 21.6656 39.9801 21.5656L40.7342 20.8115C40.7851 20.7623 40.8258 20.7034 40.8537 20.6384C40.8817 20.5733 40.8964 20.5033 40.897 20.4325C40.8976 20.3617 40.8841 20.2915 40.8573 20.2259C40.8305 20.1604 40.7909 20.1008 40.7408 20.0507C40.6907 20.0007 40.6312 19.9611 40.5656 19.9342C40.5001 19.9074 40.4299 19.8939 40.3591 19.8946C40.2882 19.8952 40.2183 19.9099 40.1532 19.9378C40.0881 19.9658 40.0293 20.0064 39.9801 20.0574L39.2265 20.8115C39.1519 20.8861 39.1011 20.9811 39.0806 21.0845C39.06 21.188 39.0705 21.2952 39.1109 21.3926C39.1513 21.4901 39.2196 21.5734 39.3073 21.632C39.395 21.6906 39.4975 21.7219 39.603 21.7219Z" fill="black"/>
<path d="M21.1246 39.6669C21.2247 39.7669 21.3603 39.8231 21.5017 39.8231C21.6431 39.8231 21.7788 39.7669 21.8788 39.6669L22.6334 38.9128C22.6843 38.8635 22.7249 38.8047 22.7528 38.7396C22.7807 38.6745 22.7954 38.6045 22.796 38.5337C22.7965 38.4629 22.783 38.3926 22.7561 38.3271C22.7293 38.2616 22.6896 38.2021 22.6395 38.152C22.5894 38.102 22.5298 38.0624 22.4643 38.0357C22.3987 38.0089 22.3285 37.9955 22.2576 37.9961C22.1868 37.9968 22.1169 38.0115 22.0518 38.0395C21.9868 38.0675 21.9279 38.1082 21.8788 38.1592L21.1246 38.9133C21.0248 39.0133 20.9688 39.1488 20.9688 39.2901C20.9688 39.4314 21.0248 39.5669 21.1246 39.6669Z" fill="black"/>
<path d="M23.7603 37.5617C23.9018 37.5617 24.0374 37.5055 24.1374 37.4055L24.8915 36.6513C24.9425 36.6021 24.9831 36.5433 25.011 36.4782C25.039 36.4131 25.0537 36.3432 25.0543 36.2723C25.0549 36.2015 25.0414 36.1313 25.0146 36.0658C24.9878 36.0002 24.9482 35.9407 24.8981 35.8906C24.8481 35.8405 24.7885 35.8009 24.723 35.7741C24.6574 35.7473 24.5872 35.7338 24.5164 35.7344C24.4456 35.735 24.3756 35.7497 24.3105 35.7777C24.2454 35.8056 24.1866 35.8463 24.1374 35.8972L23.3827 36.6513C23.3082 36.7259 23.2574 36.8209 23.2368 36.9244C23.2162 37.0278 23.2268 37.135 23.2672 37.2325C23.3075 37.3299 23.3759 37.4132 23.4635 37.4718C23.5512 37.5304 23.6543 37.5617 23.7598 37.5617H23.7603Z" fill="black"/>
<path d="M26.0254 35.2977C26.1668 35.2977 26.3025 35.2415 26.4025 35.1415L27.1571 34.3873C27.2067 34.3378 27.246 34.279 27.2728 34.2143C27.2997 34.1496 27.3135 34.0802 27.3135 34.0102C27.3135 33.9401 27.2998 33.8708 27.273 33.806C27.2462 33.7413 27.2069 33.6825 27.1574 33.6329C27.1079 33.5834 27.0491 33.5441 26.9844 33.5172C26.9197 33.4904 26.8503 33.4766 26.7803 33.4766C26.7102 33.4765 26.6408 33.4903 26.5761 33.5171C26.5114 33.5439 26.4526 33.5832 26.403 33.6327L25.6483 34.3873C25.5738 34.4619 25.523 34.5569 25.5024 34.6604C25.4819 34.7638 25.4924 34.871 25.5328 34.9685C25.5731 35.0659 25.6415 35.1492 25.7292 35.2078C25.8168 35.2664 25.9199 35.2977 26.0254 35.2977Z" fill="black"/>
<path d="M28.291 33.0355C28.3611 33.0357 28.4304 33.0221 28.4952 32.9954C28.5599 32.9687 28.6187 32.9294 28.6681 32.8798L29.4222 32.1256C29.5223 32.0256 29.5786 31.89 29.5786 31.7485C29.5787 31.607 29.5225 31.4713 29.4225 31.3712C29.3225 31.2711 29.1868 31.2149 29.0454 31.2148C28.9039 31.2148 28.7682 31.2709 28.6681 31.371L27.914 32.1251C27.8394 32.1997 27.7886 32.2947 27.7681 32.3981C27.7475 32.5016 27.758 32.6088 27.7984 32.7062C27.8388 32.8037 27.9071 32.887 27.9948 32.9456C28.0825 33.0042 28.1856 33.0355 28.291 33.0355Z" fill="black"/>
</g>
<defs>
<clipPath id="clip0_3208_33873">
<rect width="32" height="32" fill="white" transform="translate(12.6641 12)"/>
</clipPath>
</defs>
</svg>
