<svg width="27" height="23" viewBox="0 0 27 23" fill="none" xmlns="http://www.w3.org/2000/svg">
<path d="M10.735 21.9249L0.890122 12.08C0.736489 11.9262 0.650193 11.7177 0.650193 11.5003C0.650193 11.2829 0.736489 11.0743 0.890122 10.9205L10.735 1.07566C10.8905 0.93074 11.0962 0.851847 11.3087 0.855597C11.5213 0.859347 11.7241 0.945447 11.8744 1.09576C12.0247 1.24607 12.1108 1.44886 12.1145 1.6614C12.1183 1.87394 12.0394 2.07964 11.8945 2.23516L3.45115 10.6799H25.5351C25.7526 10.6799 25.9613 10.7663 26.1152 10.9201C26.269 11.074 26.3555 11.2827 26.3555 11.5003C26.3555 11.7178 26.269 11.9265 26.1152 12.0804C25.9613 12.2342 25.7526 12.3207 25.5351 12.3207H3.45115L11.8945 20.7654C12.0394 20.9209 12.1183 21.1266 12.1145 21.3391C12.1108 21.5517 12.0247 21.7544 11.8744 21.9048C11.7241 22.0551 11.5213 22.1412 11.3087 22.1449C11.0962 22.1487 10.8905 22.0698 10.735 21.9249Z" fill="black"/>
</svg>
