<svg width="16" height="17" viewBox="0 0 16 17" fill="none" xmlns="http://www.w3.org/2000/svg">
<g clip-path="url(#clip0_14956_62670)">
<path d="M8 0.320312C3.58214 0.320312 0 3.90246 0 8.32031C0 12.7382 3.58214 16.3203 8 16.3203C12.4179 16.3203 16 12.7382 16 8.32031C16 3.90246 12.4179 0.320312 8 0.320312ZM8 14.9632C4.33214 14.9632 1.35714 11.9882 1.35714 8.32031C1.35714 4.65246 4.33214 1.67746 8 1.67746C11.6679 1.67746 14.6429 4.65246 14.6429 8.32031C14.6429 11.9882 11.6679 14.9632 8 14.9632Z" fill="#8E8E93"/>
<path d="M11.1198 10.5794L8.57335 8.73828V4.31864C8.57335 4.24007 8.50907 4.17578 8.4305 4.17578H7.57157C7.493 4.17578 7.42871 4.24007 7.42871 4.31864V9.2365C7.42871 9.28292 7.45014 9.32578 7.48764 9.35257L10.4412 11.5061C10.5055 11.5526 10.5948 11.5383 10.6412 11.4758L11.1519 10.7794C11.1984 10.7133 11.1841 10.624 11.1198 10.5794Z" fill="#8E8E93"/>
</g>
<defs>
<clipPath id="clip0_14956_62670">
<rect width="16" height="16" fill="white" transform="translate(0 0.320312)"/>
</clipPath>
</defs>
</svg>
