<svg width="38" height="39" viewBox="0 0 38 39" fill="none" xmlns="http://www.w3.org/2000/svg">
<path opacity="0.7" d="M19.6103 33.9134V35.9354C19.6103 36.2745 19.3329 36.5519 18.9938 36.5519C18.6548 36.5519 18.3774 36.2745 18.3774 35.9354V33.9134C18.3774 33.5743 18.6548 33.2969 18.9938 33.2969C19.3329 33.2969 19.6103 33.5743 19.6103 33.9134ZM12.1016 31.4474C11.8056 31.2748 11.4296 31.3796 11.257 31.6755L10.2459 33.4263C10.0733 33.7223 10.1781 34.0983 10.474 34.2709C10.5727 34.3264 10.6775 34.3511 10.7823 34.3511C10.9981 34.3511 11.2015 34.2401 11.3186 34.0428L12.3297 32.292C12.5023 31.9961 12.3975 31.6201 12.1016 31.4474ZM6.21415 26.1765L4.46334 27.1875C4.16742 27.3602 4.06879 27.7362 4.23524 28.0321C4.35237 28.2294 4.55581 28.3404 4.77158 28.3404C4.87638 28.3404 4.98118 28.3157 5.07982 28.2602L6.83063 27.2492C7.12654 27.0766 7.22518 26.7005 7.05873 26.4046C6.88611 26.1087 6.51006 26.0101 6.21415 26.1765ZM5.20928 19.5062C5.20928 19.1671 4.93186 18.8897 4.5928 18.8897H2.57073C2.23167 18.8897 1.95425 19.1671 1.95425 19.5062C1.95425 19.8452 2.23167 20.1226 2.57073 20.1226H4.5928C4.93186 20.1226 5.20928 19.8452 5.20928 19.5062ZM6.83063 11.7693L5.07982 10.7583C4.78391 10.5857 4.40785 10.6905 4.23524 10.9864C4.06262 11.2823 4.16742 11.6583 4.46334 11.831L6.21415 12.842C6.31278 12.8975 6.41759 12.9221 6.52239 12.9221C6.73816 12.9221 6.9416 12.8112 7.05873 12.6139C7.23134 12.318 7.12654 11.9419 6.83063 11.7693ZM11.2631 7.34296C11.3803 7.54023 11.5837 7.6512 11.7995 7.6512C11.9043 7.6512 12.0091 7.62654 12.1077 7.57106C12.4036 7.39844 12.5023 7.02239 12.3358 6.72648L11.3248 4.97567C11.1522 4.67975 10.7761 4.58112 10.4802 4.74757C10.1843 4.92018 10.0857 5.29624 10.2521 5.59215L11.2631 7.34296ZM19 2.46658C18.6609 2.46658 18.3835 2.744 18.3835 3.08306V5.10513C18.3835 5.44419 18.6609 5.72161 19 5.72161C19.3391 5.72161 19.6165 5.44419 19.6165 5.10513V3.08306C19.6165 2.744 19.3391 2.46658 19 2.46658ZM25.8923 7.56489C25.9909 7.62038 26.0957 7.64504 26.2005 7.64504C26.4163 7.64504 26.6197 7.53407 26.7369 7.33679L27.7479 5.58598C27.9205 5.29007 27.8157 4.91402 27.5198 4.7414C27.2239 4.56879 26.8478 4.67359 26.6752 4.9695L25.6642 6.72031C25.4916 7.01622 25.5964 7.39228 25.8923 7.56489ZM31.4714 12.916C31.5762 12.916 31.681 12.8913 31.7797 12.8358L33.5305 11.8248C33.8264 11.6522 33.925 11.2761 33.7586 10.9802C33.586 10.6843 33.2099 10.5857 32.914 10.7521L31.1632 11.7631C30.8673 11.9358 30.7687 12.3118 30.9351 12.6077C31.0522 12.805 31.2557 12.916 31.4714 12.916ZM35.4231 18.8835H33.401C33.062 18.8835 32.7846 19.1609 32.7846 19.5C32.7846 19.8391 33.062 20.1165 33.401 20.1165H35.4231C35.7622 20.1165 36.0396 19.8391 36.0396 19.5C36.0396 19.1609 35.7622 18.8835 35.4231 18.8835ZM33.5305 27.1752L31.7797 26.1642C31.4838 25.9916 31.1077 26.0964 30.9351 26.3923C30.7625 26.6882 30.8673 27.0642 31.1632 27.2369L32.914 28.2479C33.0127 28.3034 33.1175 28.328 33.2223 28.328C33.438 28.328 33.6415 28.2171 33.7586 28.0198C33.9312 27.7239 33.8264 27.3478 33.5305 27.1752ZM26.7369 31.6632C26.5642 31.3673 26.1882 31.2687 25.8923 31.4351C25.5964 31.6077 25.4977 31.9838 25.6642 32.2797L26.6752 34.0305C26.7923 34.2278 26.9958 34.3387 27.2115 34.3387C27.3164 34.3387 27.4212 34.3141 27.5198 34.2586C27.8157 34.086 27.9143 33.7099 27.7479 33.414L26.7369 31.6632ZM17.7547 18.0698L9.04997 13.0454C8.75406 12.8728 8.378 12.9776 8.20539 13.2735C8.03277 13.5694 8.13757 13.9455 8.43348 14.1181L17.1382 19.1424C17.2369 19.1979 17.3417 19.2226 17.4465 19.2226C17.6622 19.2226 17.8657 19.1116 17.9828 18.9143C18.1554 18.6184 18.0506 18.2424 17.7547 18.0698ZM28.95 13.0454L20.2453 18.0698C19.9494 18.2424 19.8507 18.6184 20.0172 18.9143C20.1343 19.1116 20.3378 19.2226 20.5535 19.2226C20.6583 19.2226 20.7631 19.1979 20.8618 19.1424L29.5665 14.1181C29.8624 13.9455 29.9611 13.5694 29.7946 13.2735C29.622 12.9776 29.2459 12.879 28.95 13.0454ZM38 19.5C38 29.974 29.4802 38.5 19 38.5C8.51979 38.5 0 29.974 0 19.5C0 9.02596 8.52596 0.5 19 0.5C29.474 0.5 38 9.02596 38 19.5ZM36.767 19.5C36.767 9.70409 28.7959 1.73297 19 1.73297C9.20409 1.73297 1.23297 9.70409 1.23297 19.5C1.23297 29.2959 9.20409 37.267 19 37.267C28.7959 37.267 36.767 29.2959 36.767 19.5ZM19 20.1165C19.3391 20.1165 19.6165 19.8391 19.6165 19.5C19.6165 19.1609 19.3391 18.8835 19 18.8835C18.6609 18.8835 18.3835 19.1609 18.3835 19.5C18.3835 19.8391 18.6609 20.1165 19 20.1165Z" fill="#2B2A28"/>
</svg>
