<svg width="19" height="19" viewBox="0 0 19 19" fill="none" xmlns="http://www.w3.org/2000/svg">
<g clip-path="url(#clip0_14016_86196)">
<path d="M11.9716 7.03125C11.7399 7.03125 11.552 7.21911 11.552 7.4509V15.3822C11.552 15.6138 11.7399 15.8018 11.9716 15.8018C12.2034 15.8018 12.3913 15.6138 12.3913 15.3822V7.4509C12.3913 7.21911 12.2034 7.03125 11.9716 7.03125Z" fill="#FF0000"/>
<path d="M7.0198 7.03125C6.78802 7.03125 6.60016 7.21911 6.60016 7.4509V15.3822C6.60016 15.6138 6.78802 15.8018 7.0198 15.8018C7.25159 15.8018 7.43945 15.6138 7.43945 15.3822V7.4509C7.43945 7.21911 7.25159 7.03125 7.0198 7.03125Z" fill="#FF0000"/>
<path d="M3.41086 5.8737V16.2129C3.41086 16.824 3.63494 17.3979 4.02639 17.8097C4.41604 18.2226 4.9583 18.457 5.5258 18.458H13.4656C14.0333 18.457 14.5756 18.2226 14.965 17.8097C15.3565 17.3979 15.5806 16.824 15.5806 16.2129V5.8737C16.3587 5.66715 16.863 4.9154 16.7589 4.11692C16.6546 3.31861 15.9745 2.72144 15.1693 2.72127H13.0207V2.19672C13.0232 1.7556 12.8488 1.33202 12.5365 1.0204C12.2242 0.708943 11.8 0.535511 11.3589 0.539118H7.63255C7.19143 0.535511 6.7672 0.708943 6.45492 1.0204C6.14265 1.33202 5.96823 1.7556 5.97069 2.19672V2.72127H3.82214C3.01695 2.72144 2.33683 3.31861 2.23257 4.11692C2.12848 4.9154 2.63271 5.66715 3.41086 5.8737ZM13.4656 17.6187H5.5258C4.80831 17.6187 4.25015 17.0023 4.25015 16.2129V5.91058H14.7413V16.2129C14.7413 17.0023 14.1831 17.6187 13.4656 17.6187ZM6.80998 2.19672C6.8072 1.97821 6.89309 1.76789 7.04817 1.61364C7.20307 1.45939 7.41388 1.37464 7.63255 1.37841H11.3589C11.5775 1.37464 11.7884 1.45939 11.9433 1.61364C12.0983 1.76773 12.1842 1.97821 12.1814 2.19672V2.72127H6.80998V2.19672ZM3.82214 3.56057H15.1693C15.5865 3.56057 15.9247 3.89874 15.9247 4.31593C15.9247 4.73311 15.5865 5.07129 15.1693 5.07129H3.82214C3.40495 5.07129 3.06678 4.73311 3.06678 4.31593C3.06678 3.89874 3.40495 3.56057 3.82214 3.56057Z" fill="#FF0000"/>
<path d="M9.4957 7.03125C9.26391 7.03125 9.07605 7.21911 9.07605 7.4509V15.3822C9.07605 15.6138 9.26391 15.8018 9.4957 15.8018C9.72748 15.8018 9.91534 15.6138 9.91534 15.3822V7.4509C9.91534 7.21911 9.72748 7.03125 9.4957 7.03125Z" fill="#FF0000"/>
</g>
<defs>
<clipPath id="clip0_14016_86196">
<rect width="17.9189" height="17.9189" fill="white" transform="translate(0.540527 0.539062)"/>
</clipPath>
</defs>
</svg>
