<svg width="25" height="17" viewBox="0 0 25 17" fill="none" xmlns="http://www.w3.org/2000/svg">
<path d="M23.5157 2.18624H20.5555C20.2805 2.18624 20.0576 2.40914 20.0576 2.68413V3.114H18.6693C18.3943 3.114 18.1714 3.33691 18.1714 3.61189V3.75518C17.3621 3.68453 17.096 3.53109 16.3528 3.1025C15.7812 2.7729 14.9173 2.27476 13.3616 1.57528C13.3543 1.57199 13.3471 1.56895 13.3396 1.56607C12.8332 1.36681 11.506 0.974774 10.0885 1.6172L8.08498 2.33456L6.39619 0.645819C6.20177 0.451394 5.8865 0.451394 5.69208 0.645819L0.147687 6.19016C-0.0316521 6.36955 -0.0660562 6.68058 0.147687 6.89432L9.62186 16.3685C9.77347 16.5202 10.1285 16.566 10.326 16.3685L15.3878 11.3068C15.5194 11.3181 15.656 11.3242 15.7975 11.3242C17.0983 11.3242 18.2489 10.4319 18.9072 9.45935H23.5157C23.7907 9.45935 24.0136 9.23644 24.0136 8.96146V2.68413C24.0136 2.40914 23.7907 2.18624 23.5157 2.18624ZM6.04409 1.70199L7.17887 2.83678C6.84155 3.04539 6.45156 3.15702 6.04409 3.15702C5.63656 3.15702 5.24662 3.04544 4.9093 2.83678L6.04409 1.70199ZM2.3387 7.67706L1.20391 6.54222L2.3387 5.40743C2.54731 5.74475 2.65894 6.13475 2.65894 6.54222C2.65894 6.94969 2.54736 7.33969 2.3387 7.67706ZM9.97397 15.3123L8.83938 14.1777C9.53209 13.7502 10.4157 13.7502 11.1085 14.1777L9.97397 15.3123ZM11.8259 13.4604C10.7256 12.6623 9.22231 12.6623 8.12207 13.4604L3.05601 8.39431C3.44481 7.85958 3.65472 7.21726 3.65472 6.54222C3.65472 5.86713 3.44486 5.22485 3.05601 4.69012L4.19204 3.55414C4.72677 3.94294 5.36905 4.15285 6.04413 4.15285C6.71922 4.15285 7.3615 3.94294 7.89623 3.55414L8.97311 4.63102C8.74075 4.66533 8.51416 4.7419 8.30286 4.85965C7.94597 5.05851 7.66596 5.3563 7.4916 5.71657C6.92998 5.82058 6.41003 6.09247 6.00216 6.5003C4.8956 7.6069 4.89561 9.40742 6.00221 10.514C6.55547 11.0673 7.28223 11.344 8.00905 11.344C8.73582 11.344 9.46264 11.0673 10.0159 10.514C10.3759 10.1541 10.6281 9.71163 10.7544 9.22947L12.4355 9.8C12.2462 10.6767 12.4401 11.599 12.9629 12.3234L11.8259 13.4604ZM8.7988 8.56554C8.80319 8.56713 8.80757 8.56872 8.812 8.57022L9.80758 8.90814C9.7324 9.24745 9.56227 9.55942 9.31183 9.80991C8.59347 10.5282 7.42463 10.5283 6.70638 9.80991C5.98802 9.09161 5.98802 7.92281 6.70638 7.20446C6.87964 7.03109 7.08413 6.89562 7.30693 6.80376C7.39884 7.56862 7.94955 8.25037 8.7988 8.56554ZM13.6803 11.6059C13.4881 11.2928 13.3794 10.9353 13.3622 10.5705C13.6007 10.743 13.8922 10.9119 14.2403 11.046L13.6803 11.6059ZM18.1714 8.76295C17.6995 9.53657 16.7842 10.3284 15.7975 10.3284C15.6129 10.3284 15.4399 10.3152 15.2781 10.2918C15.2775 10.2917 15.2768 10.2916 15.2762 10.2915C14.2009 10.1353 13.6225 9.52422 13.4319 9.28225C13.4218 9.26731 13.3785 9.2107 13.3721 9.20129C13.3141 9.09763 13.219 9.01429 13.0977 8.97311L9.13906 7.62956C8.50734 7.39246 8.17341 6.85151 8.32646 6.31199C8.32656 6.31165 8.32666 6.3113 8.32676 6.31095C8.32691 6.31055 8.327 6.3101 8.3271 6.3097C8.39825 6.06126 8.56166 5.85518 8.7875 5.72936C9.01185 5.60434 9.2712 5.57333 9.51855 5.64188L13.9793 7.05544C14.2415 7.13864 14.5213 6.99335 14.6043 6.73122C14.6874 6.46908 14.5422 6.18926 14.2801 6.10617L10.7324 4.98193L10.7014 4.95096C10.7011 4.95067 10.7008 4.95032 10.7005 4.95002L8.86378 3.11331L10.4425 2.548C10.4478 2.54606 10.4544 2.54362 10.4597 2.54148C10.461 2.54093 10.4636 2.53994 10.4649 2.53939C10.4717 2.53665 10.4783 2.53376 10.485 2.53073C11.5522 2.04021 12.5667 2.33381 12.9644 2.48846C14.4672 3.16464 15.2693 3.62713 15.8553 3.96504C16.67 4.4349 17.0626 4.66129 18.1714 4.75285V8.76295ZM20.0576 8.46347H19.1672V4.10978H20.0576V8.46347ZM23.0179 8.46347H21.0533V3.18202H23.0179V8.46347Z" fill="white"/>
</svg>
