<svg width="19" height="18" viewBox="0 0 19 18" fill="none" xmlns="http://www.w3.org/2000/svg">
<path d="M18.5156 15.2188V12.2188C18.5156 12.0198 18.4366 11.8291 18.296 11.6884C18.1553 11.5478 17.9645 11.4688 17.7656 11.4688C17.5667 11.4688 17.3759 11.5478 17.2353 11.6884C17.0946 11.8291 17.0156 12.0198 17.0156 12.2188V15.2188C17.0156 15.4177 16.9366 15.6084 16.796 15.7491C16.6553 15.8897 16.4645 15.9688 16.2656 15.9688H2.76562C2.56671 15.9688 2.37595 15.8897 2.2353 15.7491C2.09464 15.6084 2.01562 15.4177 2.01562 15.2188V12.2188C2.01562 12.0198 1.93661 11.8291 1.79595 11.6884C1.6553 11.5478 1.46454 11.4688 1.26562 11.4688C1.06671 11.4688 0.875947 11.5478 0.735295 11.6884C0.594643 11.8291 0.515625 12.0198 0.515625 12.2188V15.2188C0.515625 15.8155 0.752678 16.3878 1.17463 16.8097C1.59659 17.2317 2.16889 17.4688 2.76562 17.4688H16.2656C16.8624 17.4688 17.4347 17.2317 17.8566 16.8097C18.2786 16.3878 18.5156 15.8155 18.5156 15.2188ZM13.7306 11.3038L9.98063 14.3038C9.84822 14.4084 9.68439 14.4653 9.51562 14.4653C9.34686 14.4653 9.18303 14.4084 9.05062 14.3038L5.30062 11.3038C5.16399 11.1748 5.08074 10.9992 5.06735 10.8118C5.05396 10.6244 5.11141 10.4388 5.22833 10.2917C5.34524 10.1446 5.51311 10.0467 5.69872 10.0175C5.88432 9.98825 6.07415 10.0297 6.23063 10.1337L8.76562 12.1588V1.71875C8.76562 1.51984 8.84464 1.32907 8.9853 1.18842C9.12595 1.04777 9.31671 0.96875 9.51562 0.96875C9.71454 0.96875 9.9053 1.04777 10.046 1.18842C10.1866 1.32907 10.2656 1.51984 10.2656 1.71875V12.1588L12.8006 10.1337C12.8761 10.0625 12.9657 10.0076 13.0635 9.97274C13.1613 9.93785 13.2653 9.92366 13.3689 9.93106C13.4725 9.93846 13.5734 9.96729 13.6653 10.0157C13.7571 10.0642 13.8379 10.1312 13.9026 10.2125C13.9672 10.2938 14.0142 10.3876 14.0407 10.488C14.0671 10.5885 14.0725 10.6933 14.0563 10.7959C14.0401 10.8985 14.0028 10.9966 13.9468 11.084C13.8907 11.1714 13.8171 11.2463 13.7306 11.3038Z" fill="black"/>
</svg>
