<svg width="16" height="16" viewBox="0 0 16 16" fill="none" xmlns="http://www.w3.org/2000/svg">
<path d="M12.5143 5.49334C12.4609 5.38669 12.3809 5.33334 12.2743 5.33334H9.1276L12.2476 0.4C12.3009 0.32 12.3009 0.213344 12.2476 0.133344C12.1943 0.0533438 12.1143 0 12.0076 0H7.74095C7.63429 0 7.55429 0.0533438 7.50095 0.133344L3.50095 8.13334C3.4476 8.21334 3.4476 8.32 3.50095 8.4C3.55429 8.48 3.66095 8.53334 3.74095 8.53334H6.4876L3.50095 15.6533C3.4476 15.76 3.50095 15.8933 3.6076 15.9733C3.63426 16 3.6876 16 3.74095 16C3.82095 16 3.90095 15.9733 3.95429 15.92L12.4876 5.78666C12.5409 5.70666 12.5676 5.6 12.5143 5.49334ZM4.67426 14.2133L7.1276 8.34669C7.15426 8.26669 7.15426 8.18669 7.10095 8.10669C7.0476 8.05334 6.9676 8.00003 6.8876 8.00003H4.1676L7.90095 0.533344H11.5276L8.38095 5.46666C8.3276 5.54666 8.3276 5.65331 8.38095 5.73331C8.43429 5.81331 8.51429 5.86666 8.62095 5.86666H11.7143L4.67426 14.2133Z" fill="#6B6A69"/>
</svg>
