<svg width="36" height="37" viewBox="0 0 36 37" fill="none" xmlns="http://www.w3.org/2000/svg">
<g opacity="0.7" clip-path="url(#clip0_273_3847)">
<path d="M26.4126 13.3241L26.4126 13.3241L26.4159 13.3276C26.5333 13.4459 26.6868 13.5048 26.8409 13.5048C26.9945 13.5048 27.1484 13.4461 27.2667 13.3288C27.5028 13.0945 27.503 12.7105 27.268 12.4737C27.0334 12.2372 26.6515 12.2357 26.4151 12.4702L26.4126 13.3241ZM26.4126 13.3241L26.4117 13.3232M26.4126 13.3241L26.4117 13.3232M26.4117 13.3232C26.1771 13.0867 26.1786 12.7048 26.415 12.4702L26.4117 13.3232Z" fill="#2B2A28" stroke="white" stroke-width="0.2"/>
<path d="M33.6941 20.6034H33.4526H21.0899C20.0091 20.6034 19.1301 19.7243 19.1301 18.6436V6.28095V6.03953L19.3008 6.21024L24.3059 11.2152C24.5414 11.4507 24.9233 11.4507 25.1589 11.2152C25.3944 10.9797 25.3944 10.5978 25.1589 10.3622L18.8076 4.01097C18.8076 4.01097 18.8075 4.01096 18.8075 4.01096C18.572 3.77551 18.1901 3.77551 17.9546 4.01097L6.74539 15.2204C6.50988 15.4559 6.50986 15.8378 6.74539 16.0734C6.74539 16.0734 6.74539 16.0734 6.7454 16.0734L23.6604 32.9883C23.7735 33.1014 23.9269 33.165 24.0869 33.165C24.2468 33.165 24.4002 33.1014 24.5133 32.9883L35.7226 21.779C35.7226 21.779 35.7226 21.779 35.7226 21.779C35.8357 21.6658 35.8993 21.5125 35.8993 21.3525L33.6941 20.6034ZM33.6941 20.6034L33.5233 20.4327M33.6941 20.6034L33.5233 20.4327M33.5233 20.4327L28.3391 15.2485C28.1035 15.0129 28.1035 14.631 28.3391 14.3955C28.5747 14.16 28.9566 14.16 29.1921 14.3955L35.7225 20.926M33.5233 20.4327L35.7225 20.926M35.7225 20.926C35.7225 20.926 35.7225 20.926 35.7226 20.926M35.7225 20.926L35.7226 20.926M35.7226 20.926C35.8356 21.0391 35.8992 21.1926 35.8993 21.3525L35.7226 20.926ZM17.924 5.98909V5.74766L17.7533 5.91838L8.79856 14.8731L8.62785 15.0438H8.86927H17.824H17.924V14.9438V5.98909ZM23.313 30.935L23.4837 31.1057V30.8643V21.9097V21.8097H23.3837H21.0901C19.3444 21.8097 17.924 20.3893 17.924 18.6436V16.35V16.25H17.824H8.86927H8.62785L8.79856 16.4207L23.313 30.935ZM24.6899 30.8644V31.1058L24.8606 30.9351L33.8153 21.9804L33.986 21.8097H33.7446H24.7899H24.6899V21.9097V30.8644Z" fill="#2B2A28" stroke="white" stroke-width="0.2"/>
<path d="M0.703125 18.4594H4.82562C5.15872 18.4594 5.42874 18.7295 5.42874 19.0625C5.42874 19.3956 5.15872 19.6656 4.82562 19.6656H0.703125C0.370024 19.6656 0.1 19.3955 0.1 19.0625C0.1 18.7295 0.370024 18.4594 0.703125 18.4594Z" fill="#2B2A28" stroke="white" stroke-width="0.2"/>
<path d="M6.91211 18.4594H6.92266C7.25576 18.4594 7.52578 18.7295 7.52578 19.0625C7.52578 19.3955 7.25576 19.6656 6.92266 19.6656H6.91211C6.57901 19.6656 6.30898 19.3955 6.30898 19.0625C6.30898 18.7295 6.57901 18.4594 6.91211 18.4594Z" fill="#2B2A28" stroke="white" stroke-width="0.2"/>
<path d="M0.703125 11.0766H2.95334C3.28644 11.0766 3.55646 11.3466 3.55646 11.6797C3.55646 12.0127 3.28644 12.2828 2.95334 12.2828H0.703125C0.370024 12.2828 0.1 12.0127 0.1 11.6797C0.1 11.3466 0.370024 11.0766 0.703125 11.0766Z" fill="#2B2A28" stroke="white" stroke-width="0.2"/>
<path d="M5.25195 11.0766H7.91173C8.24484 11.0766 8.51486 11.3466 8.51486 11.6797C8.51486 12.0127 8.24484 12.2828 7.91173 12.2828H5.25195C4.91885 12.2828 4.64883 12.0127 4.64883 11.6797C4.64883 11.3466 4.91885 11.0766 5.25195 11.0766Z" fill="#2B2A28" stroke="white" stroke-width="0.2"/>
<path d="M5.50391 22.3266H9.44134C9.77437 22.3266 10.0445 22.5967 10.0445 22.9297C10.0445 23.2627 9.77444 23.5328 9.44134 23.5328H5.50391C5.17081 23.5328 4.90078 23.2627 4.90078 22.9297C4.90078 22.5966 5.17081 22.3266 5.50391 22.3266Z" fill="#2B2A28" stroke="white" stroke-width="0.2"/>
<path d="M2.60156 26.8266H12.5156C12.8487 26.8266 13.1187 27.0966 13.1187 27.4297C13.1187 27.7627 12.8487 28.0328 12.5156 28.0328H2.60156C2.26846 28.0328 1.99844 27.7627 1.99844 27.4297C1.99844 27.0966 2.26846 26.8266 2.60156 26.8266Z" fill="#2B2A28" stroke="white" stroke-width="0.2"/>
</g>
<defs>
<clipPath id="clip0_273_3847">
<rect width="36" height="36" fill="white" transform="translate(0 0.5)"/>
</clipPath>
</defs>
</svg>
