<svg width="80" height="80" viewBox="0 0 80 80" fill="none" xmlns="http://www.w3.org/2000/svg">
<g filter="url(#filter0_d_1738_12247)">
<path d="M58.9091 10H21.0909C17.1747 10 14 13.1747 14 17.0909V54.9091C14 58.8253 17.1747 62 21.0909 62H58.9091C62.8253 62 66 58.8253 66 54.9091V17.0909C66 13.1747 62.8253 10 58.9091 10Z" fill="#2B2A28"/>
</g>
<path d="M49.1401 39.3828L49.1402 39.3826C49.434 38.7946 49.196 38.0844 48.6121 37.7869L48.6116 37.7867C48.0257 37.4907 47.3095 37.7238 47.0075 38.3055C46.9422 38.4307 45.1266 41.8321 39.7143 41.8321C34.3228 41.8321 32.5006 38.4573 32.422 38.3075C32.1259 37.7214 31.4102 37.4838 30.8228 37.7798C30.2326 38.0749 29.9933 38.7924 30.2884 39.3826L30.2885 39.3828C30.3974 39.5998 32.7967 44.2214 39.7143 44.2214C46.6318 44.2214 49.0312 39.5998 49.1401 39.3828ZM22.85 35.7143C22.85 45.0133 30.4153 52.5786 39.7143 52.5786C49.0133 52.5786 56.5786 45.0133 56.5786 35.7143C56.5786 26.4153 49.0133 18.85 39.7143 18.85C30.4153 18.85 22.85 26.4153 22.85 35.7143ZM25.2393 35.7143C25.2393 27.7328 31.7328 21.2393 39.7143 21.2393C47.6957 21.2393 54.1893 27.7328 54.1893 35.7143C54.1893 43.6957 47.6957 50.1893 39.7143 50.1893C31.7328 50.1893 25.2393 43.6957 25.2393 35.7143ZM42.6982 31.5357C42.6982 32.7708 43.7024 33.775 44.9375 33.775C46.1726 33.775 47.1768 32.7708 47.1768 31.5357C47.1768 30.3006 46.1726 29.2964 44.9375 29.2964C43.7024 29.2964 42.6982 30.3006 42.6982 31.5357ZM32.2518 31.5357C32.2518 32.7708 33.256 33.775 34.4911 33.775C35.7262 33.775 36.7304 32.7708 36.7304 31.5357C36.7304 30.3006 35.7262 29.2964 34.4911 29.2964C33.256 29.2964 32.2518 30.3006 32.2518 31.5357Z" fill="white" stroke="white" stroke-width="0.3"/>
<defs>
<filter id="filter0_d_1738_12247" x="0" y="0" width="80" height="80" filterUnits="userSpaceOnUse" color-interpolation-filters="sRGB">
<feFlood flood-opacity="0" result="BackgroundImageFix"/>
<feColorMatrix in="SourceAlpha" type="matrix" values="0 0 0 0 0 0 0 0 0 0 0 0 0 0 0 0 0 0 127 0" result="hardAlpha"/>
<feOffset dy="4"/>
<feGaussianBlur stdDeviation="7"/>
<feComposite in2="hardAlpha" operator="out"/>
<feColorMatrix type="matrix" values="0 0 0 0 0 0 0 0 0 0 0 0 0 0 0 0 0 0 0.13 0"/>
<feBlend mode="normal" in2="BackgroundImageFix" result="effect1_dropShadow_1738_12247"/>
<feBlend mode="normal" in="SourceGraphic" in2="effect1_dropShadow_1738_12247" result="shape"/>
</filter>
</defs>
</svg>
