<svg width="35" height="35" viewBox="0 0 35 35" fill="none" xmlns="http://www.w3.org/2000/svg">
<path d="M27.1401 21.3828L27.1402 21.3826C27.434 20.7946 27.196 20.0844 26.6121 19.7869L26.6116 19.7867C26.0257 19.4907 25.3095 19.7238 25.0075 20.3055C24.9422 20.4307 23.1266 23.8321 17.7143 23.8321C12.3228 23.8321 10.5006 20.4573 10.422 20.3075C10.1259 19.7214 9.4102 19.4838 8.82276 19.7798C8.23263 20.0749 7.99328 20.7924 8.28837 21.3826L8.28847 21.3828C8.39735 21.5998 10.7967 26.2214 17.7143 26.2214C24.6318 26.2214 27.0312 21.5998 27.1401 21.3828ZM0.85 17.7143C0.85 27.0133 8.41526 34.5786 17.7143 34.5786C27.0133 34.5786 34.5786 27.0133 34.5786 17.7143C34.5786 8.41526 27.0133 0.85 17.7143 0.85C8.41526 0.85 0.85 8.41526 0.85 17.7143ZM3.23929 17.7143C3.23929 9.73283 9.73283 3.23929 17.7143 3.23929C25.6957 3.23929 32.1893 9.73283 32.1893 17.7143C32.1893 25.6957 25.6957 32.1893 17.7143 32.1893C9.73283 32.1893 3.23929 25.6957 3.23929 17.7143ZM20.6982 13.5357C20.6982 14.7708 21.7024 15.775 22.9375 15.775C24.1726 15.775 25.1768 14.7708 25.1768 13.5357C25.1768 12.3006 24.1726 11.2964 22.9375 11.2964C21.7024 11.2964 20.6982 12.3006 20.6982 13.5357ZM10.2518 13.5357C10.2518 14.7708 11.256 15.775 12.4911 15.775C13.7262 15.775 14.7304 14.7708 14.7304 13.5357C14.7304 12.3006 13.7262 11.2964 12.4911 11.2964C11.256 11.2964 10.2518 12.3006 10.2518 13.5357Z" fill="white" stroke="white" stroke-width="0.3"/>
</svg>
