<svg width="16" height="17" viewBox="0 0 16 17" fill="none" xmlns="http://www.w3.org/2000/svg">
<g id="Group">
<g id="Group_2">
<path id="Vector" d="M15.4782 3.14445V2.1C15.4782 1.21776 14.7761 0.5 13.913 0.5H9.21741C8.53716 0.5 7.95691 0.945816 7.74159 1.56666H6.08697C5.22391 1.56666 4.52175 2.28442 4.52175 3.16666C4.52175 4.05941 5.23041 4.76666 6.08697 4.76666H9.21741C9.89766 4.76666 10.4779 4.32084 10.6932 3.7H12.3025L11.8678 9.03334H10.4348V6.36669C10.4348 5.941 9.96947 5.6872 9.62366 5.92295L5.73912 8.57015V6.36666C5.73912 5.94103 5.27391 5.6871 4.928 5.92292L0.232344 9.12295C0.0871563 9.22185 0 9.38831 0 9.56666V15.9667C0 16.2612 0.233594 16.5 0.52175 16.5H15.4783C15.7664 16.5 16 16.2612 16 15.9667V9.56666C16 9.53222 15.6724 5.52575 15.4782 3.14445ZM14.9112 9.03334H12.9148L13.0018 7.96669H14.8243L14.9112 9.03334ZM14.7373 6.9H13.0887L13.1757 5.83334H14.6504L14.7373 6.9ZM14.5634 4.76666H13.2627L13.3497 3.7H14.4765L14.5634 4.76666ZM10.2609 2.63334C9.97275 2.63334 9.73913 2.87213 9.73913 3.16669C9.73913 3.46077 9.50506 3.70003 9.21737 3.70003H6.08697C5.798 3.70003 5.56522 3.46086 5.56522 3.16669C5.56522 2.87261 5.79928 2.63334 6.08697 2.63334H8.17394C8.46206 2.63334 8.69569 2.39456 8.69569 2.1C8.69569 1.80592 8.92975 1.56666 9.21744 1.56666H13.9131C14.2008 1.56666 14.4348 1.80592 14.4348 2.1V2.63334H12.8696H10.2609ZM14.9565 15.4333H1.04347V9.85208L4.69566 7.36319V9.56669C4.69566 9.99238 5.16097 10.2462 5.50678 10.0104L9.39131 7.36323V9.56672C9.39131 9.86125 9.62491 10.1001 9.91306 10.1001C10.0241 10.1001 14.8869 10.1001 14.9565 10.1001V15.4333Z" fill="black"/>
</g>
</g>
</svg>
