<svg width="25" height="25" viewBox="0 0 25 25" fill="none" xmlns="http://www.w3.org/2000/svg">
<path d="M18 23.5C18.3978 23.5 18.7794 23.342 19.0607 23.0607C19.342 22.7794 19.5 22.3978 19.5 22V16C19.5 15.6022 19.342 15.2206 19.0607 14.9393C18.7794 14.658 18.3978 14.5 18 14.5H9V13C9 12.6022 8.84196 12.2206 8.56066 11.9393C8.27936 11.658 7.89782 11.5 7.5 11.5H3C2.60218 11.5 2.22064 11.658 1.93934 11.9393C1.65804 12.2206 1.5 12.6022 1.5 13V22C1.5 22.3978 1.65804 22.7794 1.93934 23.0607C2.22064 23.342 2.60218 23.5 3 23.5H18Z" stroke="#2B2A28" stroke-width="1.71" stroke-linecap="round" stroke-linejoin="round"/>
<path d="M7.5 11.5V2.5C7.5 2.10218 7.65804 1.72064 7.93934 1.43934C8.22064 1.15804 8.60218 1 9 1H19.629C20.0265 1.00008 20.4078 1.15798 20.689 1.439L23.561 4.311C23.842 4.5922 23.9999 4.97345 24 5.371V19C24 19.3978 23.842 19.7794 23.5607 20.0607C23.2794 20.342 22.8978 20.5 22.5 20.5H19.5" stroke="#2B2A28" stroke-width="1.71" stroke-linecap="round" stroke-linejoin="round"/>
<path d="M12 5.5H19.5" stroke="#2B2A28" stroke-width="1.71" stroke-linecap="round" stroke-linejoin="round"/>
<path d="M12 10H19.5" stroke="#2B2A28" stroke-width="1.71" stroke-linecap="round" stroke-linejoin="round"/>
</svg>
