<svg width="17" height="16" viewBox="0 0 17 16" fill="none" xmlns="http://www.w3.org/2000/svg">
<g clip-path="url(#clip0_2375_36044)">
<path d="M3.88663 8H1.33997" stroke="#8E8E93" stroke-linecap="round" stroke-linejoin="round"/>
<path d="M15.6587 8H7.17065" stroke="#8E8E93" stroke-linecap="round" stroke-linejoin="round"/>
<path d="M9.82937 13.4114H1.3407" stroke="#8E8E93" stroke-linecap="round" stroke-linejoin="round"/>
<path d="M15.6586 13.4114H13.1133" stroke="#8E8E93" stroke-linecap="round" stroke-linejoin="round"/>
<path d="M9.82937 2.68188H1.3407" stroke="#8E8E93" stroke-linecap="round" stroke-linejoin="round"/>
<path d="M15.6586 2.68188H13.1133" stroke="#8E8E93" stroke-linecap="round" stroke-linejoin="round"/>
<path d="M3.88672 8.00138C3.88672 8.21701 3.92919 8.43053 4.01171 8.62974C4.09423 8.82896 4.21518 9.00997 4.36765 9.16244C4.52012 9.31492 4.70114 9.43587 4.90035 9.51839C5.09957 9.6009 5.31309 9.64338 5.52872 9.64338C5.74435 9.64338 5.95787 9.6009 6.15708 9.51839C6.3563 9.43587 6.53731 9.31492 6.68979 9.16244C6.84226 9.00997 6.96321 8.82896 7.04573 8.62974C7.12825 8.43053 7.17072 8.21701 7.17072 8.00138C7.17072 7.78574 7.12825 7.57223 7.04573 7.37301C6.96321 7.17379 6.84226 6.99278 6.68979 6.84031C6.53731 6.68783 6.3563 6.56688 6.15708 6.48436C5.95787 6.40185 5.74435 6.35938 5.52872 6.35938C5.31309 6.35938 5.09957 6.40185 4.90035 6.48436C4.70114 6.56688 4.52012 6.68783 4.36765 6.84031C4.21518 6.99278 4.09423 7.17379 4.01171 7.37301C3.92919 7.57223 3.88672 7.78574 3.88672 8.00138Z" stroke="#8E8E93"/>
<path d="M9.82935 13.4128C9.82935 13.8482 10.0023 14.2659 10.3103 14.5738C10.6182 14.8818 11.0359 15.0548 11.4713 15.0548C11.9068 15.0548 12.3245 14.8818 12.6324 14.5738C12.9403 14.2659 13.1133 13.8482 13.1133 13.4128C13.1133 12.9773 12.9403 12.5596 12.6324 12.2517C12.3245 11.9437 11.9068 11.7708 11.4713 11.7708C11.0359 11.7708 10.6182 11.9437 10.3103 12.2517C10.0023 12.5596 9.82935 12.9773 9.82935 13.4128Z" stroke="#8E8E93"/>
<path d="M9.82935 2.59C9.82935 3.02548 10.0023 3.44313 10.3103 3.75107C10.6182 4.059 11.0359 4.232 11.4713 4.232C11.9068 4.232 12.3245 4.059 12.6324 3.75107C12.9403 3.44313 13.1133 3.02548 13.1133 2.59C13.1133 2.15451 12.9403 1.73686 12.6324 1.42893C12.3245 1.12099 11.9068 0.947998 11.4713 0.947998C11.0359 0.947998 10.6182 1.12099 10.3103 1.42893C10.0023 1.73686 9.82935 2.15451 9.82935 2.59Z" stroke="#8E8E93"/>
</g>
<defs>
<clipPath id="clip0_2375_36044">
<rect width="16" height="16" fill="white" transform="translate(0.5)"/>
</clipPath>
</defs>
</svg>
