<svg width="38" height="38" viewBox="0 0 38 38" fill="none" xmlns="http://www.w3.org/2000/svg">
<path d="M4.80635 20.716L4.46643 21.1906H5.05026H21.3169H21.9008L21.5608 20.716C20.5859 19.3545 19.0754 18.4927 17.5339 17.971C15.9901 17.4486 14.3861 17.2573 13.1836 17.2573C11.9811 17.2573 10.3771 17.4486 8.83327 17.971C7.29174 18.4927 5.78132 19.3545 4.80635 20.716ZM28.7169 7.55729V7.85729H29.0169H37.0188L34.3021 35.0741C34.1514 36.2971 33.1226 37.2573 31.8836 37.2573H29.3169V34.524H31.3336H31.6051L31.6321 34.2538L33.9654 10.9205L33.9984 10.5906H33.6669H18.0011L17.6867 7.85729H25.6836H25.9836V7.55729V1.19063H28.7169V7.55729ZM2.35026 37.2573C1.60122 37.2573 0.983594 36.6269 0.983594 35.8906V34.524H25.3836V35.8906C25.3836 36.6289 24.7807 37.2573 24.0169 37.2573H2.35026ZM0.987984 23.924C1.07849 20.8483 2.56108 18.5347 4.7637 16.9684C7.04629 15.3453 10.1068 14.524 13.1836 14.524C16.2604 14.524 19.3209 15.3453 21.6035 16.9684C23.8061 18.5347 25.2887 20.8483 25.3792 23.924H0.987984ZM25.3836 27.8573V30.5906H0.983594V27.8573H25.3836Z" fill="#A79F92" stroke="white" stroke-width="0.6"/>
</svg>
