<svg width="14" height="14" viewBox="0 0 14 14" fill="none" xmlns="http://www.w3.org/2000/svg">
<path id="Vector" d="M4.2208 1.41196C4.2208 1.41196 4.42037 1.32575 4.81953 1.15335C5.21869 0.980943 5.85303 0.89474 6.72255 0.89474C7.59208 0.89474 8.42599 1.06715 9.22431 1.41196C10.0226 1.75677 10.7122 2.21964 11.2932 2.80057C11.8741 3.38151 12.337 4.07113 12.6818 4.86944C13.0266 5.66776 13.199 6.50167 13.199 7.3712C13.199 8.24072 13.0266 9.07464 12.6818 9.87295C12.337 10.6713 11.8741 11.3609 11.2932 11.9418C10.7122 12.5228 10.0226 12.9856 9.22431 13.3304C8.42599 13.6753 7.59208 13.8477 6.72255 13.8477C5.85303 13.8477 5.01911 13.6753 4.2208 13.3304C3.42248 12.9856 2.73286 12.5228 2.15193 11.9418C1.57099 11.3609 1.10812 10.6713 0.763311 9.87295C0.418499 9.07464 0.246094 8.24072 0.246094 7.3712C0.246094 6.50167 0.418499 5.66776 0.763311 4.86944C1.10812 4.07113 1.57099 3.38151 2.15193 2.80057C2.73286 2.21964 3.42248 1.75677 4.2208 1.41196ZM7.02614 1.73803C6.9137 1.82798 6.7769 1.90481 6.61574 1.96853C6.45457 2.03224 6.32152 2.07722 6.21658 2.10345C6.11164 2.12969 5.95047 2.15967 5.73309 2.19341C5.51571 2.22714 5.36954 2.2515 5.29458 2.26649C5.18214 2.28898 5.01161 2.28898 4.78299 2.26649C4.55436 2.244 4.38383 2.2515 4.27139 2.28898C4.12147 2.34145 3.92845 2.44077 3.69233 2.58694C3.45621 2.73311 3.32691 2.86241 3.30442 2.97485C3.28193 3.05731 3.3063 3.14164 3.37751 3.22784C3.44872 3.31404 3.48057 3.38338 3.47308 3.43585C3.45059 3.69071 3.34752 4.03177 3.16387 4.45904C2.98022 4.88631 2.86966 5.18239 2.83218 5.34731C2.76472 5.60217 2.78346 5.95073 2.8884 6.39298C2.99334 6.83524 3.02332 7.16131 2.97835 7.3712C2.97835 7.43866 3.04206 7.60544 3.1695 7.87155C3.29693 8.13765 3.35689 8.36066 3.3494 8.54056C3.43935 8.54056 3.52555 8.5593 3.60801 8.59678C3.69046 8.63426 3.77854 8.69048 3.87224 8.76544C3.96593 8.84039 4.03902 8.89287 4.09149 8.92285C4.21143 8.98282 4.33511 9.03904 4.46254 9.09151C4.58997 9.14398 4.74176 9.2002 4.91791 9.26017C5.09407 9.32013 5.22337 9.36511 5.30583 9.39509C5.46324 9.46255 5.66001 9.58249 5.89613 9.75489C6.13225 9.9273 6.35713 10.0697 6.57076 10.1822C6.78439 10.2946 6.9999 10.3358 7.21728 10.3058C7.26975 10.4183 7.25851 10.5457 7.18355 10.6881C7.10859 10.8306 7.02426 10.9805 6.93056 11.1379C6.83686 11.2953 6.80126 11.4377 6.82375 11.5652C6.92119 11.7226 7.0074 11.8519 7.08236 11.9531C7.15731 12.0543 7.26038 12.1573 7.39156 12.2623C7.52274 12.3672 7.65954 12.4347 7.80196 12.4647C7.80196 12.5171 7.78884 12.5771 7.76261 12.6446C7.73637 12.712 7.72325 12.7645 7.72325 12.802C7.72325 12.8395 7.74199 12.9032 7.77947 12.9931C8.55905 13.0081 9.38734 12.5883 10.2644 11.7338C10.4892 11.5164 10.6635 11.3403 10.7872 11.2054C10.9109 11.0704 11.0402 10.8868 11.1751 10.6544C11.31 10.422 11.3888 10.1859 11.4112 9.94604C11.3138 9.88607 11.1751 9.85422 10.9952 9.85047C10.8153 9.84672 10.6804 9.81861 10.5904 9.76614C10.478 9.71367 10.2925 9.65745 10.0339 9.59748C9.77526 9.53751 9.58224 9.4663 9.45481 9.38385C9.31988 9.38385 9.16622 9.38572 8.99381 9.38947C8.8214 9.39322 8.66024 9.39884 8.51032 9.40634C8.36041 9.41383 8.20299 9.43819 8.03808 9.47942C7.87317 9.52065 7.73075 9.58249 7.61082 9.66494C7.22853 9.9273 6.98116 9.97228 6.86872 9.79987C6.83874 9.79237 6.82562 9.6968 6.82937 9.51315C6.83312 9.3295 6.83499 9.23393 6.83499 9.22643C6.79002 9.12899 6.69069 9.0634 6.53703 9.02967C6.38336 8.99593 6.29154 8.97157 6.26155 8.95658C6.26905 8.84414 6.26718 8.72983 6.25593 8.61364C6.24469 8.49746 6.21845 8.39251 6.17723 8.29882C6.136 8.20512 6.06666 8.16202 5.96921 8.16951C5.87177 8.17701 5.75558 8.25571 5.62065 8.40563C5.44825 8.59303 5.29083 8.57804 5.14841 8.36066C5.00599 8.15077 4.97601 7.93339 5.05846 7.70851C5.10344 7.58858 5.18589 7.50612 5.30583 7.46115C5.3508 7.46864 5.44825 7.47427 5.59817 7.47801C5.74809 7.48176 5.87364 7.49675 5.97484 7.52299C6.07603 7.54923 6.14912 7.59982 6.19409 7.67478C6.24656 7.76473 6.31403 7.85468 6.39648 7.94463C6.47894 8.03459 6.55952 8.11142 6.63822 8.17513C6.71693 8.23885 6.79189 8.29507 6.8631 8.34379C6.93431 8.39251 6.9924 8.43187 7.03738 8.46185L7.0936 8.49558C7.10859 8.40563 7.1367 8.29132 7.17793 8.15265C7.21916 8.01397 7.24914 7.88467 7.26788 7.76473C7.28662 7.6448 7.28474 7.52486 7.26226 7.40493C7.23977 7.27 7.25289 7.16131 7.30161 7.07886C7.35033 6.9964 7.4178 6.91207 7.504 6.82587C7.5902 6.73967 7.6483 6.64784 7.67828 6.5504C7.72325 6.44545 7.76261 6.31428 7.79634 6.15686C7.83007 5.99945 7.86005 5.88326 7.88629 5.8083C7.91253 5.73334 7.97062 5.64901 8.06057 5.55532C8.15052 5.46162 8.27795 5.37729 8.44286 5.30233C8.39789 5.1674 8.43536 5.03248 8.5553 4.89755C8.61527 4.89755 8.70522 4.90317 8.82515 4.91442C8.94509 4.92566 9.03691 4.93128 9.10063 4.93128C9.16434 4.93128 9.2393 4.91442 9.3255 4.88068C9.41171 4.84695 9.48854 4.78886 9.556 4.70641C9.48104 4.534 9.36486 4.37471 9.20744 4.22854C9.05003 4.08237 8.90948 3.97181 8.7858 3.89685C8.66212 3.82189 8.47847 3.72069 8.23485 3.59326C7.99123 3.46583 7.8282 3.37963 7.74574 3.33466C7.74574 3.32716 7.75324 3.29718 7.76823 3.24471C7.78322 3.19223 7.79447 3.14913 7.80196 3.1154C7.80946 3.08167 7.81508 3.04232 7.81883 2.99734C7.82258 2.95236 7.81883 2.91676 7.80758 2.89052C7.79634 2.86429 7.77947 2.84742 7.75699 2.83993C7.98936 2.93737 8.20861 2.99172 8.41475 3.00296C8.62089 3.01421 8.76518 3.00484 8.84764 2.97485L8.98257 2.91863C9.02005 2.70875 8.98444 2.53634 8.87575 2.40142C8.76706 2.26649 8.63026 2.17654 8.46535 2.13156C8.30044 2.08659 8.11304 2.03037 7.90316 1.96291C7.69327 1.89544 7.53961 1.82048 7.44216 1.73803C7.30723 1.76801 7.16856 1.76801 7.02614 1.73803ZM6.86872 2.94112C6.86872 3.06855 6.89871 3.22597 6.95867 3.41336C7.01864 3.60076 7.08236 3.76942 7.14982 3.91934C7.21728 4.06925 7.25101 4.15546 7.25101 4.17794C7.19105 4.17045 7.043 4.14983 6.80688 4.1161C6.57076 4.08237 6.37399 4.04489 6.21658 4.00366C6.05916 3.96244 5.92049 3.9006 5.80056 3.81814C5.82304 3.73569 5.88301 3.62512 5.98046 3.48645C6.0779 3.34777 6.13787 3.2522 6.16036 3.19973C6.23532 3.27469 6.30653 3.31217 6.37399 3.31217C6.44146 3.31217 6.49393 3.28968 6.53141 3.24471C6.56889 3.19973 6.61948 3.14538 6.6832 3.08167C6.74691 3.01795 6.80875 2.9711 6.86872 2.94112Z" fill="#1C190E"/>
</svg>
