<svg width="32" height="31" viewBox="0 0 32 31" fill="none" xmlns="http://www.w3.org/2000/svg">
<path d="M28.4141 12.969H27.3737V12.9154H15.7487V18.082H23.0486C21.9836 21.0897 19.1219 23.2487 15.7487 23.2487C11.4688 23.2487 7.9987 19.7786 7.9987 15.4987C7.9987 11.2188 11.4688 7.7487 15.7487 7.7487C17.7243 7.7487 19.5217 8.49399 20.8902 9.71139L24.5437 6.05791C22.2367 3.90793 19.1509 2.58203 15.7487 2.58203C8.61547 2.58203 2.83203 8.36547 2.83203 15.4987C2.83203 22.6319 8.61547 28.4154 15.7487 28.4154C22.8819 28.4154 28.6654 22.6319 28.6654 15.4987C28.6654 14.6326 28.5762 13.7872 28.4141 12.969Z" fill="#FFC107"/>
<path d="M4.32422 9.48664L8.56799 12.5989C9.71628 9.75595 12.4972 7.7487 15.7516 7.7487C17.7272 7.7487 19.5246 8.49399 20.8931 9.71138L24.5466 6.05791C22.2396 3.90793 19.1538 2.58203 15.7516 2.58203C10.7903 2.58203 6.48776 5.38301 4.32422 9.48664Z" fill="#FF3D00"/>
<path d="M15.7491 28.4156C19.0854 28.4156 22.117 27.1388 24.409 25.0625L20.4113 21.6796C19.0709 22.699 17.433 23.2503 15.7491 23.249C12.3894 23.249 9.53679 21.1068 8.46212 18.1172L4.25 21.3625C6.38771 25.5456 10.729 28.4156 15.7491 28.4156Z" fill="#4CAF50"/>
<path d="M28.4154 12.9716H27.375V12.918H15.75V18.0846H23.0499C22.5404 19.5161 21.6228 20.7669 20.4103 21.6826L20.4123 21.6813L24.41 25.0642C24.1271 25.3212 28.6667 21.9596 28.6667 15.5013C28.6667 14.6352 28.5775 13.7898 28.4154 12.9716Z" fill="#1976D2"/>
</svg>
