<svg width="26" height="26" viewBox="0 0 26 26" fill="none" xmlns="http://www.w3.org/2000/svg">
<g id="google-play 1" clip-path="url(#clip0_4731_1929)">
<g id="Group">
<path id="Vector" fill-rule="evenodd" clip-rule="evenodd" d="M19.25 25.6016H6.75C5.92921 25.6017 5.11645 25.4401 4.35812 25.126C3.59979 24.8119 2.91076 24.3516 2.33038 23.7712C1.74999 23.1908 1.28962 22.5018 0.975565 21.7434C0.661506 20.9851 0.499908 20.1723 0.5 19.3516V6.85156C0.499908 6.03077 0.661506 5.21801 0.975565 4.45968C1.28962 3.70136 1.74999 3.01232 2.33038 2.43194C2.91076 1.85155 3.59979 1.39119 4.35812 1.07713C5.11645 0.763068 5.92921 0.60147 6.75 0.601563H19.25C20.0708 0.60147 20.8836 0.763068 21.6419 1.07713C22.4002 1.39119 23.0892 1.85155 23.6696 2.43194C24.25 3.01232 24.7104 3.70136 25.0244 4.45968C25.3385 5.21801 25.5001 6.03077 25.5 6.85156V19.3516C25.5001 20.1723 25.3385 20.9851 25.0244 21.7434C24.7104 22.5018 24.25 23.1908 23.6696 23.7712C23.0892 24.3516 22.4002 24.8119 21.6419 25.126C20.8836 25.4401 20.0708 25.6017 19.25 25.6016Z" fill="#2D2D2D"/>
<path id="Vector_2" fill-rule="evenodd" clip-rule="evenodd" d="M12.2188 7.63281H19.25C20.1513 7.63276 21.0181 7.28658 21.6715 6.66578C22.3249 6.04499 22.7149 5.19697 22.761 4.29688C22.8072 3.39678 22.5059 2.51334 21.9193 1.82901C21.3328 1.14468 20.5059 0.711712 19.6094 0.619531C19.4883 0.612891 19.3711 0.601563 19.25 0.601563H6.75C5.92921 0.60147 5.11645 0.763068 4.35812 1.07713C3.59979 1.39119 2.91076 1.85155 2.33038 2.43194C1.74999 3.01232 1.28962 3.70136 0.975565 4.45968C0.661506 5.21801 0.499908 6.03077 0.5 6.85156V19.3516C0.5 16.2436 1.73465 13.2628 3.93234 11.0652C6.13003 8.86746 9.11074 7.63281 12.2188 7.63281Z" fill="#464646"/>
<path id="Vector_3" fill-rule="evenodd" clip-rule="evenodd" d="M19.25 13.1016C18.0139 13.1016 16.8055 13.4681 15.7777 14.1549C14.7499 14.8416 13.9488 15.8178 13.4758 16.9598C13.0027 18.1018 12.8789 19.3585 13.1201 20.5709C13.3613 21.7833 13.9565 22.8969 14.8306 23.771C15.7047 24.6451 16.8183 25.2403 18.0307 25.4815C19.2431 25.7226 20.4997 25.5989 21.6418 25.1258C22.7838 24.6528 23.7599 23.8517 24.4467 22.8239C25.1334 21.7961 25.5 20.5877 25.5 19.3516V6.85156C25.5001 7.67235 25.3385 8.48512 25.0244 9.24344C24.7104 10.0018 24.25 10.6908 23.6696 11.2712C23.0892 11.8516 22.4002 12.3119 21.6419 12.626C20.8836 12.9401 20.0708 13.1017 19.25 13.1016Z" fill="#141414"/>
<path id="Vector_4" fill-rule="evenodd" clip-rule="evenodd" d="M7.67188 6.21096C7.73661 6.11411 7.8237 6.03426 7.92578 5.97814C8.04479 5.90978 8.17979 5.87419 8.31704 5.87501C8.45428 5.87584 8.58885 5.91304 8.70703 5.98283L16.8789 10.7879C16.8789 10.7879 15.4687 13.1492 14.8477 14.1863C14.8156 14.2399 14.7713 14.285 14.7183 14.318C14.6653 14.3509 14.6052 14.3708 14.543 14.3758C14.4802 14.3808 14.4172 14.3704 14.3593 14.3456C14.3015 14.3207 14.2505 14.2822 14.2109 14.2332C12.8047 12.5082 7.67188 6.21096 7.67188 6.21096Z" fill="#00FF64"/>
<path id="Vector_5" fill-rule="evenodd" clip-rule="evenodd" d="M16.8807 10.7891L19.6698 12.4305C19.7875 12.4991 19.8852 12.5974 19.953 12.7156C20.0209 12.8338 20.0566 12.9676 20.0566 13.1039C20.0566 13.2402 20.0209 13.3741 19.953 13.4922C19.8852 13.6104 19.7875 13.7087 19.6698 13.7773L16.8807 15.4187H15.5214C15.2535 15.4182 14.9918 15.3384 14.7692 15.1893C14.5467 15.0402 14.3733 14.8285 14.2709 14.581C14.1685 14.3334 14.1418 14.0611 14.194 13.7984C14.2462 13.5356 14.3751 13.2943 14.5643 13.1047L16.8807 10.7891Z" fill="#FFC800"/>
<path id="Vector_6" fill-rule="evenodd" clip-rule="evenodd" d="M16.8789 15.4169L8.70703 20.2219C8.58885 20.2917 8.45428 20.3289 8.31704 20.3298C8.17979 20.3306 8.04479 20.295 7.92578 20.2266C7.8237 20.1705 7.73661 20.0907 7.67188 19.9938C7.67188 19.9938 11.4961 15.1903 13.0938 13.1844C13.1803 13.0758 13.2887 12.9866 13.4121 12.9228C13.5354 12.859 13.6708 12.8219 13.8095 12.8141C13.9482 12.8062 14.0869 12.8277 14.2167 12.8772C14.3464 12.9267 14.4643 13.003 14.5625 13.1012V13.102L16.8789 15.4169Z" fill="#FF003C"/>
<path id="Vector_7" fill-rule="evenodd" clip-rule="evenodd" d="M14.5625 13.1027L7.67188 19.9945C7.58044 19.864 7.53134 19.7086 7.53125 19.5492V6.65625C7.53134 6.4969 7.58044 6.34144 7.67188 6.21094L14.5625 13.1027Z" fill="#00D2FF"/>
</g>
</g>
<defs>
<clipPath id="clip0_4731_1929">
<rect width="25" height="25" fill="white" transform="translate(0.5 0.601562)"/>
</clipPath>
</defs>
</svg>
