<svg width="16" height="17" viewBox="0 0 16 17" fill="none" xmlns="http://www.w3.org/2000/svg">
<g opacity="0.7">
<path d="M15.9776 9.55362C15.9775 9.55352 15.9775 9.55348 15.9775 9.55339L12.9566 0.730378C12.8925 0.542912 12.7098 0.451394 12.5487 0.525969C12.5485 0.526015 12.5484 0.526061 12.5483 0.526152L0.293041 6.20247C0.243062 6.22759 0.199719 6.26768 0.167407 6.31865C0.0654866 6.38026 0.0010993 6.50219 0 6.63577V16.1347C0 16.3364 0.140631 16.5 0.314085 16.5H13.5056C13.6791 16.5 13.8197 16.3364 13.8197 16.1347V10.9468L15.8022 10.0283C15.9633 9.95357 16.0418 9.74104 15.9776 9.55362ZM13.1916 15.7693H0.628169V7.00111H13.1916V15.7693ZM5.2405 6.27225L10.4995 3.83469C10.9689 4.40855 11.6192 4.73471 12.3002 4.73781L12.8247 6.27225H5.2405ZM13.8197 10.162V6.63577C13.8197 6.43401 13.6791 6.27042 13.5056 6.27042H13.5006L12.8351 4.32607C12.8277 4.30986 12.8191 4.29443 12.8093 4.28004C12.7756 4.10408 12.6355 3.98402 12.4811 3.99873C11.8475 4.0659 11.2277 3.75546 10.8343 3.17379C10.7365 3.03327 10.5644 2.99833 10.4314 3.09195C10.4165 3.094 10.4017 3.0972 10.3871 3.10145L3.96657 6.07533C3.88888 6.11077 3.82673 6.18105 3.79414 6.27042H1.8443L12.4893 1.34013L15.278 9.48543L13.8197 10.162Z" fill="#2B2A28"/>
<path d="M1.47816 13.3025C2.08796 13.5122 2.56513 14.0666 2.74612 14.7756C2.78581 14.9304 2.90819 15.0364 3.04701 15.0365C3.06331 15.0353 3.07948 15.0324 3.09538 15.0281C3.10948 15.0327 3.12389 15.0361 3.13841 15.0383H10.6764C10.6894 15.0363 10.7022 15.0333 10.7148 15.0292C10.8717 15.0735 11.0298 14.9616 11.068 14.7791C11.0681 14.7784 11.0683 14.7778 11.0684 14.7771C11.2489 14.0673 11.7262 13.5122 12.3364 13.3022C12.4844 13.2496 12.5763 13.078 12.5518 12.9003C12.556 12.8826 12.5591 12.8645 12.561 12.8462V9.9235C12.5591 9.90518 12.556 9.8871 12.5515 9.86943C12.5761 9.69164 12.4842 9.52002 12.3361 9.46755C11.7259 9.25762 11.2487 8.70225 11.0687 7.9923C11.0233 7.81899 10.8744 7.71176 10.7207 7.74167C10.7062 7.73697 10.6914 7.73355 10.6764 7.73145H3.13841C3.12259 7.73364 3.10693 7.73729 3.09161 7.74241C2.93885 7.71409 2.79147 7.821 2.74612 7.99303C2.56548 8.70266 2.08827 9.25762 1.47816 9.46755C1.33019 9.52016 1.23824 9.69169 1.2627 9.86943C1.25862 9.88719 1.25567 9.90523 1.25391 9.9235V12.8462C1.25571 12.8634 1.25866 12.8804 1.2627 12.897C1.23695 13.0759 1.32909 13.2493 1.47816 13.3025ZM1.88208 10.0718C2.51276 9.77718 3.01262 9.19574 3.26593 8.46213H10.5486C10.802 9.19574 11.302 9.77718 11.9328 10.0718V12.6979C11.3023 12.9929 10.8025 13.5742 10.5489 14.3076H3.26593C3.01235 13.5742 2.51256 12.9929 1.88208 12.6979V10.0718Z" fill="#2B2A28"/>
<path d="M6.91185 13.5775C7.95265 13.5775 8.79636 12.5961 8.79636 11.3854C8.79636 10.1748 7.95265 9.19336 6.91185 9.19336C5.87105 9.19336 5.02734 10.1748 5.02734 11.3854C5.02836 12.5956 5.87149 13.5763 6.91185 13.5775ZM6.91185 9.92404C7.6057 9.92404 8.16819 10.5783 8.16819 11.3854C8.16819 12.1925 7.6057 12.8468 6.91185 12.8468C6.218 12.8468 5.65551 12.1925 5.65551 11.3854C5.65551 10.5783 6.218 9.92404 6.91185 9.92404Z" fill="#2B2A28"/>
<path d="M3.4555 11.9329C3.71568 11.9329 3.92663 11.6876 3.92663 11.3849C3.92663 11.0823 3.71568 10.8369 3.4555 10.8369C3.19532 10.8369 2.98438 11.0823 2.98438 11.3849C2.98438 11.6876 3.19532 11.9329 3.4555 11.9329ZM3.4555 11.2023C3.54223 11.2023 3.61254 11.284 3.61254 11.3849C3.61254 11.4858 3.54223 11.5676 3.4555 11.5676C3.36878 11.5676 3.29846 11.4858 3.29846 11.3849C3.29846 11.284 3.36878 11.2023 3.4555 11.2023Z" fill="#2B2A28"/>
<path d="M10.3657 11.9329C10.6258 11.9329 10.8368 11.6876 10.8368 11.3849C10.8368 11.0823 10.6258 10.8369 10.3657 10.8369C10.1055 10.8369 9.89453 11.0823 9.89453 11.3849C9.89453 11.6876 10.1055 11.9329 10.3657 11.9329ZM10.3657 11.2023C10.4524 11.2023 10.5227 11.284 10.5227 11.3849C10.5227 11.4858 10.4524 11.5676 10.3657 11.5676C10.2789 11.5676 10.2086 11.4858 10.2086 11.3849C10.2086 11.284 10.2789 11.2023 10.3657 11.2023Z" fill="#2B2A28"/>
</g>
</svg>
