<svg width="64" height="64" viewBox="0 0 64 64" fill="none" xmlns="http://www.w3.org/2000/svg">
<g id="smile 1" clip-path="url(#clip0_3585_26566)">
<g id="Group">
<g id="Group_2">
<g id="Group_3">
<path id="Vector" d="M32 0C14.3555 0 0 14.3555 0 32C0 49.6445 14.3555 64 32 64C49.6445 64 64 49.6445 64 32C64 14.3555 49.6445 0 32 0ZM32 61.2174C15.8887 61.2174 2.78261 48.1113 2.78261 32C2.78261 15.8887 15.8887 2.78261 32 2.78261C48.1113 2.78261 61.2174 15.8887 61.2174 32C61.2174 48.1113 48.1113 61.2174 32 61.2174Z" fill="#159F1A"/>
<path id="Vector_2" d="M25.0431 26.4317C25.0431 24.1305 23.1704 22.2578 20.8692 22.2578C18.568 22.2578 16.6953 24.1305 16.6953 26.4317C16.6953 28.7329 18.568 30.6056 20.8692 30.6056C23.1704 30.6056 25.0431 28.7329 25.0431 26.4317ZM19.4779 26.4317C19.4779 25.6651 20.1026 25.0404 20.8692 25.0404C21.6358 25.0404 22.2605 25.6651 22.2605 26.4317C22.2605 27.1983 21.6358 27.823 20.8692 27.823C20.1026 27.823 19.4779 27.1983 19.4779 26.4317Z" fill="#159F1A"/>
<path id="Vector_3" d="M43.1309 22.2578C40.8297 22.2578 38.957 24.1305 38.957 26.4317C38.957 28.7329 40.8297 30.6056 43.1309 30.6056C45.4322 30.6056 47.3049 28.7329 47.3049 26.4317C47.3049 24.1305 45.4322 22.2578 43.1309 22.2578ZM43.1309 27.823C42.3643 27.823 41.7396 27.1983 41.7396 26.4317C41.7396 25.6651 42.3643 25.0404 43.1309 25.0404C43.8976 25.0404 44.5222 25.6651 44.5222 26.4317C44.5222 27.1983 43.8976 27.823 43.1309 27.823Z" fill="#159F1A"/>
<path id="Vector_4" d="M45.4487 39.308C44.8755 38.7946 43.9948 38.8447 43.4842 39.4165C40.5819 42.6596 36.3969 44.5184 31.999 44.5184C27.6025 44.5184 23.416 42.6596 20.5138 39.4165C20.0004 38.8447 19.1225 38.7946 18.5493 39.308C17.976 39.82 17.9287 40.6993 18.4407 41.2725C21.8703 45.1042 26.8122 47.301 31.999 47.301C37.1872 47.301 42.1291 45.1028 45.5572 41.2725C46.0692 40.6993 46.0206 39.82 45.4487 39.308Z" fill="#159F1A"/>
</g>
</g>
</g>
</g>
<defs>
<clipPath id="clip0_3585_26566">
<rect width="64" height="64" fill="white"/>
</clipPath>
</defs>
</svg>
