<svg width="14" height="15" viewBox="0 0 14 15" fill="none" xmlns="http://www.w3.org/2000/svg">
<path d="M13.4219 3.93126C13.2124 3.44632 12.9104 3.00687 12.5328 2.63751C12.1549 2.26705 11.7093 1.97265 11.2203 1.77032C10.7132 1.55969 10.1694 1.45187 9.62031 1.45314C8.85 1.45314 8.09844 1.66407 7.44531 2.06251C7.28906 2.15782 7.14063 2.26251 7 2.37657C6.85938 2.26251 6.71094 2.15782 6.55469 2.06251C5.90156 1.66407 5.15 1.45314 4.37969 1.45314C3.825 1.45314 3.2875 1.55939 2.77969 1.77032C2.28906 1.97345 1.84688 2.26564 1.46719 2.63751C1.08906 3.00645 0.786997 3.44601 0.578125 3.93126C0.360938 4.43595 0.25 4.97189 0.25 5.52345C0.25 6.04376 0.35625 6.58595 0.567188 7.13751C0.74375 7.59845 0.996875 8.07657 1.32031 8.55939C1.83281 9.32345 2.5375 10.1203 3.4125 10.9281C4.8625 12.2672 6.29844 13.1922 6.35938 13.2297L6.72969 13.4672C6.89375 13.5719 7.10469 13.5719 7.26875 13.4672L7.63906 13.2297C7.7 13.1906 9.13438 12.2672 10.5859 10.9281C11.4609 10.1203 12.1656 9.32345 12.6781 8.55939C13.0016 8.07657 13.2563 7.59845 13.4313 7.13751C13.6422 6.58595 13.7484 6.04376 13.7484 5.52345C13.75 4.97189 13.6391 4.43595 13.4219 3.93126ZM7 12.2313C7 12.2313 1.4375 8.6672 1.4375 5.52345C1.4375 3.93126 2.75469 2.64064 4.37969 2.64064C5.52188 2.64064 6.5125 3.27814 7 4.20939C7.4875 3.27814 8.47813 2.64064 9.62031 2.64064C11.2453 2.64064 12.5625 3.93126 12.5625 5.52345C12.5625 8.6672 7 12.2313 7 12.2313Z" fill="#8E8E93"/>
</svg>
