<svg width="25" height="20" viewBox="0 0 25 20" fill="none" xmlns="http://www.w3.org/2000/svg">
<g id="Group">
<path id="Vector" d="M3.52734 19L22.2773 1" stroke="#C6C6C3" stroke-width="1.71" stroke-linecap="round" stroke-linejoin="round"/>
<path id="Vector_2" d="M9.75 17.0499C10.721 17.353 11.7328 17.5047 12.75 17.4999C16.85 17.5699 21.01 14.6899 23.57 11.8599C23.8462 11.5562 23.9992 11.1604 23.9992 10.7499C23.9992 10.3394 23.8462 9.94361 23.57 9.63988C22.6443 8.61675 21.6155 7.69186 20.5 6.87988" stroke="#C6C6C3" stroke-width="1.71" stroke-linecap="round" stroke-linejoin="round"/>
<path id="Vector_3" d="M17.8392 5.2703C16.2655 4.45389 14.5219 4.01885 12.7492 4.0003C8.74918 3.9303 4.54918 6.7503 1.92918 9.6403C1.65302 9.94403 1.5 10.3398 1.5 10.7503C1.5 11.1608 1.65302 11.5566 1.92918 11.8603C3.34906 13.4476 5.01336 14.798 6.85918 15.8603" stroke="#C6C6C3" stroke-width="1.71" stroke-linecap="round" stroke-linejoin="round"/>
<path id="Vector_4" d="M9.75025 13.07C9.20777 12.3174 8.95529 11.3943 9.03924 10.4703C9.1232 9.54642 9.53795 8.68389 10.2072 8.04141C10.8764 7.39893 11.7552 7.01972 12.6818 6.97353C13.6083 6.92734 14.5204 7.21727 15.2502 7.79001" stroke="#C6C6C3" stroke-width="1.71" stroke-linecap="round" stroke-linejoin="round"/>
<path id="Vector_5" d="M16.5 10.75C16.5 11.2425 16.403 11.7301 16.2145 12.1851C16.0261 12.64 15.7499 13.0534 15.4017 13.4017C15.0534 13.7499 14.64 14.0261 14.1851 14.2145C13.7301 14.403 13.2425 14.5 12.75 14.5" stroke="#C6C6C3" stroke-width="1.71" stroke-linecap="round" stroke-linejoin="round"/>
</g>
</svg>
