<svg width="16" height="20" viewBox="0 0 16 20" fill="none" xmlns="http://www.w3.org/2000/svg">
<path d="M6 6.41114V11.9111M10 7.91114V13.4111M10.3353 15.7431L13.5853 14.1185C13.8393 13.9918 14 13.7318 14 13.4478V5.12447C14 4.56714 13.4133 4.20447 12.9147 4.45381L10.3353 5.74314C10.124 5.84914 9.87533 5.84914 9.66467 5.74314L6.33533 4.07914C6.23121 4.0271 6.1164 4 6 4C5.8836 4 5.76879 4.0271 5.66467 4.07914L2.41467 5.70381C2.16 5.83114 2 6.09114 2 6.37447V14.6978C2 15.2551 2.58667 15.6178 3.08533 15.3685L5.66467 14.0791C5.876 13.9731 6.12467 13.9731 6.33533 14.0791L9.66467 15.7438C9.876 15.8491 10.1247 15.8491 10.3353 15.7438V15.7431Z" stroke="#2B2A28" stroke-opacity="0.7" stroke-linecap="round" stroke-linejoin="round"/>
</svg>
