<svg width="48" height="48" viewBox="0 0 48 48" fill="none" xmlns="http://www.w3.org/2000/svg">
<path d="M24 0C10.7341 0 0 10.735 0 24C0 37.2659 10.735 48 24 48C37.2659 48 48 37.265 48 24C48 10.7341 37.265 0 24 0ZM24 44.25C12.8069 44.25 3.75 35.1923 3.75 24C3.75 12.8069 12.8077 3.75 24 3.75C35.1931 3.75 44.25 12.8077 44.25 24C44.25 35.1931 35.1923 44.25 24 44.25Z" fill="#BC8A55"/>
<path d="M24 12.0781C22.9644 12.0781 22.125 12.9176 22.125 13.9531V26.0275C22.125 27.063 22.9644 27.9025 24 27.9025C25.0356 27.9025 25.875 27.063 25.875 26.0275V13.9531C25.875 12.9176 25.0356 12.0781 24 12.0781Z" fill="#BC8A55"/>
<path d="M24 35.2578C25.398 35.2578 26.5312 34.1245 26.5312 32.7266C26.5312 31.3286 25.398 30.1953 24 30.1953C22.602 30.1953 21.4688 31.3286 21.4688 32.7266C21.4688 34.1245 22.602 35.2578 24 35.2578Z" fill="#BC8A55"/>
</svg>
