<svg width="18" height="19" viewBox="0 0 18 19" fill="none" xmlns="http://www.w3.org/2000/svg">
<g id="fluent:info-20-regular">
<path id="Vector" d="M9.44358 8.5188C9.42355 8.40815 9.36281 8.30901 9.27333 8.2409C9.18385 8.17279 9.07211 8.14066 8.96012 8.15082C8.84813 8.16098 8.744 8.2127 8.66824 8.2958C8.59248 8.3789 8.55057 8.48735 8.55078 8.5998V12.6516L8.55798 12.7326C8.57802 12.8433 8.63875 12.9424 8.72823 13.0105C8.81771 13.0786 8.92945 13.1108 9.04144 13.1006C9.15343 13.0904 9.25756 13.0387 9.33332 12.9556C9.40908 12.8725 9.45099 12.7641 9.45078 12.6516V8.5998L9.44358 8.5188ZM9.71988 6.5748C9.71988 6.39578 9.64877 6.22409 9.52218 6.09751C9.39559 5.97092 9.2239 5.8998 9.04488 5.8998C8.86586 5.8998 8.69417 5.97092 8.56758 6.09751C8.441 6.22409 8.36988 6.39578 8.36988 6.5748C8.36988 6.75383 8.441 6.92551 8.56758 7.0521C8.69417 7.17869 8.86586 7.2498 9.04488 7.2498C9.2239 7.2498 9.39559 7.17869 9.52218 7.0521C9.64877 6.92551 9.71988 6.75383 9.71988 6.5748ZM16.2008 9.4998C16.2008 7.59025 15.4422 5.7589 14.092 4.40864C12.7417 3.05837 10.9103 2.2998 9.00078 2.2998C7.09122 2.2998 5.25987 3.05837 3.90961 4.40864C2.55935 5.7589 1.80078 7.59025 1.80078 9.4998C1.80078 11.4094 2.55935 13.2407 3.90961 14.591C5.25987 15.9412 7.09122 16.6998 9.00078 16.6998C10.9103 16.6998 12.7417 15.9412 14.092 14.591C15.4422 13.2407 16.2008 11.4094 16.2008 9.4998ZM2.70078 9.4998C2.70078 8.67248 2.86374 7.85325 3.18034 7.0889C3.49694 6.32455 3.961 5.63004 4.54601 5.04503C5.13102 4.46002 5.82552 3.99597 6.58988 3.67936C7.35423 3.36276 8.17345 3.1998 9.00078 3.1998C9.82811 3.1998 10.6473 3.36276 11.4117 3.67936C12.176 3.99597 12.8705 4.46002 13.4556 5.04503C14.0406 5.63004 14.5046 6.32455 14.8212 7.0889C15.1378 7.85325 15.3008 8.67248 15.3008 9.4998C15.3008 11.1707 14.637 12.7731 13.4556 13.9546C12.2741 15.1361 10.6716 15.7998 9.00078 15.7998C7.32992 15.7998 5.72749 15.1361 4.54601 13.9546C3.36453 12.7731 2.70078 11.1707 2.70078 9.4998Z" fill="#1C190E"/>
</g>
</svg>
