<svg width="25" height="25" viewBox="0 0 25 25" fill="none" xmlns="http://www.w3.org/2000/svg">
<g clip-path="url(#clip0_14216_51277)">
<path d="M1.5625 1.70195C-0.402079 3.74258 4.11272e-06 5.91029 4.11272e-06 12.4957C4.11272e-06 17.9645 -0.954163 23.4467 4.03959 24.7374C5.59896 25.1384 19.4156 25.1384 20.9729 24.7353C23.0521 24.1988 24.7438 22.5124 24.975 19.5717C25.0073 19.1613 25.0073 5.83737 24.974 5.41862C24.7281 2.28633 22.8 0.481121 20.2594 0.115496C19.6771 0.0311213 19.5604 0.00612133 16.5729 0.000912994C5.97605 0.00612133 3.65313 -0.465754 1.5625 1.70195Z" fill="url(#paint0_linear_14216_51277)"/>
<path d="M12.4979 3.26672C8.71563 3.26672 5.12396 2.93026 3.75209 6.4511C3.18542 7.90526 3.26771 9.79381 3.26771 12.498C3.26771 14.8709 3.19167 17.1011 3.75209 18.5438C5.12084 22.0667 8.74167 21.7292 12.4958 21.7292C16.1177 21.7292 19.8521 22.1063 21.2406 18.5438C21.8083 17.0751 21.725 15.2146 21.725 12.498C21.725 8.89172 21.924 6.5636 20.175 4.81568C18.4042 3.04485 16.0094 3.26672 12.4938 3.26672H12.4979ZM11.6708 4.93026C19.5604 4.91776 20.5646 4.04068 20.0104 16.2251C19.8135 20.5344 16.5323 20.0615 12.499 20.0615C5.14479 20.0615 4.93334 19.8511 4.93334 12.4938C4.93334 5.0511 5.51667 4.93443 11.6708 4.92818V4.93026ZM17.425 6.46255C16.8135 6.46255 16.3177 6.95839 16.3177 7.56985C16.3177 8.1813 16.8135 8.67714 17.425 8.67714C18.0365 8.67714 18.5323 8.1813 18.5323 7.56985C18.5323 6.95839 18.0365 6.46255 17.425 6.46255ZM12.4979 7.75735C9.88021 7.75735 7.75834 9.88026 7.75834 12.498C7.75834 15.1157 9.88021 17.2376 12.4979 17.2376C15.1156 17.2376 17.2365 15.1157 17.2365 12.498C17.2365 9.88026 15.1156 7.75735 12.4979 7.75735ZM12.4979 9.42089C16.5656 9.42089 16.5708 15.5751 12.4979 15.5751C8.43125 15.5751 8.425 9.42089 12.4979 9.42089Z" fill="white"/>
</g>
<defs>
<linearGradient id="paint0_linear_14216_51277" x1="1.61044" y1="23.4041" x2="24.8453" y2="3.29464" gradientUnits="userSpaceOnUse">
<stop stop-color="#FFDD55"/>
<stop offset="0.5" stop-color="#FF543E"/>
<stop offset="1" stop-color="#C837AB"/>
</linearGradient>
<clipPath id="clip0_14216_51277">
<rect width="25" height="25" fill="white"/>
</clipPath>
</defs>
</svg>
