<svg width="35" height="35" viewBox="0 0 35 35" fill="none" xmlns="http://www.w3.org/2000/svg">
<g clip-path="url(#clip0_12195_38421)">
<path d="M24.4825 34.3618C24.2536 34.3618 24.0193 34.3333 23.7877 34.2725L2.72258 28.6698C1.27855 28.2747 0.417581 26.7892 0.796298 25.355L3.45413 15.5162C3.55222 15.1549 3.92549 14.9452 4.28786 15.0372C4.65159 15.1333 4.86683 15.5054 4.77011 15.8653L2.11364 25.7014C1.92428 26.4184 2.35749 27.1653 3.08086 27.3642L24.1378 32.9641C24.8612 33.1536 25.6077 32.726 25.7957 32.0116L26.8597 28.0961C26.9578 27.7349 27.331 27.5198 27.6948 27.6185C28.0585 27.716 28.2724 28.088 28.1757 28.4479L27.1131 32.358C26.7929 33.5621 25.6895 34.3618 24.4825 34.3618Z" fill="#A79F92" stroke="#A79F92" stroke-width="0.5"/>
<path d="M30.5896 25.9251H8.86759C7.37013 25.9251 6.15234 24.7073 6.15234 23.2099V6.91837C6.15234 5.42091 7.37013 4.20312 8.86759 4.20312H30.5896C32.087 4.20312 33.3048 5.42091 33.3048 6.91837V23.2099C33.3048 24.7073 32.087 25.9251 30.5896 25.9251ZM8.86759 5.56075C8.11954 5.56075 7.50997 6.17032 7.50997 6.91837V23.2099C7.50997 23.9579 8.11954 24.5675 8.86759 24.5675H30.5896C31.3376 24.5675 31.9472 23.9579 31.9472 23.2099V6.91837C31.9472 6.17032 31.3376 5.56075 30.5896 5.56075H8.86759Z" fill="#A79F92" stroke="#A79F92" stroke-width="0.5"/>
<path d="M12.9418 13.7117C11.4444 13.7117 10.2266 12.494 10.2266 10.9965C10.2266 9.49904 11.4444 8.28125 12.9418 8.28125C14.4393 8.28125 15.6571 9.49904 15.6571 10.9965C15.6571 12.494 14.4393 13.7117 12.9418 13.7117ZM12.9418 9.63887C12.1938 9.63887 11.5842 10.2484 11.5842 10.9965C11.5842 11.7445 12.1938 12.3541 12.9418 12.3541C13.6899 12.3541 14.2994 11.7445 14.2994 10.9965C14.2994 10.2484 13.6899 9.63887 12.9418 9.63887Z" fill="#A79F92" stroke="#A79F92" stroke-width="0.5"/>
<path d="M6.92915 24.4845C6.75538 24.4845 6.5816 24.418 6.44855 24.2863C6.18382 24.0216 6.18382 23.5912 6.44855 23.3265L12.8606 16.9144C13.629 16.146 14.9717 16.146 15.7401 16.9144L17.6489 18.8232L22.9328 12.4831C23.317 12.0229 23.8818 11.7554 24.4832 11.75H24.4982C25.0928 11.75 25.6562 12.0079 26.0445 12.46L33.1449 20.7443C33.3892 21.028 33.3566 21.457 33.0715 21.7014C32.7878 21.9458 32.3602 21.9145 32.1144 21.6281L25.0141 13.3438C24.8824 13.1918 24.7004 13.1076 24.4982 13.1076C24.357 13.0954 24.1085 13.1932 23.9768 13.352L18.2164 20.2637C18.0942 20.4103 17.9164 20.4985 17.725 20.5067C17.5322 20.5202 17.3489 20.4442 17.2145 20.3085L14.7803 17.8742C14.5237 17.619 14.077 17.619 13.8204 17.8742L7.40839 24.2863C7.2767 24.418 7.10293 24.4845 6.92915 24.4845Z" fill="#A79F92" stroke="#A79F92" stroke-width="0.5"/>
</g>
<defs>
<clipPath id="clip0_12195_38421">
<rect width="34" height="34" fill="white" transform="translate(0.015625 0.71875)"/>
</clipPath>
</defs>
</svg>
