<svg width="32" height="32" viewBox="0 0 32 32" fill="none" xmlns="http://www.w3.org/2000/svg">
<g clip-path="url(#clip0_12195_38414)">
<path d="M28.3066 1.92969H27.1078C26.7627 1.92969 26.4781 2.21426 26.4781 2.55937V7.07617H5.55312V2.55937C5.55312 2.21426 5.26855 1.92969 4.92344 1.92969H3.71855C1.95059 1.92969 0.515625 3.36465 0.515625 5.13262V26.3059C0.515625 27.8437 1.88398 29.5148 3.78516 29.5148H28.24C30.1412 29.5148 31.5156 27.868 31.5156 26.3059V5.13262C31.5156 3.36465 30.0746 1.92969 28.3066 1.92969ZM1.78105 5.13262C1.78105 4.06094 2.65293 3.18906 3.71855 3.18906H4.2877V23.0969H3.71855C2.99199 23.0969 2.31992 23.3451 1.78105 23.7568V5.13262ZM30.1836 26.3119C30.1836 27.3896 29.3057 28.2555 28.24 28.2555H3.78516C2.70137 28.2555 1.8416 27.3775 1.8416 26.3119V25.8336C2.04746 24.998 2.81035 24.3684 3.71855 24.3684H4.91738C5.2625 24.3684 5.54707 24.0898 5.54707 23.7387V8.3416H26.4721V23.7326C26.4721 24.0838 26.7566 24.3623 27.1018 24.3623H28.3066C29.2088 24.3623 29.9656 24.9799 30.1836 25.8154V26.3119ZM30.2502 23.7629C29.7113 23.3512 29.0332 23.1029 28.3066 23.1029H27.7375V3.19512H28.3066C29.3783 3.19512 30.2502 4.06699 30.2502 5.13867V23.7629Z" fill="#A79F92" stroke="#A79F92" stroke-width="0.5"/>
<path d="M23.0211 11.6328H9.01055C8.02969 11.6328 7.23047 12.432 7.23047 13.4129V23.1912C7.23047 24.1721 8.02969 24.9713 9.01055 24.9713H10.3365C10.6877 24.9713 10.9662 24.6867 10.9662 24.3416C10.9662 23.9904 10.6816 23.7119 10.3365 23.7119H9.01055C8.72598 23.7119 8.4959 23.4818 8.4959 23.1973V16.6037H9.94902C10.3002 16.6037 10.5787 16.3191 10.5787 15.974C10.5787 15.6229 10.2941 15.3443 9.94902 15.3443H8.4959V13.4189C8.4959 13.1344 8.72598 12.9043 9.01055 12.9043H16.1248V15.3443H12.7705C12.4193 15.3443 12.1408 15.6289 12.1408 15.974C12.1408 16.3191 12.4254 16.6037 12.7705 16.6037H16.7605C17.1117 16.6037 17.3902 16.3191 17.3902 15.974V12.8982H23.0211C23.3057 12.8982 23.5357 13.1283 23.5357 13.4129V18.1658H16.7545C16.4033 18.1658 16.1248 18.4504 16.1248 18.7955C16.1248 19.1406 16.4094 19.4252 16.7545 19.4252H23.5357V23.1852C23.5357 23.4697 23.3057 23.6998 23.0211 23.6998H17.3902V22.5131C17.3902 22.1619 17.1057 21.8834 16.7605 21.8834C16.4094 21.8834 16.1309 22.168 16.1309 22.5131V23.6998H14.6232L13.7453 21.8652C13.5939 21.5504 13.2186 21.4172 12.9037 21.5686C12.5889 21.7199 12.4557 22.0953 12.607 22.4102L13.6545 24.608C13.7574 24.826 13.9814 24.9652 14.2236 24.9652H23.0271C24.008 24.9652 24.8072 24.166 24.8072 23.1852V13.4129C24.8012 12.432 24.002 11.6328 23.0211 11.6328Z" fill="#A79F92" stroke="#A79F92" stroke-width="0.5"/>
</g>
<defs>
<clipPath id="clip0_12195_38414">
<rect width="31" height="31" fill="white" transform="translate(0.515625 0.21875)"/>
</clipPath>
</defs>
</svg>
