<svg width="13" height="14" viewBox="0 0 13 14" fill="none" xmlns="http://www.w3.org/2000/svg">
<path id="Vector" d="M4.5 3.41114V8.91114M8.5 4.91114V10.4111M8.83533 12.7431L12.0853 11.1185C12.3393 10.9918 12.5 10.7318 12.5 10.4478V2.12447C12.5 1.56714 11.9133 1.20447 11.4147 1.45381L8.83533 2.74314C8.624 2.84914 8.37533 2.84914 8.16467 2.74314L4.83533 1.07914C4.73121 1.0271 4.6164 1 4.5 1C4.3836 1 4.26879 1.0271 4.16467 1.07914L0.914667 2.70381C0.66 2.83114 0.5 3.09114 0.5 3.37447V11.6978C0.5 12.2551 1.08667 12.6178 1.58533 12.3685L4.16467 11.0791C4.376 10.9731 4.62467 10.9731 4.83533 11.0791L8.16467 12.7438C8.376 12.8491 8.62467 12.8491 8.83533 12.7438V12.7431Z" stroke="#2B2A28" stroke-linecap="round" stroke-linejoin="round"/>
</svg>
