<svg width="18" height="18" viewBox="0 0 18 18" fill="none" xmlns="http://www.w3.org/2000/svg">
<g clip-path="url(#clip0_1023_8182)">
<path d="M9.00118 3.52344C7.38294 3.52344 6.06641 4.83997 6.06641 6.45821C6.06641 8.07645 7.38294 9.39302 9.00118 9.39302C10.6194 9.39302 11.936 8.07649 11.936 6.45825C11.936 4.84 10.6194 3.52344 9.00118 3.52344ZM9.00118 8.21912C8.03023 8.21912 7.24031 7.42919 7.24031 6.45825C7.24031 5.4873 8.03023 4.69737 9.00118 4.69737C9.97212 4.69737 10.7621 5.4873 10.7621 6.45825C10.7621 7.42919 9.97212 8.21912 9.00118 8.21912Z" fill="#A79F92"/>
<path d="M8.99952 0C5.43939 0 2.54297 2.89642 2.54297 6.45655C2.54297 8.94684 3.28941 9.92348 8.51148 17.7392C8.74362 18.0866 9.25496 18.0873 9.48756 17.7392C14.7373 9.88566 15.4561 8.92227 15.4561 6.45655C15.456 2.89642 12.5597 0 8.99952 0ZM8.99956 16.3568C4.31077 9.34411 3.71694 8.49234 3.71694 6.45655C3.71691 3.54372 6.08668 1.1739 8.99952 1.1739C11.9124 1.1739 14.2821 3.54368 14.2821 6.45652C14.2821 8.42171 13.8303 9.12941 8.99956 16.3568Z" fill="#A79F92"/>
</g>
<defs>
<clipPath id="clip0_1023_8182">
<rect width="18" height="18" fill="white"/>
</clipPath>
</defs>
</svg>
