<svg width="18" height="19" viewBox="0 0 18 19" fill="none" xmlns="http://www.w3.org/2000/svg">
<g id="Icon">
<g id="Group 38484">
<g id="Group">
<g id="Group_2">
<path id="Vector" d="M9.97266 3.17246H8.44766C8.18173 3.17246 7.96641 3.38778 7.96641 3.65371C7.96641 3.91964 8.18173 4.13496 8.44766 4.13496H9.97266C10.2386 4.13496 10.4539 3.91964 10.4539 3.65371C10.4539 3.38778 10.2386 3.17246 9.97266 3.17246Z" fill="#C6C6C3" stroke="#C6C6C3" stroke-width="0.2"/>
</g>
</g>
<g id="Group_3">
<g id="Group_4">
<path id="Vector_2" d="M11.625 1.9H5.525C4.629 1.9 3.9 2.629 3.9 3.525V15.725C3.9 16.621 4.629 17.35 5.525 17.35H11.625C12.521 17.35 13.25 16.621 13.25 15.725V3.525C13.25 2.629 12.521 1.9 11.625 1.9ZM12.2875 15.725C12.2875 16.0909 11.9909 16.3875 11.625 16.3875H5.525C5.15907 16.3875 4.8625 16.0909 4.8625 15.725V3.525C4.8625 3.15907 5.15907 2.8625 5.525 2.8625H11.625C11.9909 2.8625 12.2875 3.15907 12.2875 3.525V15.725Z" fill="#C6C6C3" stroke="#C6C6C3" stroke-width="0.2"/>
</g>
</g>
<g id="Group_5">
<g id="Group_6">
<path id="Vector_3" d="M8.575 16.0791C9.05135 16.0791 9.4375 15.6929 9.4375 15.2166C9.4375 14.7403 9.05135 14.3541 8.575 14.3541C8.09865 14.3541 7.7125 14.7403 7.7125 15.2166C7.7125 15.6929 8.09865 16.0791 8.575 16.0791Z" fill="#C6C6C3" stroke="#C6C6C3" stroke-width="0.2"/>
</g>
</g>
<g id="Group_7">
<g id="Group_8">
<path id="Vector_4" d="M7.17031 4.13496C7.4361 4.13496 7.65156 3.9195 7.65156 3.65371C7.65156 3.38792 7.4361 3.17246 7.17031 3.17246C6.90453 3.17246 6.68906 3.38792 6.68906 3.65371C6.68906 3.9195 6.90453 4.13496 7.17031 4.13496Z" fill="#C6C6C3" stroke="#C6C6C3" stroke-width="0.2"/>
</g>
</g>
</g>
</g>
</svg>
