<svg width="49" height="48" viewBox="0 0 49 48" fill="none" xmlns="http://www.w3.org/2000/svg">
<g id="Building Modern" clip-path="url(#clip0_4081_40818)">
<path id="Vector" d="M7.37109 19.5H24.3711C24.9015 19.5 25.4102 19.7107 25.7853 20.0858C26.1604 20.4609 26.3711 20.9696 26.3711 21.5V46.5H5.37109V21.5C5.37109 20.9696 5.58181 20.4609 5.95688 20.0858C6.33195 19.7107 6.84066 19.5 7.37109 19.5Z" stroke="#A79F92" stroke-width="1.71" stroke-linecap="round" stroke-linejoin="round"/>
<path id="Vector_2" d="M32.3711 46.5H44.3711V4.5C44.3711 3.70435 44.055 2.94129 43.4924 2.37868C42.9298 1.81607 42.1667 1.5 41.3711 1.5H23.3711C22.5754 1.5 21.8124 1.81607 21.2498 2.37868C20.6872 2.94129 20.3711 3.70435 20.3711 4.5V13.5H23.3711" stroke="#A79F92" stroke-width="1.71" stroke-linecap="round" stroke-linejoin="round"/>
<path id="Vector_3" d="M5.37109 46.5H2.37109" stroke="#A79F92" stroke-width="1.71" stroke-linecap="round" stroke-linejoin="round"/>
<path id="Vector_4" d="M44.3711 46.5H47.3711" stroke="#A79F92" stroke-width="1.71" stroke-linecap="round" stroke-linejoin="round"/>
<path id="Vector_5" d="M20.3711 7.5H29.3711" stroke="#A79F92" stroke-width="1.71" stroke-linecap="round" stroke-linejoin="round"/>
<path id="Vector_6" d="M5.37109 25.5H9.87109" stroke="#A79F92" stroke-width="1.71" stroke-linecap="round" stroke-linejoin="round"/>
<path id="Vector_7" d="M17.3711 46.5H11.3711V40.5C11.3711 39.7044 11.6872 38.9413 12.2498 38.3787C12.8124 37.8161 13.5754 37.5 14.3711 37.5C15.1667 37.5 15.9298 37.8161 16.4924 38.3787C17.055 38.9413 17.3711 39.7044 17.3711 40.5V46.5Z" stroke="#A79F92" stroke-width="1.71" stroke-linecap="round" stroke-linejoin="round"/>
<path id="Vector_8" d="M38.3711 46.5H32.3711V37.5C32.3711 36.7044 32.6872 35.9413 33.2498 35.3787C33.8124 34.8161 34.5754 34.5 35.3711 34.5C36.1667 34.5 36.9298 34.8161 37.4924 35.3787C38.055 35.9413 38.3711 36.7044 38.3711 37.5V46.5Z" stroke="#A79F92" stroke-width="1.71" stroke-linecap="round" stroke-linejoin="round"/>
</g>
<defs>
<clipPath id="clip0_4081_40818">
<rect width="48" height="48" fill="white" transform="translate(0.871094)"/>
</clipPath>
</defs>
</svg>
