<svg width="20" height="20" viewBox="0 0 20 20" fill="none" xmlns="http://www.w3.org/2000/svg">
<path d="M18.7462 10.0036L19.8502 8.0956C19.9829 7.86604 20.019 7.59318 19.9505 7.33703C19.8821 7.08087 19.7147 6.86238 19.4852 6.7296L17.5752 5.6256V3.4256C17.5752 3.16038 17.4698 2.90603 17.2823 2.71849C17.0948 2.53095 16.8404 2.4256 16.5752 2.4256H14.3762L13.2732 0.516598C13.14 0.287514 12.9219 0.120103 12.6662 0.0505975C12.5394 0.0162134 12.407 0.0073473 12.2767 0.0245131C12.1464 0.0416789 12.0208 0.0845352 11.9072 0.150598L9.9972 1.2546L8.0872 0.149597C7.85752 0.0169952 7.58458 -0.0189394 7.3284 0.0496984C7.07223 0.118336 6.85382 0.285925 6.7212 0.515598L5.6172 2.4256H3.4182C3.15299 2.4256 2.89863 2.53095 2.7111 2.71849C2.52356 2.90603 2.4182 3.16038 2.4182 3.4256V5.6246L0.508203 6.7286C0.394235 6.79415 0.294344 6.88158 0.214268 6.98586C0.134192 7.09014 0.0755092 7.20921 0.0415921 7.33624C0.00767491 7.46326 -0.00080852 7.59574 0.0166292 7.72606C0.0340668 7.85637 0.0770818 7.98196 0.143203 8.0956L1.2472 10.0036L0.143203 11.9116C0.0111918 12.1414 -0.024625 12.414 0.0435614 12.6701C0.111748 12.9262 0.278407 13.1449 0.507203 13.2786L2.4172 14.3826V16.5816C2.4172 16.8468 2.52256 17.1012 2.7101 17.2887C2.89763 17.4762 3.15199 17.5816 3.4172 17.5816H5.6172L6.7212 19.4916C6.80973 19.6429 6.93614 19.7686 7.08798 19.8563C7.23982 19.944 7.41187 19.9906 7.5872 19.9916C7.7612 19.9916 7.9342 19.9456 8.0882 19.8566L9.9962 18.7526L11.9062 19.8566C12.1358 19.989 12.4086 20.025 12.6647 19.9565C12.9207 19.8881 13.1392 19.7209 13.2722 19.4916L14.3752 17.5816H16.5742C16.8394 17.5816 17.0938 17.4762 17.2813 17.2887C17.4688 17.1012 17.5742 16.8468 17.5742 16.5816V14.3826L19.4842 13.2786C19.598 13.2129 19.6977 13.1253 19.7776 13.021C19.8575 12.9167 19.9161 12.7977 19.95 12.6707C19.9839 12.5438 19.9925 12.4114 19.9752 12.2811C19.9579 12.1509 19.9151 12.0253 19.8492 11.9116L18.7462 10.0036ZM7.4962 4.9936C7.89416 4.99373 8.27577 5.15195 8.55707 5.43344C8.83837 5.71493 8.99634 6.09664 8.9962 6.4946C8.99607 6.89256 8.83786 7.27416 8.55636 7.55547C8.27487 7.83677 7.89316 7.99473 7.4952 7.9946C7.09725 7.99447 6.71564 7.83625 6.43434 7.55476C6.15303 7.27327 5.99507 6.89155 5.9952 6.4936C5.99534 6.09564 6.15355 5.71404 6.43504 5.43273C6.71653 5.15143 7.09825 4.99346 7.4962 4.9936ZM7.7962 14.5936L6.1962 13.3946L12.1962 5.3946L13.7962 6.5936L7.7962 14.5936ZM12.4962 14.9936C12.2992 14.9935 12.104 14.9547 11.922 14.8792C11.74 14.8037 11.5746 14.6931 11.4353 14.5538C11.296 14.4144 11.1856 14.2489 11.1102 14.0669C11.0349 13.8848 10.9961 13.6896 10.9962 13.4926C10.9963 13.2955 11.0351 13.1004 11.1106 12.9184C11.1861 12.7364 11.2967 12.571 11.436 12.4317C11.5754 12.2924 11.7409 12.182 11.9229 12.1066C12.105 12.0313 12.3002 11.9925 12.4972 11.9926C12.8952 11.9927 13.2768 12.1509 13.5581 12.4324C13.8394 12.7139 13.9973 13.0956 13.9972 13.4936C13.9971 13.8916 13.8389 14.2732 13.5574 14.5545C13.2759 14.8358 12.8942 14.9937 12.4962 14.9936Z" fill="#E4E4DC"/>
</svg>
