<svg width="15" height="16" viewBox="0 0 15 16" fill="none" xmlns="http://www.w3.org/2000/svg">
<g clip-path="url(#clip0_1033_3043)">
<path d="M7.5 15.3438C3.4375 15.3438 0.15625 12.0625 0.15625 8C0.15625 3.9375 3.4375 0.65625 7.5 0.65625C11.5625 0.65625 14.8438 3.9375 14.8438 8C14.8438 12.0625 11.5625 15.3438 7.5 15.3438ZM7.5 1.875C4.125 1.875 1.375 4.625 1.375 8C1.375 11.375 4.125 14.125 7.5 14.125C10.875 14.125 13.625 11.375 13.625 8C13.625 4.625 10.875 1.875 7.5 1.875Z" fill="#8E8E93"/>
<path d="M9.78125 5.46875C10.1875 5.8125 10.375 6.34375 10.375 7.0625C10.375 7.78125 10.1563 8.28125 9.75 8.625C9.34375 8.96875 8.6875 9.125 7.84375 9.125H7.0625V11.0625C7.0625 11.4062 6.78125 11.7188 6.40625 11.7188C6.0625 11.7188 5.75 11.4375 5.75 11.0625V5.53125C5.75 5.1875 6.03125 4.9375 6.34375 4.9375H7.78125C8.75 4.9375 9.40625 5.125 9.78125 5.46875ZM8.84375 7.71875C9 7.53125 9.0625 7.28125 9.0625 6.96875C9.0625 6.65625 8.96875 6.40625 8.75 6.25C8.5625 6.125 8.25 6.03125 7.8125 6.03125H7.0625V8H7.9375C8.40625 8 8.6875 7.90625 8.84375 7.71875Z" fill="#8E8E93"/>
</g>
<defs>
<clipPath id="clip0_1033_3043">
<rect width="15" height="15" fill="white" transform="translate(0 0.5)"/>
</clipPath>
</defs>
</svg>
