<svg width="13" height="13" viewBox="0 0 13 13" fill="none" xmlns="http://www.w3.org/2000/svg">
<g id="parking-area 1" clip-path="url(#clip0_1023_12244)">
<g id="Group">
<g id="Group_2">
<path id="Vector" d="M6.5013 12.8659C2.98047 12.8659 0.136719 10.0221 0.136719 6.5013C0.136719 2.98047 2.98047 0.136719 6.5013 0.136719C10.0221 0.136719 12.8659 2.98047 12.8659 6.5013C12.8659 10.0221 10.0221 12.8659 6.5013 12.8659ZM6.5013 1.19297C3.5763 1.19297 1.19297 3.5763 1.19297 6.5013C1.19297 9.4263 3.5763 11.8096 6.5013 11.8096C9.4263 11.8096 11.8096 9.4263 11.8096 6.5013C11.8096 3.5763 9.4263 1.19297 6.5013 1.19297Z" fill="#62625E"/>
</g>
<g id="Group_3">
<g id="Group_4">
<path id="Vector_2" d="M8.47813 4.30807C8.83021 4.60599 8.99271 5.06641 8.99271 5.68932C8.99271 6.31224 8.80313 6.74557 8.45104 7.04349C8.09896 7.34141 7.53021 7.47682 6.79896 7.47682H6.12188V9.15599C6.12188 9.45391 5.87813 9.72474 5.55313 9.72474C5.25521 9.72474 4.98438 9.48099 4.98438 9.15599V4.36224C4.98438 4.06432 5.22812 3.84766 5.49896 3.84766H6.74479C7.58438 3.84766 8.15313 4.01016 8.47813 4.30807ZM7.66563 6.25807C7.80104 6.09557 7.85521 5.87891 7.85521 5.60807C7.85521 5.33724 7.77396 5.12057 7.58438 4.98516C7.42188 4.87682 7.15104 4.79557 6.77188 4.79557H6.12188V6.50182H6.88021C7.28646 6.50182 7.53021 6.42057 7.66563 6.25807Z" fill="#62625E"/>
</g>
</g>
</g>
</g>
<defs>
<clipPath id="clip0_1023_12244">
<rect width="13" height="13" fill="white"/>
</clipPath>
</defs>
</svg>
