<svg width="47" height="38" viewBox="0 0 47 38" fill="none" xmlns="http://www.w3.org/2000/svg">
<path d="M8.375 9.5625C8.375 7.92147 9.02689 6.34766 10.1873 5.18728C11.3477 4.02689 12.9215 3.375 14.5625 3.375C16.2035 3.375 17.7773 4.02689 18.9377 5.18728C20.0981 6.34766 20.75 7.92147 20.75 9.5625C20.75 11.2035 20.0981 12.7773 18.9377 13.9377C17.7773 15.0981 16.2035 15.75 14.5625 15.75C12.9215 15.75 11.3477 15.0981 10.1873 13.9377C9.02689 12.7773 8.375 11.2035 8.375 9.5625ZM14.5625 0.625C12.1921 0.625 9.91883 1.56663 8.24273 3.24273C6.56662 4.91884 5.625 7.19212 5.625 9.5625C5.625 11.9329 6.56662 14.2062 8.24273 15.8823C9.91883 17.5584 12.1921 18.5 14.5625 18.5C16.9329 18.5 19.2062 17.5584 20.8823 15.8823C22.5584 14.2062 23.5 11.9329 23.5 9.5625C23.5 7.19212 22.5584 4.91884 20.8823 3.24273C19.2062 1.56663 16.9329 0.625 14.5625 0.625ZM30.2017 32.6487C31.6812 33.2537 33.543 33.625 35.875 33.625C41.0477 33.625 43.9077 31.788 45.4147 29.6815C46.201 28.5761 46.6939 27.2893 46.8475 25.9415C46.8612 25.8163 46.8704 25.6906 46.875 25.5647V25.375C46.875 24.8333 46.7683 24.2969 46.561 23.7964C46.3537 23.296 46.0498 22.8412 45.6668 22.4582C45.2837 22.0751 44.829 21.7713 44.3285 21.564C43.8281 21.3567 43.2917 21.25 42.75 21.25H30.0175C30.6775 22.0475 31.1725 22.9797 31.4612 24H42.75C43.1147 24 43.4644 24.1449 43.7223 24.4027C43.9801 24.6606 44.125 25.0103 44.125 25.375V25.5235L44.1112 25.661C44.0059 26.5329 43.6845 27.3647 43.1762 28.081C42.277 29.3432 40.3245 30.875 35.875 30.875C33.862 30.875 32.3605 30.5615 31.2357 30.1022C31.0102 30.8722 30.683 31.7412 30.2017 32.6487ZM0.125 26.75C0.125 25.2913 0.704462 23.8924 1.73591 22.8609C2.76736 21.8295 4.16631 21.25 5.625 21.25H23.5C24.9587 21.25 26.3576 21.8295 27.3891 22.8609C28.4205 23.8924 29 25.2913 29 26.75V26.981C29 27.0085 29 27.0442 28.9945 27.091C28.961 27.6355 28.8828 28.1763 28.7607 28.708C28.527 29.72 28.0622 31.073 27.1245 32.4315C25.1967 35.22 21.4732 37.75 14.5625 37.75C7.65175 37.75 3.92825 35.22 2.0005 32.4315C0.985266 30.9527 0.35224 29.2454 0.158 27.4622C0.141567 27.3022 0.130561 27.1417 0.125 26.981V26.75ZM2.875 26.915V26.9645L2.89425 27.1927C3.04326 28.511 3.51351 29.7726 4.26375 30.8667C5.603 32.8027 8.41075 35 14.5625 35C20.7142 35 23.522 32.8027 24.8612 30.8667C25.6117 29.7727 26.0819 28.5111 26.2307 27.1927C26.2398 27.117 26.2453 27.0408 26.2472 26.9645L26.25 26.9177V26.75C26.25 26.0206 25.9603 25.3212 25.4445 24.8054C24.9288 24.2897 24.2293 24 23.5 24H5.625C4.89565 24 4.19618 24.2897 3.68045 24.8054C3.16473 25.3212 2.875 26.0206 2.875 26.75V26.915ZM31.75 11.625C31.75 10.531 32.1846 9.48177 32.9582 8.70818C33.7318 7.93459 34.781 7.5 35.875 7.5C36.969 7.5 38.0182 7.93459 38.7918 8.70818C39.5654 9.48177 40 10.531 40 11.625C40 12.719 39.5654 13.7682 38.7918 14.5418C38.0182 15.3154 36.969 15.75 35.875 15.75C34.781 15.75 33.7318 15.3154 32.9582 14.5418C32.1846 13.7682 31.75 12.719 31.75 11.625ZM35.875 4.75C34.0516 4.75 32.3029 5.47433 31.0136 6.76364C29.7243 8.05295 29 9.80163 29 11.625C29 13.4484 29.7243 15.197 31.0136 16.4864C32.3029 17.7757 34.0516 18.5 35.875 18.5C37.6983 18.5 39.447 17.7757 40.7363 16.4864C42.0257 15.197 42.75 13.4484 42.75 11.625C42.75 9.80163 42.0257 8.05295 40.7363 6.76364C39.447 5.47433 37.6983 4.75 35.875 4.75Z" fill="#2B2A28"/>
</svg>
