<svg width="41" height="41" viewBox="0 0 41 41" fill="none" xmlns="http://www.w3.org/2000/svg">
<g clip-path="url(#clip0_6004_30874)">
<path d="M14.3472 27.5582C12.8919 28.8997 10.974 29.6264 8.99511 29.5861C7.01618 29.5458 5.1295 28.7418 3.72989 27.3422C2.33029 25.9426 1.52622 24.0559 1.48596 22.077C1.4457 20.098 2.17237 18.1802 3.5139 16.7248L16.5139 3.72483C17.9693 2.38331 19.8871 1.65664 21.866 1.6969C23.845 1.73716 25.7316 2.54122 27.1312 3.94083C28.5308 5.34044 29.3349 7.22711 29.3752 9.20605C29.4154 11.185 28.6888 13.1028 27.3472 14.5582M10.0122 10.2232L17.0956 17.3065" stroke="#A79F92" stroke-width="2" stroke-linecap="round" stroke-linejoin="round"/>
<path d="M28.7656 25.2246V32.7246M25.0156 28.9746H32.5156M38.7656 26.4746C38.7713 29.3854 37.7832 32.211 35.9648 34.4839C34.1464 36.7569 31.6067 38.3411 28.7656 38.9746C25.9246 38.3411 23.3849 36.7569 21.5665 34.4839C19.7481 32.211 18.76 29.3854 18.7656 26.4746V22.7246C18.7656 22.0616 19.029 21.4257 19.4979 20.9568C19.9667 20.488 20.6026 20.2246 21.2656 20.2246H36.2656C36.9287 20.2246 37.5646 20.488 38.0334 20.9568C38.5023 21.4257 38.7656 22.0616 38.7656 22.7246V26.4746Z" stroke="#A79F92" stroke-width="2" stroke-linecap="round" stroke-linejoin="round"/>
</g>
<defs>
<clipPath id="clip0_6004_30874">
<rect width="40" height="40" fill="white" transform="translate(0.015625 0.224609)"/>
</clipPath>
</defs>
</svg>
