<svg width="16" height="17" viewBox="0 0 16 17" fill="none" xmlns="http://www.w3.org/2000/svg">
<path d="M14.5199 3.44219L12.6181 1.54219C12.386 1.31004 12.0753 1.17969 11.7467 1.17969C11.4181 1.17969 11.1074 1.30826 10.8753 1.54219L8.82707 3.58683C8.59492 3.81897 8.46457 4.13147 8.46457 4.46005C8.46457 4.7904 8.59314 5.09933 8.82707 5.33326L10.4271 6.93505C10.0626 7.78431 9.53886 8.55593 8.88421 9.20826C8.22885 9.86719 7.46278 10.3868 6.61278 10.7547L5.01278 9.1529C4.78064 8.92076 4.46992 8.7904 4.14135 8.7904C3.97928 8.7898 3.81873 8.82156 3.66909 8.8838C3.51946 8.94605 3.38375 9.03754 3.26992 9.1529L1.21992 11.1975C0.987779 11.4297 0.857422 11.7422 0.857422 12.0708C0.857422 12.4011 0.985993 12.71 1.21992 12.944L3.11992 14.844C3.51635 15.2404 4.06278 15.4672 4.62349 15.4672C4.73957 15.4672 4.85207 15.4583 4.96635 15.4386C7.33064 15.0493 9.67707 13.7904 11.5717 11.8975C13.4646 10.0011 14.7217 7.65469 15.1146 5.28862C15.2271 4.61719 15.0021 3.92612 14.5199 3.44219ZM13.8485 5.07612C13.5003 7.18147 12.3681 9.28147 10.6628 10.9868C8.95742 12.6922 6.85921 13.8243 4.75385 14.1725C4.48957 14.2172 4.21814 14.1279 4.02528 13.9368L2.15921 12.0708L4.13778 10.0904L6.27707 12.2333L6.29314 12.2493L6.67885 12.1065C7.84837 11.6765 8.91039 10.9973 9.79133 10.1161C10.6723 9.23483 11.3511 8.17257 11.7806 7.0029L11.9235 6.61719L9.76635 4.46183L11.7449 2.48147L13.611 4.34754C13.8039 4.5404 13.8931 4.81183 13.8485 5.07612Z" fill="#8E8E93"/>
</svg>
