<svg width="14" height="14" viewBox="0 0 14 14" fill="none" xmlns="http://www.w3.org/2000/svg">
<g clip-path="url(#clip0_6782_11936)">
<path d="M4.8125 4.8125C4.8125 5.39266 5.04297 5.94906 5.4532 6.3593C5.86344 6.76953 6.41984 7 7 7C7.58016 7 8.13656 6.76953 8.5468 6.3593C8.95703 5.94906 9.1875 5.39266 9.1875 4.8125C9.1875 4.23234 8.95703 3.67594 8.5468 3.2657C8.13656 2.85547 7.58016 2.625 7 2.625C6.41984 2.625 5.86344 2.85547 5.4532 3.2657C5.04297 3.67594 4.8125 4.23234 4.8125 4.8125Z" stroke="#2B2A28" stroke-linecap="round" stroke-linejoin="round"/>
<path d="M7 0.4375C8.16032 0.4375 9.27312 0.898436 10.0936 1.71891C10.9141 2.53938 11.375 3.65218 11.375 4.8125C11.375 6.79992 8.41517 11.7833 7.36458 13.3671C7.32468 13.4272 7.2705 13.4766 7.20688 13.5107C7.14327 13.5449 7.0722 13.5627 7 13.5627C6.9278 13.5627 6.85673 13.5449 6.79312 13.5107C6.7295 13.4766 6.67532 13.4272 6.63542 13.3671C5.58483 11.7833 2.625 6.79992 2.625 4.8125C2.625 3.65218 3.08594 2.53938 3.90641 1.71891C4.72688 0.898436 5.83968 0.4375 7 0.4375Z" stroke="#2B2A28" stroke-linecap="round" stroke-linejoin="round"/>
</g>
<defs>
<clipPath id="clip0_6782_11936">
<rect width="14" height="14" fill="white"/>
</clipPath>
</defs>
</svg>
