<svg width="16" height="17" viewBox="0 0 16 17" fill="none" xmlns="http://www.w3.org/2000/svg">
<g opacity="0.7" clip-path="url(#clip0_14023_96564)">
<path d="M11.3043 0.5H0.52175C0.233594 0.5 0 0.733594 0 1.02175V15.9783C0 16.2664 0.233594 16.5 0.52175 16.5H11.3043C11.5925 16.5 11.8261 16.2664 11.8261 15.9782V1.02175C11.8261 0.733594 11.5925 0.5 11.3043 0.5ZM10.7826 15.4565H1.04347V1.54347H10.7826V15.4565Z" fill="#2B2A28"/>
<path d="M15.9578 3.251L14.9143 0.816219C14.832 0.624375 14.6434 0.5 14.4347 0.5C14.226 0.5 14.0374 0.624375 13.9552 0.816219L12.9117 3.251C12.8839 3.31594 12.8695 3.38587 12.8695 3.45653V14.9348C12.8695 15.7999 13.5696 16.5 14.4347 16.5C15.2999 16.5 15.9999 15.7999 15.9999 14.9348V3.45653C15.9999 3.38587 15.9856 3.31594 15.9578 3.251ZM14.9565 14.9348C14.9565 15.2231 14.7232 15.4565 14.4347 15.4565C14.1464 15.4565 13.913 15.2232 13.913 14.9348V14.413H14.9564V14.9348H14.9565ZM14.9565 13.3696H13.913V4.67391H14.9565V13.3696ZM14.9565 3.63044H13.913V3.56363L14.4348 2.34622L14.9565 3.56363L14.9565 3.63044Z" fill="#2B2A28"/>
<path d="M7.13048 2.58594H4.6957C4.40758 2.58594 4.17395 2.81953 4.17395 3.10769C4.17395 3.39584 4.40754 3.62944 4.6957 3.62944H7.13048C7.41861 3.62944 7.65223 3.39584 7.65223 3.10769C7.65223 2.81953 7.41861 2.58594 7.13048 2.58594Z" fill="#2B2A28"/>
<path d="M9.21738 4.67188H2.60866C2.32054 4.67188 2.08691 4.90547 2.08691 5.19362C2.08691 5.48178 2.32051 5.71537 2.60866 5.71537H9.21735C9.50548 5.71537 9.7391 5.48178 9.7391 5.19362C9.7391 4.90547 9.50551 4.67188 9.21738 4.67188Z" fill="#2B2A28"/>
<path d="M9.2174 6.75781H6.78261C6.49449 6.75781 6.26086 6.99141 6.26086 7.27956C6.26086 7.56769 6.49446 7.80131 6.78261 7.80131H9.2174C9.50552 7.80131 9.73915 7.56772 9.73915 7.27956C9.73911 6.99141 9.50552 6.75781 9.2174 6.75781Z" fill="#2B2A28"/>
<path d="M4.69563 6.75781H2.60866C2.32054 6.75781 2.08691 6.99141 2.08691 7.27956C2.08691 7.56769 2.32051 7.80131 2.60866 7.80131H4.69563C4.98376 7.80131 5.21738 7.56772 5.21738 7.27956C5.21738 6.99141 4.98376 6.75781 4.69563 6.75781Z" fill="#2B2A28"/>
<path d="M9.21738 8.85156H2.60866C2.32054 8.85156 2.08691 9.08516 2.08691 9.37331C2.08691 9.66144 2.32051 9.89506 2.60866 9.89506H9.21735C9.50548 9.89506 9.7391 9.66147 9.7391 9.37331C9.7391 9.08519 9.50551 8.85156 9.21738 8.85156Z" fill="#2B2A28"/>
<path d="M5.7391 10.9375H2.60866C2.32054 10.9375 2.08691 11.1711 2.08691 11.4593C2.08691 11.7474 2.32051 11.981 2.60866 11.981H5.7391C6.02723 11.981 6.26085 11.7474 6.26085 11.4593C6.26085 11.1711 6.02726 10.9375 5.7391 10.9375Z" fill="#2B2A28"/>
<path d="M9.21738 13.0234H2.60866C2.32054 13.0234 2.08691 13.257 2.08691 13.5452C2.08691 13.8333 2.32051 14.0669 2.60866 14.0669H9.21735C9.50548 14.0669 9.7391 13.8333 9.7391 13.5452C9.7391 13.257 9.50551 13.0234 9.21738 13.0234Z" fill="#2B2A28"/>
<path d="M9.21738 10.9375H7.82607C7.53795 10.9375 7.30432 11.1711 7.30432 11.4593C7.30432 11.7474 7.53792 11.981 7.82607 11.981H9.21738C9.50551 11.981 9.73913 11.7474 9.73913 11.4593C9.73913 11.1711 9.50551 10.9375 9.21738 10.9375Z" fill="#2B2A28"/>
</g>
<defs>
<clipPath id="clip0_14023_96564">
<rect width="16" height="16" fill="white" transform="translate(0 0.5)"/>
</clipPath>
</defs>
</svg>
