<svg width="20" height="20" viewBox="0 0 20 20" fill="none" xmlns="http://www.w3.org/2000/svg">
<path d="M19.921 9.70706L18.7383 7.65831V5.29296C18.7383 5.08363 18.6267 4.89015 18.4453 4.7855L16.3967 3.60285L15.2141 1.55417C15.1094 1.37289 14.9159 1.26121 14.7066 1.26121H12.3412L10.2925 0.0784717C10.1112 -0.0261377 9.88788 -0.0261768 9.70655 0.0784717L7.65784 1.26117H5.29249C5.08315 1.26117 4.88968 1.37285 4.78503 1.55417L3.60241 3.60285L1.5537 4.7855C1.37237 4.89015 1.26069 5.08359 1.26069 5.29296V7.65831L0.077998 9.70706C-0.0266504 9.88835 -0.0266504 10.1116 0.077998 10.2929L1.26065 12.3417V14.707C1.26065 14.9164 1.37233 15.1098 1.55366 15.2145L3.60237 16.3971L4.78503 18.4458C4.88968 18.6271 5.08312 18.7388 5.29249 18.7388H7.65788L9.70659 19.9215C9.79722 19.9738 9.89839 20 9.99956 20C10.1007 20 10.2019 19.9738 10.2925 19.9215L12.3412 18.7388H14.7066C14.9159 18.7388 15.1094 18.6271 15.214 18.4459L16.3966 16.3972L18.4453 15.2145C18.6266 15.1099 18.7383 14.9164 18.7383 14.7071V12.3417L19.921 10.293C20.0257 10.1116 20.0257 9.88835 19.921 9.70706ZM15.8805 9.77171L15.1831 12.91C14.9943 13.7588 14.2552 14.3516 13.3857 14.3516H5.60628C5.28269 14.3516 5.02034 14.0892 5.02034 13.7656V8.7448C5.02034 8.42121 5.28269 8.15886 5.60628 8.15886H7.96702C8.47519 7.85542 8.78597 7.31292 8.78597 6.71386V4.97917C8.78597 4.65558 9.04831 4.39324 9.3719 4.39324H10.3133C11.5053 4.39324 12.4683 5.35773 12.4683 6.5482V7.53124H14.0833C14.6447 7.53124 15.1681 7.78238 15.5194 8.22027C15.8705 8.65831 16.0021 9.22374 15.8805 9.77171Z" fill="#E4E4DC"/>
</svg>
