<svg width="22" height="24" viewBox="0 0 22 24" fill="none" xmlns="http://www.w3.org/2000/svg">
<g clip-path="url(#clip0_2200_22006)">
<path d="M5.08594 13.7803V18.0771H1.10156" stroke="white" stroke-linecap="round" stroke-linejoin="round"/>
<path d="M17.0391 9.4834V5.18652H21.0234" stroke="white" stroke-linecap="round" stroke-linejoin="round"/>
<path d="M17.2884 5.18359C18.6623 6.7272 19.5013 8.73395 19.6644 10.8663C19.8275 12.9987 19.3047 15.1266 18.1839 16.8921C17.0632 18.6577 15.4128 19.9531 13.5104 20.5605C11.608 21.1679 9.5697 21.0503 7.73828 20.2274" stroke="white" stroke-linecap="round" stroke-linejoin="round"/>
<path d="M4.83504 18.0808C3.46413 16.5364 2.6277 14.5304 2.46621 12.3995C2.30472 10.2686 2.828 8.14275 3.94817 6.3788C5.06835 4.61485 6.71721 3.32026 8.61788 2.71243C10.5185 2.1046 12.5553 2.22053 14.386 3.04078" stroke="white" stroke-linecap="round" stroke-linejoin="round"/>
</g>
<defs>
<clipPath id="clip0_2200_22006">
<rect width="21.25" height="22.9167" fill="white" transform="translate(0.4375 0.175781)"/>
</clipPath>
</defs>
</svg>
