<svg width="33" height="33" viewBox="0 0 33 33" fill="none" xmlns="http://www.w3.org/2000/svg">
<path d="M19.2123 6.79648H7.84205C7.28864 6.79648 6.79453 7.14948 6.79453 7.63345C6.79453 8.11741 7.28864 8.47041 7.84205 8.47041H19.2123C19.7657 8.47041 20.2598 8.11741 20.2598 7.63345C20.2598 7.14948 19.7657 6.79648 19.2123 6.79648Z" fill="#2B2A28" stroke="#2B2A28" stroke-width="0.2"/>
<path d="M16.1802 11.2184H7.92628C7.62305 11.2184 7.34425 11.3061 7.13871 11.4529C6.93337 11.5996 6.79453 11.8112 6.79453 12.0553C6.79453 12.2994 6.93337 12.5111 7.13871 12.6577C7.34425 12.8045 7.62305 12.8923 7.92628 12.8923H16.1802C16.4835 12.8923 16.7623 12.8045 16.9678 12.6577C17.1732 12.5111 17.312 12.2994 17.312 12.0553C17.312 11.8112 17.1732 11.5996 16.9678 11.4529C16.7623 11.3061 16.4835 11.2184 16.1802 11.2184Z" fill="#2B2A28" stroke="#2B2A28" stroke-width="0.2"/>
<path d="M1.51491 25.1813L1.51515 25.1814C1.65782 25.2474 1.81335 25.2815 1.96726 25.2815C2.21276 25.2815 2.45608 25.1962 2.65041 25.0339L8.15718 20.4452H22.2798C24.4688 20.4452 26.2488 18.6652 26.2488 16.4762V4.86905C26.2488 2.68004 24.4688 0.9 22.2798 0.9H4.86905C2.68004 0.9 0.9 2.68004 0.9 4.86905V24.2143C0.9 24.6282 1.13895 25.0061 1.51491 25.1813ZM7.08777 18.5583L7.15179 18.6351L7.08776 18.5583L3.03452 21.9366V4.86905C3.03452 3.85829 3.85648 3.03452 4.86905 3.03452H22.2798C23.2923 3.03452 24.1143 3.85829 24.1143 4.86905V16.4762C24.1143 17.4869 23.2923 18.3107 22.2798 18.3107H7.77083C7.52103 18.3107 7.27979 18.3983 7.08777 18.5583Z" fill="#2B2A28" stroke="#2B2A28" stroke-width="0.2"/>
<path d="M29.918 12.6073V28.7634L26.815 26.2818L26.8148 26.2816C26.6269 26.1322 26.3903 26.049 26.149 26.049H12.6073C11.5948 26.049 10.7728 25.2252 10.7728 24.2145V23.2472C10.7728 22.6581 10.2947 22.1799 9.70554 22.1799C9.11639 22.1799 8.63828 22.6581 8.63828 23.2472V24.2145C8.63828 26.4035 10.4183 28.1835 12.6073 28.1835H25.7734L30.3173 31.8198L30.3178 31.8201C30.5118 31.9736 30.7485 32.0526 30.9853 32.0526C31.1412 32.0526 31.2989 32.0184 31.4477 31.9482L31.4488 31.9477C31.8177 31.7686 32.0526 31.3952 32.0526 30.9853V12.6073C32.0526 10.4183 30.2725 8.63828 28.0835 8.63828C27.4944 8.63828 27.0163 9.11639 27.0163 9.70554C27.0163 10.2947 27.4944 10.7728 28.0835 10.7728C29.0961 10.7728 29.918 11.5966 29.918 12.6073Z" fill="#2B2A28" stroke="#2B2A28" stroke-width="0.2"/>
</svg>
