<svg width="16" height="17" viewBox="0 0 16 17" fill="none" xmlns="http://www.w3.org/2000/svg">
<path d="M15.8472 8.47793L14.2609 6.81949V3.22727C14.2609 2.92605 14.0273 2.68181 13.7391 2.68181H11.6521C11.364 2.68181 11.1304 2.92602 11.1304 3.22727V3.54679L8.36891 0.659734C8.16519 0.446755 7.83482 0.446755 7.63107 0.659734C7.43804 0.861507 0.430664 8.1874 0.152789 8.4779C-0.0509297 8.69091 -0.0509297 9.03631 0.152789 9.24928C0.356539 9.46226 0.686883 9.46226 0.890633 9.24928L1.73913 8.36228V15.9545C1.73913 16.2558 1.97273 16.5 2.26088 16.5C2.52854 16.5 13.7133 16.5 13.7391 16.5C14.0273 16.5 14.2609 16.2558 14.2609 15.9545V8.36228L15.1094 9.24935C15.3131 9.46236 15.6435 9.46236 15.8472 9.24935C16.0509 9.03634 16.0509 8.69098 15.8472 8.47793ZM10.0869 15.4091H5.91304V11.4091C5.91304 10.206 6.84926 9.22723 8.00001 9.22723C9.15076 9.22723 10.087 10.206 10.087 11.4091L10.0869 15.4091ZM13.2174 15.4091H11.1304V11.4091C11.1304 9.60448 9.7261 8.13633 7.99998 8.13633C6.27385 8.13633 4.86954 9.60448 4.86954 11.4091V15.4091H2.7826V7.27138L8.00001 1.81682C8.27129 2.10044 12.9484 6.99012 13.2174 7.27138V15.4091H13.2174ZM13.2174 5.72862L12.1739 4.63772V3.77274H13.2174V5.72862Z" fill="#1C190E"/>
</svg>
