<svg width="16" height="17" viewBox="0 0 16 17" fill="none" xmlns="http://www.w3.org/2000/svg">
<g id="151-carrier" clip-path="url(#clip0_1737_11206)">
<g id="Group">
<g id="Group_2">
<path id="Vector" d="M14.9474 11.9004L15.9909 6.33525C16.051 6.0145 15.8047 5.71737 15.4781 5.71737H13.9129V4.41303L14.1216 4.56956C14.3521 4.74247 14.6792 4.69572 14.852 4.46522C15.0249 4.23472 14.9782 3.90769 14.7477 3.73478L10.5738 0.604344C10.3883 0.465219 10.1333 0.465219 9.94772 0.604344L5.77388 3.73475C5.54338 3.90766 5.49662 4.23469 5.66953 4.46519C5.84244 4.69569 6.16947 4.74241 6.39997 4.56953L6.60866 4.413V5.71734H4.63828L4.06653 1.86903C3.99678 1.09969 3.34244 0.5 2.56784 0.5H0.521719C0.233594 0.5 0 0.733594 0 1.02175C0 1.30988 0.233594 1.54347 0.521719 1.54347H2.56781C2.80741 1.54347 3.00944 1.73056 3.02784 1.96944C3.02878 1.98172 3.03019 1.99394 3.03197 2.00609C3.11669 2.57638 4.67228 13.0471 4.75387 13.5965C4.30219 13.8714 3.99994 14.3683 3.99994 14.9347C3.99994 15.7977 4.70209 16.4999 5.56516 16.4999C6.24531 16.4999 6.82525 16.0637 7.04063 15.4564H11.9157C12.1311 16.0637 12.711 16.4999 13.3912 16.4999C14.2543 16.4999 14.9564 15.7977 14.9564 14.9347C14.9564 14.0716 14.2543 13.3695 13.3912 13.3695C12.711 13.3695 12.1311 13.8057 11.9157 14.4129H7.04063C6.84803 13.8699 6.36391 13.4641 5.77725 13.3842L5.62003 12.326H14.4346C14.6857 12.326 14.9012 12.1472 14.9474 11.9004ZM13.3912 14.4129C13.6789 14.4129 13.9129 14.647 13.9129 14.9347C13.9129 15.2223 13.6788 15.4564 13.3912 15.4564C13.1035 15.4564 12.8695 15.2223 12.8695 14.9347C12.8695 14.647 13.1035 14.4129 13.3912 14.4129ZM7.65209 3.63041L10.2608 1.67391L12.8695 3.63041V5.71734H11.826V5.19562C11.826 4.33256 11.1238 3.63044 10.2608 3.63044C9.39772 3.63044 8.69559 4.33259 8.69559 5.19562V5.71734H7.65212L7.65209 3.63041ZM10.7825 5.19562V5.71734H9.73903V5.19562C9.73903 4.90794 9.97309 4.67391 10.2607 4.67391C10.5485 4.67387 10.7825 4.90794 10.7825 5.19562ZM6.08691 14.9343C6.08691 14.9344 6.08691 14.9345 6.08691 14.9347C6.08691 14.9348 6.08691 14.9349 6.08691 14.935C6.08672 15.2225 5.85278 15.4564 5.56519 15.4564C5.2775 15.4564 5.04344 15.2223 5.04344 14.9347C5.04344 14.647 5.2775 14.4129 5.56519 14.4129C5.85275 14.4129 6.08669 14.6468 6.08691 14.9343ZM5.46503 11.2825L4.79328 6.76084H14.8495L14.0017 11.2825H5.46503Z" fill="black"/>
</g>
</g>
</g>
<defs>
<clipPath id="clip0_1737_11206">
<rect width="16" height="16" fill="white" transform="translate(0 0.5)"/>
</clipPath>
</defs>
</svg>
