<svg width="19" height="18" viewBox="0 0 19 18" fill="none" xmlns="http://www.w3.org/2000/svg">
<g opacity="0.7" clip-path="url(#clip0_505_11446)">
<path d="M13.1192 0.242188H1.30972C0.994122 0.242188 0.738281 0.498028 0.738281 0.813628V17.1946C0.738281 17.5102 0.994122 17.766 1.30972 17.766H13.1192C13.4348 17.766 13.6907 17.5102 13.6907 17.1946V0.813628C13.6907 0.498028 13.4348 0.242188 13.1192 0.242188ZM12.5478 16.6231H1.88113V1.38503H12.5478V16.6231Z" fill="#2B2A28"/>
<path d="M18.2144 3.25519L17.0716 0.588522C16.9815 0.378408 16.7749 0.242188 16.5463 0.242188C16.3178 0.242188 16.1112 0.378408 16.0211 0.588522L14.8782 3.25519C14.8478 3.32631 14.832 3.40291 14.832 3.48029V16.0517C14.832 16.9992 15.5988 17.766 16.5463 17.766C17.4938 17.766 18.2606 16.9993 18.2606 16.0517V3.48029C18.2606 3.40291 18.2449 3.32631 18.2144 3.25519ZM17.1178 16.0517C17.1178 16.3675 16.8622 16.6231 16.5463 16.6231C16.2305 16.6231 15.9749 16.3676 15.9749 16.0517V15.4803H17.1177V16.0517H17.1178ZM17.1178 14.3374H15.9749V4.81361H17.1178V14.3374ZM17.1178 3.67076H15.9749V3.59759L16.5464 2.26424L17.1178 3.59759L17.1178 3.67076Z" fill="#2B2A28"/>
<path d="M8.5467 2.52344H5.88003C5.56447 2.52344 5.30859 2.77928 5.30859 3.09488C5.30859 3.41048 5.56443 3.66632 5.88003 3.66632H8.5467C8.86226 3.66632 9.11814 3.41048 9.11814 3.09488C9.11814 2.77928 8.86226 2.52344 8.5467 2.52344Z" fill="#2B2A28"/>
<path d="M10.833 4.8125H3.59488C3.27931 4.8125 3.02344 5.06834 3.02344 5.38394C3.02344 5.69954 3.27928 5.95538 3.59488 5.95538H10.833C11.1485 5.95538 11.4044 5.69954 11.4044 5.38394C11.4044 5.06834 11.1486 4.8125 10.833 4.8125Z" fill="#2B2A28"/>
<path d="M10.8358 7.08594H8.1691C7.85353 7.08594 7.59766 7.34178 7.59766 7.65738C7.59766 7.97294 7.8535 8.22882 8.1691 8.22882H10.8358C11.1513 8.22882 11.4072 7.97298 11.4072 7.65738C11.4072 7.34178 11.1513 7.08594 10.8358 7.08594Z" fill="#2B2A28"/>
<path d="M5.88061 7.08594H3.59488C3.27931 7.08594 3.02344 7.34178 3.02344 7.65738C3.02344 7.97294 3.27928 8.22882 3.59488 8.22882H5.88061C6.19617 8.22882 6.45205 7.97298 6.45205 7.65738C6.45205 7.34178 6.19617 7.08594 5.88061 7.08594Z" fill="#2B2A28"/>
<path d="M10.833 9.39062H3.59488C3.27931 9.39062 3.02344 9.64647 3.02344 9.96206C3.02344 10.2776 3.27928 10.5335 3.59488 10.5335H10.833C11.1485 10.5335 11.4044 10.2777 11.4044 9.96206C11.4044 9.6465 11.1486 9.39062 10.833 9.39062Z" fill="#2B2A28"/>
<path d="M7.02345 11.6641H3.59488C3.27931 11.6641 3.02344 11.9199 3.02344 12.2355C3.02344 12.5511 3.27928 12.8069 3.59488 12.8069H7.02345C7.33902 12.8069 7.59489 12.5511 7.59489 12.2355C7.59489 11.9199 7.33905 11.6641 7.02345 11.6641Z" fill="#2B2A28"/>
<path d="M10.833 13.9531H3.59488C3.27931 13.9531 3.02344 14.209 3.02344 14.5246C3.02344 14.8402 3.27928 15.096 3.59488 15.096H10.833C11.1485 15.096 11.4044 14.8402 11.4044 14.5246C11.4044 14.209 11.1486 13.9531 10.833 13.9531Z" fill="#2B2A28"/>
<path d="M10.8355 11.6641H9.31167C8.99611 11.6641 8.74023 11.9199 8.74023 12.2355C8.74023 12.5511 8.99608 12.8069 9.31167 12.8069H10.8355C11.1511 12.8069 11.4069 12.5511 11.4069 12.2355C11.4069 11.9199 11.1511 11.6641 10.8355 11.6641Z" fill="#2B2A28"/>
</g>
<defs>
<clipPath id="clip0_505_11446">
<rect width="17.5238" height="17.5238" fill="white" transform="translate(0.738281 0.234375)"/>
</clipPath>
</defs>
</svg>
