<svg width="14" height="19" viewBox="0 0 14 19" fill="none" xmlns="http://www.w3.org/2000/svg">
<g clip-path="url(#clip0_2442_13739)">
<path d="M13.8289 17.5041L9.84773 13.5229C10.6189 12.5703 11.0832 11.3599 11.0832 10.0416C11.0832 6.98615 8.59706 4.5 5.54159 4.5C2.48612 4.5 0 6.98612 0 10.0416C0 13.0971 2.48615 15.5832 5.54162 15.5832C6.85993 15.5832 8.07035 15.1189 9.02291 14.3477L13.0041 18.3289C13.1179 18.4427 13.2672 18.4999 13.4165 18.4999C13.5659 18.4999 13.7152 18.4427 13.829 18.3289C14.057 18.1009 14.057 17.7322 13.8289 17.5041ZM5.54162 14.4166C3.12897 14.4166 1.16666 12.4542 1.16666 10.0416C1.16666 7.62894 3.12897 5.66664 5.54162 5.66664C7.95427 5.66664 9.91658 7.62894 9.91658 10.0416C9.91658 12.4542 7.95425 14.4166 5.54162 14.4166Z" fill="black"/>
</g>
<defs>
<clipPath id="clip0_2442_13739">
<rect width="14" height="17.9999" fill="white" transform="translate(0 0.5)"/>
</clipPath>
</defs>
</svg>
