<svg width="20" height="21" viewBox="0 0 20 21" fill="none" xmlns="http://www.w3.org/2000/svg">
<g clip-path="url(#clip0_1796_8951)">
<path d="M1.22673 11.6298C2.01022 13.4732 3.49394 14.93 5.35149 15.6795C7.20904 16.429 9.28825 16.4099 11.1317 15.6264C12.9752 14.8429 14.4319 13.3592 15.1815 11.5017C15.931 9.64413 15.9119 7.56492 15.1284 5.72144C14.7404 4.80865 14.1765 3.9812 13.4688 3.28635C12.7611 2.59149 11.9234 2.04284 11.0036 1.67172C10.0839 1.30059 9.10001 1.11426 8.10824 1.12337C7.11646 1.13247 6.13619 1.33683 5.2234 1.72477C4.3106 2.11272 3.48315 2.67666 2.7883 3.38439C2.09345 4.09211 1.54479 4.92977 1.17367 5.84954C0.802544 6.7693 0.616214 7.75316 0.625318 8.74493C0.634422 9.73671 0.838782 10.717 1.22673 11.6298Z" stroke="#8D8D87" stroke-width="1.17931" stroke-linecap="round" stroke-linejoin="round"/>
<path d="M13.5195 14.0176L19.377 19.8759" stroke="#8D8D87" stroke-width="1.17931" stroke-linecap="round" stroke-linejoin="round"/>
</g>
<defs>
<clipPath id="clip0_1796_8951">
<rect width="20" height="20" fill="white" transform="translate(0 0.5)"/>
</clipPath>
</defs>
</svg>
