<svg width="20" height="21" viewBox="0 0 20 21" fill="none" xmlns="http://www.w3.org/2000/svg">
<g clip-path="url(#clip0_6782_17612)">
<path d="M1.22673 11.6317C2.01022 13.4752 3.49394 14.9319 5.35149 15.6815C7.20904 16.431 9.28825 16.4119 11.1317 15.6284C12.9752 14.8449 14.4319 13.3612 15.1815 11.5036C15.931 9.64608 15.9119 7.56687 15.1284 5.72339C14.7404 4.8106 14.1765 3.98315 13.4688 3.2883C12.7611 2.59345 11.9234 2.04479 11.0036 1.67367C10.0839 1.30254 9.10001 1.11621 8.10824 1.12532C7.11646 1.13442 6.13619 1.33878 5.2234 1.72673C4.3106 2.11467 3.48315 2.67861 2.7883 3.38634C2.09345 4.09407 1.54479 4.93173 1.17367 5.85149C0.802544 6.77126 0.616214 7.75511 0.625318 8.74689C0.634422 9.73866 0.838782 10.7189 1.22673 11.6317Z" stroke="#8D8D87" stroke-width="1.17931" stroke-linecap="round" stroke-linejoin="round"/>
<path d="M13.5195 14.0156L19.377 19.874" stroke="#8D8D87" stroke-width="1.17931" stroke-linecap="round" stroke-linejoin="round"/>
</g>
<defs>
<clipPath id="clip0_6782_17612">
<rect width="20" height="20" fill="white" transform="translate(0 0.5)"/>
</clipPath>
</defs>
</svg>
