<svg width="12" height="13" viewBox="0 0 12 13" fill="none" xmlns="http://www.w3.org/2000/svg">
<path d="M6 0.375L0.75 2.125V7.375C0.75 10.2748 3.1002 12.625 6 12.625C8.89981 12.625 11.25 10.2748 11.25 7.375V2.125L6 0.375ZM10.2656 7.375C10.2656 9.73066 8.35566 11.6406 6 11.6406C3.64434 11.6406 1.73438 9.73066 1.73438 7.375V2.86328L6 1.35938L10.2656 2.86328V7.375Z" fill="#8E8E93"/>
<path d="M4.17278 5.99385C4.12716 5.94802 4.07294 5.91166 4.01323 5.88684C3.95352 5.86203 3.88949 5.84926 3.82483 5.84926C3.76017 5.84926 3.69615 5.86203 3.63644 5.88684C3.57672 5.91166 3.5225 5.94802 3.47688 5.99385C3.43106 6.03946 3.39469 6.09369 3.36988 6.1534C3.34507 6.21311 3.33229 6.27713 3.33229 6.3418C3.33229 6.40646 3.34507 6.47048 3.36988 6.53019C3.39469 6.58991 3.43106 6.64413 3.47688 6.68975L5.27474 8.4876C5.31789 8.53083 5.36914 8.56513 5.42556 8.58853C5.48198 8.61193 5.54246 8.62397 5.60354 8.62397C5.66463 8.62397 5.72511 8.61193 5.78153 8.58853C5.83795 8.56513 5.8892 8.53083 5.93235 8.4876L8.98802 5.43193C9.03125 5.38878 9.06555 5.33753 9.08895 5.28111C9.11235 5.22469 9.12439 5.16421 9.12439 5.10312C9.12439 5.04204 9.11235 4.98156 9.08895 4.92514C9.06555 4.86872 9.03125 4.81747 8.98802 4.77432L8.94974 4.73603C8.90658 4.6928 8.85533 4.6585 8.79891 4.6351C8.74249 4.6117 8.68201 4.59966 8.62093 4.59966C8.55984 4.59966 8.49936 4.6117 8.44294 4.6351C8.38652 4.6585 8.33527 4.6928 8.29212 4.73603L5.60286 7.42393L4.17278 5.99385Z" fill="#8E8E93"/>
</svg>
