<svg width="48" height="49" viewBox="0 0 48 49" fill="none" xmlns="http://www.w3.org/2000/svg">
<g id="Shop 2" clip-path="url(#clip0_4146_100397)">
<path id="Vector" d="M43.5 25.5967V43.5967C43.5 44.3923 43.1839 45.1554 42.6213 45.718C42.0587 46.2806 41.2956 46.5967 40.5 46.5967H7.5C6.70435 46.5967 5.94129 46.2806 5.37868 45.718C4.81607 45.1554 4.5 44.3923 4.5 43.5967V25.5967" stroke="#1C190E" stroke-width="1.71" stroke-linecap="round" stroke-linejoin="round"/>
<path id="Vector_2" d="M37.5 33.0967C37.5 31.5054 36.8679 29.9793 35.7426 28.854C34.6174 27.7288 33.0913 27.0967 31.5 27.0967C29.9087 27.0967 28.3826 27.7288 27.2574 28.854C26.1321 29.9793 25.5 31.5054 25.5 33.0967V46.5967H37.5V33.0967Z" stroke="#1C190E" stroke-width="1.71" stroke-linecap="round" stroke-linejoin="round"/>
<path id="Vector_3" d="M18 31.5967H12C11.6022 31.5967 11.2206 31.7547 10.9393 32.036C10.658 32.3173 10.5 32.6989 10.5 33.0967V39.0967C10.5 39.9247 11.172 40.5967 12 40.5967H18C18.3978 40.5967 18.7794 40.4386 19.0607 40.1573C19.342 39.876 19.5 39.4945 19.5 39.0967V33.0967C19.5 32.6989 19.342 32.3173 19.0607 32.036C18.7794 31.7547 18.3978 31.5967 18 31.5967Z" stroke="#1C190E" stroke-width="1.71" stroke-linecap="round" stroke-linejoin="round"/>
<path id="Vector_4" d="M32.25 37.6162C32.0511 37.6162 31.8603 37.5372 31.7197 37.3965C31.579 37.2559 31.5 37.0651 31.5 36.8662C31.5 36.6673 31.579 36.4765 31.7197 36.3359C31.8603 36.1952 32.0511 36.1162 32.25 36.1162" stroke="#1C190E" stroke-width="1.71"/>
<path id="Vector_5" d="M32.25 37.6162C32.4489 37.6162 32.6397 37.5372 32.7803 37.3965C32.921 37.2559 33 37.0651 33 36.8662C33 36.6673 32.921 36.4765 32.7803 36.3359C32.6397 36.1952 32.4489 36.1162 32.25 36.1162" stroke="#1C190E" stroke-width="1.71"/>
<path id="Vector_6" d="M1.5 15.0967C1.58558 16.5318 2.216 17.8801 3.26243 18.866C4.30886 19.8519 5.69229 20.401 7.13 20.401C8.56771 20.401 9.95114 19.8519 10.9976 18.866C12.044 17.8801 12.6744 16.5318 12.76 15.0967C12.76 16.5872 13.3521 18.0167 14.4061 19.0706C15.46 20.1246 16.8895 20.7167 18.38 20.7167C19.8705 20.7167 21.3 20.1246 22.3539 19.0706C23.4079 18.0167 24 16.5872 24 15.0967C24.0856 16.5318 24.716 17.8801 25.7624 18.866C26.8089 19.8519 28.1923 20.401 29.63 20.401C31.0677 20.401 32.4511 19.8519 33.4976 18.866C34.544 17.8801 35.1744 16.5318 35.26 15.0967C35.26 16.5872 35.8521 18.0167 36.9061 19.0706C37.96 20.1246 39.3895 20.7167 40.88 20.7167C42.3705 20.7167 43.8 20.1246 44.8539 19.0706C45.9079 18.0167 46.5 16.5872 46.5 15.0967L43.76 2.77668C43.6872 2.44324 43.5028 2.14459 43.2374 1.93006C42.972 1.71552 42.6413 1.59792 42.3 1.59668H5.7C5.3587 1.59792 5.02804 1.71552 4.76259 1.93006C4.49715 2.14459 4.31281 2.44324 4.24 2.77668L1.5 15.0967Z" stroke="#1C190E" stroke-width="1.71" stroke-linecap="round" stroke-linejoin="round"/>
</g>
<defs>
<clipPath id="clip0_4146_100397">
<rect width="48" height="48" fill="white" transform="translate(0 0.0966797)"/>
</clipPath>
</defs>
</svg>
