<svg width="18" height="18" viewBox="0 0 18 18" fill="none" xmlns="http://www.w3.org/2000/svg">
<g opacity="0.7" clip-path="url(#clip0_531_11581)">
<path d="M16.4064 7.95542V6.14284C16.4064 5.19758 15.6373 4.42855 14.6921 4.42855H12.4807L8.78599 1.14434C8.56951 0.951887 8.2432 0.951887 8.02672 1.14434L4.33193 4.42858H2.88252C1.30709 4.42858 0.0253906 5.71028 0.0253906 7.28572V14.1429C0.0253906 15.7183 1.30709 17 2.88252 17H14.692C15.6373 17 16.4063 16.231 16.4063 15.2857V13.4731C17.0714 13.2372 17.5492 12.6021 17.5492 11.8571V9.57141C17.5492 8.82648 17.0714 8.19131 16.4064 7.95542ZM8.40636 2.33596L10.7605 4.42858H6.05218L8.40636 2.33596ZM15.2635 15.2857C15.2635 15.6008 15.0071 15.8572 14.692 15.8572H2.88252C1.93727 15.8572 1.16824 15.0881 1.16824 14.1429V7.28572C1.16824 6.34046 1.93727 5.57143 2.88252 5.57143H14.692C15.0071 5.57143 15.2635 5.82778 15.2635 6.14287V7.85716H13.5492C11.9738 7.85716 10.6921 9.13886 10.6921 10.7143C10.6921 12.2897 11.9738 13.5714 13.5492 13.5714H15.2635V15.2857ZM16.4064 11.8571C16.4064 12.1722 16.15 12.4286 15.8349 12.4286H13.5492C12.6039 12.4286 11.8349 11.6596 11.8349 10.7143C11.8349 9.76903 12.6039 9 13.5492 9H15.8349C16.15 9 16.4064 9.25636 16.4064 9.57144V11.8571Z" fill="#2B2A28"/>
<path d="M13.548 11.2835C13.8636 11.2835 14.1194 11.0277 14.1194 10.7121C14.1194 10.3965 13.8636 10.1406 13.548 10.1406C13.2324 10.1406 12.9766 10.3965 12.9766 10.7121C12.9766 11.0277 13.2324 11.2835 13.548 11.2835Z" fill="#2B2A28"/>
</g>
<defs>
<clipPath id="clip0_531_11581">
<rect width="17.5238" height="17.5238" fill="white" transform="translate(0.0253906 0.234375)"/>
</clipPath>
</defs>
</svg>
