<svg width="32" height="28" viewBox="0 0 32 28" fill="none" xmlns="http://www.w3.org/2000/svg">
<path d="M29.7656 0.787109H2.26562C1.68546 0.787109 1.12906 1.01758 0.718829 1.42781C0.308593 1.83805 0.078125 2.39445 0.078125 2.97461V25.4746C0.078125 26.0548 0.308593 26.6112 0.718829 27.0214C1.12906 27.4316 1.68546 27.6621 2.26562 27.6621H29.7656C30.3458 27.6621 30.9022 27.4316 31.3124 27.0214C31.7227 26.6112 31.9531 26.0548 31.9531 25.4746V2.97461C31.9531 2.39445 31.7227 1.83805 31.3124 1.42781C30.9022 1.01758 30.3458 0.787109 29.7656 0.787109ZM30.0781 25.4746C30.0781 25.5575 30.0452 25.637 29.9866 25.6956C29.928 25.7542 29.8485 25.7871 29.7656 25.7871H2.26562C2.18274 25.7871 2.10326 25.7542 2.04465 25.6956C1.98605 25.637 1.95312 25.5575 1.95312 25.4746V2.97461C1.95312 2.89173 1.98605 2.81224 2.04465 2.75364C2.10326 2.69503 2.18274 2.66211 2.26562 2.66211H29.7656C29.8485 2.66211 29.928 2.69503 29.9866 2.75364C30.0452 2.81224 30.0781 2.89173 30.0781 2.97461V25.4746ZM23.2031 7.97461C23.2031 9.88085 22.4459 11.709 21.098 13.0569C19.75 14.4049 17.9219 15.1621 16.0156 15.1621C14.1094 15.1621 12.2812 14.4049 10.9333 13.0569C9.58538 11.709 8.82812 9.88085 8.82812 7.97461C8.82812 7.72597 8.9269 7.48751 9.10271 7.3117C9.27853 7.13588 9.51698 7.03711 9.76562 7.03711C10.0143 7.03711 10.2527 7.13588 10.4285 7.3117C10.6044 7.48751 10.7031 7.72597 10.7031 7.97461C10.7031 9.38357 11.2628 10.7348 12.2591 11.7311C13.2554 12.7274 14.6067 13.2871 16.0156 13.2871C17.4246 13.2871 18.7758 12.7274 19.7721 11.7311C20.7684 10.7348 21.3281 9.38357 21.3281 7.97461C21.3281 7.72597 21.4269 7.48751 21.6027 7.3117C21.7785 7.13588 22.017 7.03711 22.2656 7.03711C22.5143 7.03711 22.7527 7.13588 22.9285 7.3117C23.1044 7.48751 23.2031 7.72597 23.2031 7.97461Z" fill="#A79F92"/>
</svg>
