<svg width="25" height="17" viewBox="0 0 25 17" fill="none" xmlns="http://www.w3.org/2000/svg">
<g id="Group 38460">
<path id="Vector" d="M12.7484 1.75121C8.71736 1.68321 4.54836 4.50021 1.92736 7.38521C1.65225 7.69064 1.5 8.08714 1.5 8.49821C1.5 8.90927 1.65225 9.30578 1.92736 9.61121C4.49136 12.4352 8.64836 15.3172 12.7484 15.2482C16.8484 15.3172 21.0064 12.4352 23.5724 9.61121C23.8475 9.30578 23.9997 8.90927 23.9997 8.49821C23.9997 8.08714 23.8475 7.69064 23.5724 7.38521C20.9484 4.50021 16.7794 1.68321 12.7484 1.75121Z" stroke="#1C190E" stroke-width="1.71" stroke-linecap="round" stroke-linejoin="round"/>
<path id="Vector_2" d="M16.5 8.501C16.4998 9.24264 16.2797 9.96756 15.8675 10.5841C15.4554 11.2007 14.8696 11.6812 14.1844 11.9648C13.4991 12.2485 12.7452 12.3226 12.0178 12.1778C11.2904 12.033 10.6223 11.6758 10.098 11.1513C9.57365 10.6268 9.2166 9.95862 9.07198 9.23122C8.92737 8.50382 9.00169 7.74987 9.28555 7.06471C9.56941 6.37954 10.0501 5.79393 10.6667 5.38192C11.2834 4.96991 12.0084 4.75 12.75 4.75C13.2426 4.74987 13.7304 4.84681 14.1855 5.03528C14.6405 5.22375 15.054 5.50006 15.4023 5.84841C15.7506 6.19676 16.0268 6.61033 16.2151 7.06547C16.4035 7.52062 16.5003 8.00842 16.5 8.501Z" stroke="#1C190E" stroke-width="1.71" stroke-linecap="round" stroke-linejoin="round"/>
</g>
</svg>
