<svg width="16" height="12" viewBox="0 0 16 12" fill="none" xmlns="http://www.w3.org/2000/svg">
<path d="M4.8398 4.45437L4.83984 4.45442C4.87857 4.49497 4.90799 4.54189 4.92663 4.59239C4.94526 4.64288 4.95283 4.69611 4.94898 4.7491C4.94514 4.80209 4.92994 4.85404 4.90408 4.90198C4.87822 4.94993 4.84215 4.99304 4.79772 5.02867L4.7977 5.02868L3.7997 5.82971L3.68883 5.9187H3.831H6.5C6.62067 5.9187 6.73562 5.96273 6.81975 6.03992C6.90373 6.11698 6.95 6.22052 6.95 6.32748C6.95 6.43444 6.90373 6.53799 6.81975 6.61504C6.73562 6.69224 6.62067 6.73626 6.5 6.73626H3.83H3.68773L3.79872 6.82526L4.79866 7.62716C4.88832 7.69927 4.94203 7.80014 4.9497 7.90707C4.95737 8.01395 4.91856 8.12004 4.84034 8.20192C4.76198 8.28395 4.65043 8.33486 4.52987 8.34214C4.40929 8.34942 4.29112 8.31237 4.20134 8.24016L4.2013 8.24013L2.2013 6.63441L2.20128 6.63439C2.15305 6.59572 2.11472 6.54829 2.08857 6.49547C2.06244 6.44267 2.04901 6.38556 2.04901 6.32794C2.04901 6.27032 2.06244 6.21321 2.08857 6.16041C2.11472 6.10759 2.15305 6.06016 2.20128 6.02149L2.2013 6.02147L4.2013 4.41575L4.20133 4.41572C4.24572 4.38003 4.29757 4.35254 4.35398 4.33501C4.41039 4.31748 4.47012 4.3103 4.52969 4.31394C4.58927 4.31758 4.64735 4.33196 4.70061 4.35614C4.75386 4.38031 4.80111 4.41376 4.8398 4.45437ZM12.2003 6.82617L12.2004 6.82626L12.2028 6.82402L12.2038 6.8231L12.2984 6.73626H12.17H9.5C9.37933 6.73626 9.26438 6.69224 9.18025 6.61504C9.09627 6.53799 9.05 6.43444 9.05 6.32748C9.05 6.22052 9.09627 6.11698 9.18025 6.03992C9.26438 5.96273 9.37933 5.9187 9.5 5.9187H12.169H12.3112L12.2003 5.82971L11.2025 5.02883C11.2024 5.02879 11.2024 5.02876 11.2023 5.02872C11.1135 4.95668 11.0604 4.85626 11.0529 4.7499C11.0454 4.64353 11.084 4.53797 11.1617 4.45639C11.2395 4.37465 11.3503 4.32372 11.4703 4.31602C11.5902 4.30833 11.7079 4.34458 11.7978 4.41585C11.7979 4.41588 11.7979 4.4159 11.7979 4.41593L13.7977 6.02147L13.7977 6.02149C13.846 6.06016 13.8843 6.10759 13.9104 6.16041C13.9366 6.21321 13.95 6.27032 13.95 6.32794C13.95 6.38556 13.9366 6.44267 13.9104 6.49547C13.8843 6.54829 13.846 6.59572 13.7977 6.63439L13.7977 6.63441L11.7979 8.23995C11.7979 8.23998 11.7979 8.24 11.7978 8.24003C11.7079 8.3113 11.5902 8.34755 11.4703 8.33986C11.3503 8.33216 11.2395 8.28123 11.1617 8.19949C11.084 8.11791 11.0454 8.01235 11.0529 7.90598C11.0604 7.79962 11.1135 7.6992 11.2023 7.62716C11.2024 7.62712 11.2024 7.62709 11.2025 7.62705L12.2003 6.82617ZM0.05 2.65542C0.05 2.18344 0.254303 1.72982 0.61959 1.39465C0.985022 1.05934 1.48151 0.870313 2 0.870313H14C14.5185 0.870313 15.015 1.05934 15.3804 1.39465C15.7457 1.72982 15.95 2.18344 15.95 2.65542V10.0005C15.95 10.4724 15.7457 10.9261 15.3804 11.2612C15.015 11.5965 14.5185 11.7856 14 11.7856H2C1.48151 11.7856 0.985022 11.5965 0.61959 11.2612C0.254303 10.9261 0.05 10.4724 0.05 10.0005V2.65542ZM2 1.68787C1.72284 1.68787 1.45627 1.78885 1.25909 1.96977C1.06177 2.15083 0.95 2.39736 0.95 2.65542V10.0005C0.95 10.2585 1.06177 10.5051 1.25909 10.6861C1.45627 10.867 1.72284 10.968 2 10.968H14C14.2772 10.968 14.5437 10.867 14.7409 10.6861C14.9382 10.5051 15.05 10.2585 15.05 10.0005V2.65542C15.05 2.39736 14.9382 2.15083 14.7409 1.96977C14.5437 1.78885 14.2772 1.68787 14 1.68787H2Z" fill="#6B6A69" stroke="#ECECEC" stroke-width="0.1"/>
</svg>
