<svg width="16" height="16" viewBox="0 0 16 16" fill="none" xmlns="http://www.w3.org/2000/svg">
<g clip-path="url(#clip0_2573_19578)">
<path d="M14.5 6.25C14.2348 6.25 13.9804 6.35536 13.7929 6.54289C13.6054 6.73043 13.5 6.98478 13.5 7.25V8.25C13.5 8.38261 13.4473 8.50979 13.3536 8.60355C13.2598 8.69732 13.1326 8.75 13 8.75H3C2.86739 8.75 2.74021 8.69732 2.64645 8.60355C2.55268 8.50979 2.5 8.38261 2.5 8.25V7.25C2.5 6.98478 2.39464 6.73043 2.20711 6.54289C2.01957 6.35536 1.76522 6.25 1.5 6.25C1.23478 6.25 0.98043 6.35536 0.792893 6.54289C0.605357 6.73043 0.5 6.98478 0.5 7.25V9.25C0.5 9.78043 0.710714 10.2891 1.08579 10.6642C1.46086 11.0393 1.96957 11.25 2.5 11.25H13.5C14.0304 11.25 14.5391 11.0393 14.9142 10.6642C15.2893 10.2891 15.5 9.78043 15.5 9.25V7.25C15.5 6.98478 15.3946 6.73043 15.2071 6.54289C15.0196 6.35536 14.7652 6.25 14.5 6.25Z" stroke="#6B6A69" stroke-width="1.14" stroke-linecap="round" stroke-linejoin="round"/>
<path d="M2.5 11.25V12.75" stroke="#6B6A69" stroke-width="1.14" stroke-linecap="round" stroke-linejoin="round"/>
<path d="M13.5 11.25V12.75" stroke="#6B6A69" stroke-width="1.14" stroke-linecap="round" stroke-linejoin="round"/>
<path d="M1.5 6.25C1.5 5.45435 1.81607 4.69129 2.37868 4.12868C2.94129 3.56607 3.70435 3.25 4.5 3.25H11.5C12.2956 3.25 13.0587 3.56607 13.6213 4.12868C14.1839 4.69129 14.5 5.45435 14.5 6.25" stroke="#6B6A69" stroke-width="1.14" stroke-linecap="round" stroke-linejoin="round"/>
<path d="M8 8.75V3.25" stroke="#6B6A69" stroke-width="1.14" stroke-linecap="round" stroke-linejoin="round"/>
</g>
<defs>
<clipPath id="clip0_2573_19578">
<rect width="16" height="16" fill="white"/>
</clipPath>
</defs>
</svg>
