<svg width="20" height="20" viewBox="0 0 20 20" fill="none" xmlns="http://www.w3.org/2000/svg">
<path d="M18.7491 10.0036L19.8531 8.0956C19.9858 7.86604 20.0219 7.59318 19.9535 7.33703C19.885 7.08087 19.7176 6.86238 19.4881 6.7296L17.5781 5.6256V3.4256C17.5781 3.16038 17.4728 2.90603 17.2852 2.71849C17.0977 2.53095 16.8433 2.4256 16.5781 2.4256H14.3791L13.2761 0.516598C13.1429 0.287514 12.9249 0.120103 12.6691 0.0505975C12.5423 0.0162134 12.4099 0.0073473 12.2796 0.0245131C12.1493 0.0416789 12.0237 0.0845352 11.9101 0.150598L10.0001 1.2546L8.09013 0.149597C7.86045 0.0169952 7.58751 -0.0189394 7.33133 0.0496984C7.07516 0.118336 6.85674 0.285925 6.72413 0.515598L5.62013 2.4256H3.42113C3.15592 2.4256 2.90156 2.53095 2.71403 2.71849C2.52649 2.90603 2.42113 3.16038 2.42113 3.4256V5.6246L0.511133 6.7286C0.397165 6.79415 0.297273 6.88158 0.217197 6.98586C0.137121 7.09014 0.0784389 7.20921 0.0445217 7.33624C0.0106046 7.46326 0.00212117 7.59574 0.0195588 7.72606C0.0369965 7.85637 0.0800115 7.98196 0.146133 8.0956L1.25013 10.0036L0.146133 11.9116C0.0141214 12.1414 -0.0216953 12.414 0.0464911 12.6701C0.114678 12.9262 0.281337 13.1449 0.510133 13.2786L2.42013 14.3826V16.5816C2.42013 16.8468 2.52549 17.1012 2.71303 17.2887C2.90056 17.4762 3.15492 17.5816 3.42013 17.5816H5.62013L6.72413 19.4916C6.81266 19.6429 6.93907 19.7686 7.09091 19.8563C7.24275 19.944 7.4148 19.9906 7.59013 19.9916C7.76413 19.9916 7.93713 19.9456 8.09113 19.8566L9.99913 18.7526L11.9091 19.8566C12.1388 19.989 12.4115 20.025 12.6676 19.9565C12.9237 19.8881 13.1422 19.7209 13.2751 19.4916L14.3781 17.5816H16.5771C16.8424 17.5816 17.0967 17.4762 17.2842 17.2887C17.4718 17.1012 17.5771 16.8468 17.5771 16.5816V14.3826L19.4871 13.2786C19.6009 13.2129 19.7006 13.1253 19.7805 13.021C19.8605 12.9167 19.919 12.7977 19.9529 12.6707C19.9868 12.5438 19.9954 12.4114 19.9781 12.2811C19.9608 12.1509 19.918 12.0253 19.8521 11.9116L18.7491 10.0036ZM7.49913 4.9936C7.89709 4.99373 8.2787 5.15195 8.56 5.43344C8.8413 5.71493 8.99926 6.09664 8.99913 6.4946C8.999 6.89256 8.84079 7.27416 8.55929 7.55547C8.2778 7.83677 7.89609 7.99473 7.49813 7.9946C7.10018 7.99447 6.71857 7.83625 6.43727 7.55476C6.15596 7.27327 5.998 6.89155 5.99813 6.4936C5.99827 6.09564 6.15648 5.71404 6.43797 5.43273C6.71946 5.15143 7.10117 4.99346 7.49913 4.9936ZM7.79913 14.5936L6.19913 13.3946L12.1991 5.3946L13.7991 6.5936L7.79913 14.5936ZM12.4991 14.9936C12.3021 14.9935 12.107 14.9547 11.925 14.8792C11.7429 14.8037 11.5776 14.6931 11.4383 14.5538C11.299 14.4144 11.1885 14.2489 11.1132 14.0669C11.0378 13.8848 10.9991 13.6896 10.9991 13.4926C10.9992 13.2955 11.0381 13.1004 11.1135 12.9184C11.189 12.7364 11.2996 12.571 11.439 12.4317C11.5784 12.2924 11.7438 12.182 11.9259 12.1066C12.108 12.0313 12.3031 11.9925 12.5001 11.9926C12.8981 11.9927 13.2797 12.1509 13.561 12.4324C13.8423 12.7139 14.0003 13.0956 14.0001 13.4936C14 13.8916 13.8418 14.2732 13.5603 14.5545C13.2788 14.8358 12.8971 14.9937 12.4991 14.9936Z" fill="#E4E4DC"/>
</svg>
