<svg width="17" height="17" viewBox="0 0 17 17" fill="none" xmlns="http://www.w3.org/2000/svg">
<g id="Icon" opacity="0.7" clip-path="url(#clip0_1023_2823)">
<g id="Group">
<g id="Group_2">
<path id="Vector" d="M5.36694 5.09375C3.80119 5.09375 2.52734 6.36759 2.52734 7.93334C2.52734 9.49909 3.80119 10.7729 5.36694 10.7729C6.93269 10.7729 8.20653 9.49909 8.20653 7.93334C8.20653 6.36759 6.93269 5.09375 5.36694 5.09375ZM5.36694 9.83544C4.31809 9.83544 3.46484 8.98216 3.46484 7.93334C3.46484 6.88453 4.31813 6.03125 5.36694 6.03125C6.41575 6.03125 7.26903 6.88453 7.26903 7.93334C7.26903 8.98216 6.41575 9.83544 5.36694 9.83544Z" fill="#2B2A28"/>
<path id="Vector_2" d="M16.0312 11.4951H12.4411V10.5276C12.4411 10.2687 12.2312 10.0589 11.9723 10.0589H10.2329V7.84892C10.2329 7.49714 10.195 7.15408 10.1238 6.82326L10.8063 6.31336C11.1027 6.09195 11.2951 5.76836 11.3482 5.40223C11.4012 5.03608 11.3084 4.67123 11.087 4.37483L10.3078 3.3318C10.0864 3.03539 9.76284 2.84298 9.39669 2.78995C9.0305 2.73695 8.66569 2.82967 8.36928 3.05111L7.67809 3.56745C6.99003 3.19448 6.20256 2.98245 5.36647 2.98245C2.68306 2.98248 0.5 5.16555 0.5 7.84892V11.5971C0.5 12.8498 1.51916 13.869 2.77187 13.869H11.9723C12.2312 13.869 12.4411 13.6591 12.4411 13.4002V12.4326H15.5625V13.3942C15.5625 13.653 15.7724 13.8629 16.0312 13.8629C16.2901 13.8629 16.5 13.653 16.5 13.3942V11.9639C16.5 11.705 16.2901 11.4951 16.0312 11.4951ZM8.93034 3.80217C9.02609 3.73064 9.14391 3.70064 9.26234 3.7178C9.38066 3.73492 9.48519 3.79711 9.55675 3.89286L10.336 4.93592C10.4075 5.0317 10.4375 5.14958 10.4204 5.26789C10.4032 5.3862 10.3411 5.49076 10.2453 5.5623L9.81728 5.88205C9.51484 5.2003 9.06025 4.60061 8.49681 4.12608L8.93034 3.80217ZM11.5036 12.9315H2.77187C2.03609 12.9315 1.4375 12.3329 1.4375 11.5971V7.84892C1.4375 5.68248 3.20003 3.91998 5.36647 3.91998C7.53291 3.91998 9.29544 5.68251 9.29544 7.84895V10.5276C9.29544 10.7865 9.50531 10.9964 9.76419 10.9964H11.5036V12.9315H11.5036Z" fill="#2B2A28"/>
</g>
</g>
</g>
<defs>
<clipPath id="clip0_1023_2823">
<rect width="16" height="16" fill="white" transform="translate(0.5 0.322266)"/>
</clipPath>
</defs>
</svg>
