<svg width="12" height="12" viewBox="0 0 12 12" fill="none" xmlns="http://www.w3.org/2000/svg">
<g id="Real Estate Dimensions Block" clip-path="url(#clip0_4268_28416)">
<path id="Vector" d="M4.875 4.125H10.875C10.875 4.125 11.625 4.125 11.625 4.875V10.875C11.625 10.875 11.625 11.625 10.875 11.625H4.875C4.875 11.625 4.125 11.625 4.125 10.875V4.875C4.125 4.875 4.125 4.125 4.875 4.125Z" stroke="#666666" stroke-linecap="round" stroke-linejoin="round"/>
<path id="Vector_2" d="M4.125 6.375H6" stroke="#666666" stroke-linecap="round" stroke-linejoin="round"/>
<path id="Vector_3" d="M4.125 10.125H6.375V11.625" stroke="#666666" stroke-linecap="round" stroke-linejoin="round"/>
<path id="Vector_4" d="M9.375 9.375H11.625" stroke="#666666" stroke-linecap="round" stroke-linejoin="round"/>
<path id="Vector_5" d="M11.625 6H9V4.125" stroke="#666666" stroke-linecap="round" stroke-linejoin="round"/>
<path id="Vector_6" d="M7.5 4.125V8.25H5.625" stroke="#666666" stroke-linecap="round" stroke-linejoin="round"/>
<path id="Vector_7" d="M1.5 2.625V11.625" stroke="#666666" stroke-linecap="round" stroke-linejoin="round"/>
<path id="Vector_8" d="M0.375 10.5L1.5 11.625L2.625 10.5" stroke="#666666" stroke-linecap="round" stroke-linejoin="round"/>
<path id="Vector_9" d="M2.625 3.75L1.5 2.625L0.375 3.75" stroke="#666666" stroke-linecap="round" stroke-linejoin="round"/>
<path id="Vector_10" d="M11.625 1.5H2.625" stroke="#666666" stroke-linecap="round" stroke-linejoin="round"/>
<path id="Vector_11" d="M3.75 0.375L2.625 1.5L3.75 2.625" stroke="#666666" stroke-linecap="round" stroke-linejoin="round"/>
<path id="Vector_12" d="M10.5 2.625L11.625 1.5L10.5 0.375" stroke="#666666" stroke-linecap="round" stroke-linejoin="round"/>
<path id="Vector_13" d="M9.375 8.25V11.625" stroke="#666666" stroke-linecap="round" stroke-linejoin="round"/>
</g>
<defs>
<clipPath id="clip0_4268_28416">
<rect width="12" height="12" fill="white"/>
</clipPath>
</defs>
</svg>
