<svg width="19" height="18" viewBox="0 0 19 18" fill="none" xmlns="http://www.w3.org/2000/svg">
<g id="151-studying 1" clip-path="url(#clip0_7952_26678)">
<g id="Group">
<g id="Group_2">
<path id="Vector" d="M12.8809 0.249023H1.07144C0.755841 0.249023 0.5 0.504864 0.5 0.820464V17.2014C0.5 17.517 0.755841 17.7728 1.07144 17.7728H12.8809C13.1965 17.7728 13.4524 17.517 13.4524 17.2014V0.820464C13.4524 0.504864 13.1965 0.249023 12.8809 0.249023ZM12.3095 16.63H1.64285V1.39187H12.3095V16.63Z" fill="#2B2A28"/>
</g>
</g>
<g id="Group_3">
<g id="Group_4">
<path id="Vector_2" d="M17.9761 3.26202L16.8333 0.595358C16.7432 0.385244 16.5366 0.249023 16.308 0.249023C16.0795 0.249023 15.8729 0.385244 15.7828 0.595358L14.64 3.26202C14.6095 3.33315 14.5938 3.40974 14.5938 3.48713V16.0585C14.5938 17.0061 15.3605 17.7728 16.308 17.7728C17.2556 17.7728 18.0223 17.0061 18.0223 16.0585V3.48713C18.0223 3.40974 18.0066 3.33315 17.9761 3.26202ZM16.8795 16.0585C16.8795 16.3744 16.6239 16.63 16.308 16.63C15.9922 16.63 15.7366 16.3745 15.7366 16.0585V15.4871H16.8794V16.0585H16.8795ZM16.8795 14.3443H15.7366V4.82044H16.8795V14.3443ZM16.8795 3.6776H15.7366V3.60442L16.3081 2.27107L16.8795 3.60442L16.8795 3.6776Z" fill="#2B2A28"/>
</g>
</g>
<g id="Group_5">
<g id="Group_6">
<path id="Vector_3" d="M8.30842 2.52539H5.64175C5.32619 2.52539 5.07031 2.78123 5.07031 3.09683C5.07031 3.41243 5.32615 3.66827 5.64175 3.66827H8.30842C8.62398 3.66827 8.87986 3.41243 8.87986 3.09683C8.87986 2.78123 8.62398 2.52539 8.30842 2.52539Z" fill="#2B2A28"/>
</g>
</g>
<g id="Group_7">
<g id="Group_8">
<path id="Vector_4" d="M10.5947 4.81641H3.3566C3.04103 4.81641 2.78516 5.07225 2.78516 5.38785C2.78516 5.70345 3.041 5.95929 3.3566 5.95929H10.5947C10.9102 5.95929 11.1661 5.70345 11.1661 5.38785C11.1661 5.07225 10.9103 4.81641 10.5947 4.81641Z" fill="#2B2A28"/>
</g>
</g>
<g id="Group_9">
<g id="Group_10">
<path id="Vector_5" d="M10.5975 7.0918H7.93082C7.61525 7.0918 7.35938 7.34764 7.35938 7.66324C7.35938 7.9788 7.61522 8.23468 7.93082 8.23468H10.5975C10.913 8.23468 11.1689 7.97884 11.1689 7.66324C11.1689 7.34764 10.913 7.0918 10.5975 7.0918Z" fill="#2B2A28"/>
</g>
</g>
<g id="Group_11">
<g id="Group_12">
<path id="Vector_6" d="M5.64232 7.0918H3.3566C3.04103 7.0918 2.78516 7.34764 2.78516 7.66324C2.78516 7.9788 3.041 8.23468 3.3566 8.23468H5.64232C5.95789 8.23468 6.21376 7.97884 6.21376 7.66324C6.21376 7.34764 5.95789 7.0918 5.64232 7.0918Z" fill="#2B2A28"/>
</g>
</g>
<g id="Group_13">
<g id="Group_14">
<path id="Vector_7" d="M10.5947 9.39355H3.3566C3.04103 9.39355 2.78516 9.64939 2.78516 9.96499C2.78516 10.2806 3.041 10.5364 3.3566 10.5364H10.5947C10.9102 10.5364 11.1661 10.2806 11.1661 9.96499C11.1661 9.64943 10.9103 9.39355 10.5947 9.39355Z" fill="#2B2A28"/>
</g>
</g>
<g id="Group_15">
<g id="Group_16">
<path id="Vector_8" d="M6.78517 11.6689H3.3566C3.04103 11.6689 2.78516 11.9248 2.78516 12.2404C2.78516 12.556 3.041 12.8118 3.3566 12.8118H6.78517C7.10074 12.8118 7.35661 12.556 7.35661 12.2404C7.35661 11.9248 7.10077 11.6689 6.78517 11.6689Z" fill="#2B2A28"/>
</g>
</g>
<g id="Group_17">
<g id="Group_18">
<path id="Vector_9" d="M10.5947 13.96H3.3566C3.04103 13.96 2.78516 14.2158 2.78516 14.5314C2.78516 14.847 3.041 15.1028 3.3566 15.1028H10.5947C10.9102 15.1028 11.1661 14.847 11.1661 14.5314C11.1661 14.2158 10.9103 13.96 10.5947 13.96Z" fill="#2B2A28"/>
</g>
</g>
<g id="Group_19">
<g id="Group_20">
<path id="Vector_10" d="M10.5953 11.6689H9.07144C8.75587 11.6689 8.5 11.9248 8.5 12.2404C8.5 12.556 8.75584 12.8118 9.07144 12.8118H10.5953C10.9108 12.8118 11.1667 12.556 11.1667 12.2404C11.1667 11.9248 10.9108 11.6689 10.5953 11.6689Z" fill="#2B2A28"/>
</g>
</g>
</g>
<defs>
<clipPath id="clip0_7952_26678">
<rect width="17.5238" height="17.5238" fill="white" transform="translate(0.5 0.238281)"/>
</clipPath>
</defs>
</svg>
