<svg width="48" height="49" viewBox="0 0 48 49" fill="none" xmlns="http://www.w3.org/2000/svg">
<g id="Coffee Cup Hot" clip-path="url(#clip0_4146_100421)">
<path id="Vector" d="M16.4988 1.59668C13.4988 4.59668 19.4988 6.09668 16.4988 9.09668" stroke="#1C190E" stroke-width="1.71" stroke-linecap="round" stroke-linejoin="round"/>
<path id="Vector_2" d="M23.9988 1.59668C20.9988 4.59668 26.9988 6.09668 23.9988 9.09668" stroke="#1C190E" stroke-width="1.71" stroke-linecap="round" stroke-linejoin="round"/>
<path id="Vector_3" d="M31.4988 1.59668C28.4988 4.59668 34.4988 6.09668 31.4988 9.09668" stroke="#1C190E" stroke-width="1.71" stroke-linecap="round" stroke-linejoin="round"/>
<path id="Vector_4" d="M36.676 33.1162C41.734 34.4862 45 36.6542 45 39.0962C45 43.2382 35.6 46.5962 24 46.5962C12.4 46.5962 3 43.2382 3 39.0962C3 36.6542 6.266 34.4962 11.322 33.1162" stroke="#1C190E" stroke-width="1.71" stroke-linecap="round" stroke-linejoin="round"/>
<path id="Vector_5" d="M10.5015 21.0967C9.00146 31.5967 12.8755 36.0967 12.8755 36.0967C13.5015 37.5967 17.8575 40.5967 24.0015 40.5967C30.1455 40.5967 34.5015 37.5967 35.1275 36.0967C35.1275 36.0967 39.0015 31.5967 37.5015 21.0967" stroke="#1C190E" stroke-width="1.71" stroke-linecap="round" stroke-linejoin="round"/>
<path id="Vector_6" d="M10.5 21.0967C10.5 22.688 11.9223 24.2141 14.4541 25.3393C16.9858 26.4645 20.4196 27.0967 24 27.0967C27.5804 27.0967 31.0142 26.4645 33.5459 25.3393C36.0777 24.2141 37.5 22.688 37.5 21.0967C37.5 19.5054 36.0777 17.9793 33.5459 16.854C31.0142 15.7288 27.5804 15.0967 24 15.0967C20.4196 15.0967 16.9858 15.7288 14.4541 16.854C11.9223 17.9793 10.5 19.5054 10.5 21.0967Z" stroke="#1C190E" stroke-width="1.71" stroke-linecap="round" stroke-linejoin="round"/>
<path id="Vector_7" d="M13.9805 25.1169L15.0005 24.0969C17.5222 22.011 20.7316 20.9413 24.0005 21.0969C27.2694 20.9413 30.4787 22.011 33.0005 24.0969L34.0205 25.1169" stroke="#1C190E" stroke-width="1.71" stroke-linecap="round" stroke-linejoin="round"/>
</g>
<defs>
<clipPath id="clip0_4146_100421">
<rect width="48" height="48" fill="white" transform="translate(0 0.0966797)"/>
</clipPath>
</defs>
</svg>
