<svg width="48" height="49" viewBox="0 0 48 49" fill="none" xmlns="http://www.w3.org/2000/svg">
<g id="Building Modern 3" clip-path="url(#clip0_4146_100406)">
<path id="Vector" d="M3 46.5967V16.5967H21V46.5967" stroke="#1C190E" stroke-width="1.71" stroke-linecap="round" stroke-linejoin="round"/>
<path id="Vector_2" d="M9 46.5967V22.5967" stroke="#1C190E" stroke-width="1.71" stroke-linecap="round" stroke-linejoin="round"/>
<path id="Vector_3" d="M15 46.5967V22.5967" stroke="#1C190E" stroke-width="1.71" stroke-linecap="round" stroke-linejoin="round"/>
<path id="Vector_4" d="M3 16.5967L12 6.09668L21 16.5967" stroke="#1C190E" stroke-width="1.71" stroke-linecap="round" stroke-linejoin="round"/>
<path id="Vector_5" d="M12 1.59668V6.09668" stroke="#1C190E" stroke-width="1.71" stroke-linecap="round" stroke-linejoin="round"/>
<path id="Vector_6" d="M45 46.5964V22.1784C44.9999 21.8634 44.9008 21.5565 44.7166 21.3009C44.5325 21.0454 44.2727 20.8542 43.974 20.7544L28.974 15.7544C28.7485 15.6788 28.5082 15.658 28.273 15.6938C28.0378 15.7295 27.8145 15.8207 27.6216 15.9599C27.4287 16.099 27.2717 16.2821 27.1636 16.494C27.0555 16.7059 26.9994 16.9405 27 17.1784V46.5964" stroke="#1C190E" stroke-width="1.71" stroke-linecap="round" stroke-linejoin="round"/>
<path id="Vector_7" d="M39 42.0967V43.5967" stroke="#1C190E" stroke-width="1.71" stroke-linecap="round" stroke-linejoin="round"/>
<path id="Vector_8" d="M39 34.5967V36.0967" stroke="#1C190E" stroke-width="1.71" stroke-linecap="round" stroke-linejoin="round"/>
<path id="Vector_9" d="M39 27.0967V28.5967" stroke="#1C190E" stroke-width="1.71" stroke-linecap="round" stroke-linejoin="round"/>
<path id="Vector_10" d="M33 42.0967V43.5967" stroke="#1C190E" stroke-width="1.71" stroke-linecap="round" stroke-linejoin="round"/>
<path id="Vector_11" d="M33 34.5967V36.0967" stroke="#1C190E" stroke-width="1.71" stroke-linecap="round" stroke-linejoin="round"/>
<path id="Vector_12" d="M33 27.0967V28.5967" stroke="#1C190E" stroke-width="1.71" stroke-linecap="round" stroke-linejoin="round"/>
</g>
<defs>
<clipPath id="clip0_4146_100406">
<rect width="48" height="48" fill="white" transform="translate(0 0.0966797)"/>
</clipPath>
</defs>
</svg>
