<svg width="49" height="48" viewBox="0 0 49 48" fill="none" xmlns="http://www.w3.org/2000/svg">
<g id="Real Estate Dimensions Block" clip-path="url(#clip0_4081_40860)">
<path id="Vector" d="M20.3711 16.5H44.3711C44.3711 16.5 47.3711 16.5 47.3711 19.5V43.5C47.3711 43.5 47.3711 46.5 44.3711 46.5H20.3711C20.3711 46.5 17.3711 46.5 17.3711 43.5V19.5C17.3711 19.5 17.3711 16.5 20.3711 16.5Z" stroke="#A79F92" stroke-width="1.71" stroke-linecap="round" stroke-linejoin="round"/>
<path id="Vector_2" d="M17.3711 25.5H24.8711" stroke="#A79F92" stroke-width="1.71" stroke-linecap="round" stroke-linejoin="round"/>
<path id="Vector_3" d="M17.3711 40.5H26.3711V46.5" stroke="#A79F92" stroke-width="1.71" stroke-linecap="round" stroke-linejoin="round"/>
<path id="Vector_4" d="M38.3711 37.5H47.3711" stroke="#A79F92" stroke-width="1.71" stroke-linecap="round" stroke-linejoin="round"/>
<path id="Vector_5" d="M47.3711 24H36.8711V16.5" stroke="#A79F92" stroke-width="1.71" stroke-linecap="round" stroke-linejoin="round"/>
<path id="Vector_6" d="M30.8711 16.5V33H23.3711" stroke="#A79F92" stroke-width="1.71" stroke-linecap="round" stroke-linejoin="round"/>
<path id="Vector_7" d="M6.87109 10.5V46.5" stroke="#A79F92" stroke-width="1.71" stroke-linecap="round" stroke-linejoin="round"/>
<path id="Vector_8" d="M2.37109 42L6.87109 46.5L11.3711 42" stroke="#A79F92" stroke-width="1.71" stroke-linecap="round" stroke-linejoin="round"/>
<path id="Vector_9" d="M11.3711 15L6.87109 10.5L2.37109 15" stroke="#A79F92" stroke-width="1.71" stroke-linecap="round" stroke-linejoin="round"/>
<path id="Vector_10" d="M47.3711 6H11.3711" stroke="#A79F92" stroke-width="1.71" stroke-linecap="round" stroke-linejoin="round"/>
<path id="Vector_11" d="M15.8711 1.5L11.3711 6L15.8711 10.5" stroke="#A79F92" stroke-width="1.71" stroke-linecap="round" stroke-linejoin="round"/>
<path id="Vector_12" d="M42.8711 10.5L47.3711 6L42.8711 1.5" stroke="#A79F92" stroke-width="1.71" stroke-linecap="round" stroke-linejoin="round"/>
<path id="Vector_13" d="M38.3711 33V46.5" stroke="#A79F92" stroke-width="1.71" stroke-linecap="round" stroke-linejoin="round"/>
</g>
<defs>
<clipPath id="clip0_4081_40860">
<rect width="48" height="48" fill="white" transform="translate(0.871094)"/>
</clipPath>
</defs>
</svg>
