<svg width="18" height="18" viewBox="0 0 18 18" fill="none" xmlns="http://www.w3.org/2000/svg">
<g id="teenyicons:attach-solid">
<path id="Vector" fill-rule="evenodd" clip-rule="evenodd" d="M8.78244 1.16982C9.53146 0.420798 10.5474 0 11.6066 0C12.6659 0 13.6818 0.420798 14.4308 1.16982C15.1799 1.91885 15.6007 2.93474 15.6007 3.99402C15.6007 5.0533 15.1799 6.0692 14.4308 6.81822L7.52244 13.7266C7.30915 13.94 7.05591 14.1093 6.7772 14.2248C6.49849 14.3403 6.19976 14.3998 5.89806 14.3998C5.28876 14.3999 4.70436 14.158 4.27344 13.7272C3.84251 13.2965 3.60036 12.7122 3.60025 12.1028C3.60014 11.4935 3.84207 10.9091 4.27284 10.4782L10.9748 3.77502L11.8244 4.62462L5.12124 11.3266C5.01936 11.4285 4.93854 11.5494 4.88341 11.6826C4.82827 11.8157 4.79989 11.9583 4.79989 12.1024C4.79989 12.2465 4.82827 12.3892 4.88341 12.5223C4.93854 12.6554 5.01936 12.7763 5.12124 12.8782C5.22312 12.9801 5.34407 13.0609 5.47718 13.1161C5.61029 13.1712 5.75296 13.1996 5.89704 13.1996C6.04112 13.1996 6.18379 13.1712 6.3169 13.1161C6.45001 13.0609 6.57096 12.9801 6.67284 12.8782L13.5812 5.96982C13.8407 5.71036 14.0465 5.40233 14.1869 5.06332C14.3274 4.72431 14.3996 4.36096 14.3996 3.99402C14.3996 3.62708 14.3274 3.26373 14.1869 2.92473C14.0465 2.58572 13.8407 2.27769 13.5812 2.01822C13.3218 1.75876 13.0137 1.55294 12.6747 1.41251C12.3357 1.27209 11.9724 1.19982 11.6054 1.19982C11.2385 1.19982 10.8752 1.27209 10.5361 1.41251C10.1971 1.55294 9.8891 1.75876 9.62964 2.01822L2.51604 9.13302C1.69083 9.97881 1.23216 11.1157 1.23943 12.2974C1.24671 13.479 1.71934 14.6102 2.55491 15.4458C3.39047 16.2813 4.52165 16.754 5.70329 16.7612C6.88494 16.7685 8.02185 16.3098 8.86764 15.4846L15.776 8.57502L16.6256 9.42462L9.71604 16.333C8.64223 17.3682 7.20498 17.9405 5.71351 17.9268C4.22204 17.9131 2.79555 17.3145 1.74095 16.2597C0.686355 15.205 0.0879378 13.7784 0.0744517 12.2869C0.0609656 10.7954 0.633488 9.35827 1.66884 8.28462L8.78244 1.16862V1.16982Z" fill="#8D8D87"/>
</g>
</svg>
