<svg width="25" height="25" viewBox="0 0 25 25" fill="none" xmlns="http://www.w3.org/2000/svg">
<g clip-path="url(#clip0_14216_51291)">
<path d="M22.2986 0H2.70142C1.20952 0 0 1.20952 0 2.70142V22.2986C0 23.7905 1.20952 25 2.70142 25H22.2986C23.7905 25 25 23.7905 25 22.2986V2.70142C25 1.20952 23.7905 0 22.2986 0ZM20.2117 10.8906C18.629 10.8906 17.1625 10.3843 15.9652 9.52497V15.7272C15.9652 18.8251 13.4452 21.3451 10.3477 21.3451C9.1509 21.3451 8.04087 20.9676 7.12837 20.3268C5.67987 19.3099 4.7303 17.6278 4.7303 15.7272C4.7303 12.6297 7.25029 10.1097 10.3477 10.1097C10.6048 10.1097 10.8569 10.1307 11.1047 10.1644V13.2803C10.8652 13.2052 10.6116 13.1618 10.3477 13.1618C8.93289 13.1618 7.78238 14.3128 7.78238 15.7272C7.78238 16.7123 8.34081 17.5683 9.15773 17.998C9.51375 18.1857 9.91807 18.293 10.3477 18.293C11.7299 18.293 12.857 17.1937 12.9082 15.8237L12.9131 3.59247H15.9652C15.9652 3.85681 15.991 4.11529 16.0374 4.36647C16.2529 5.52965 16.943 6.52702 17.8989 7.1508C18.5652 7.58486 19.3591 7.83847 20.2117 7.83847V10.8906Z" fill="black"/>
</g>
<defs>
<clipPath id="clip0_14216_51291">
<rect width="25" height="25" fill="white"/>
</clipPath>
</defs>
</svg>
