<svg width="28" height="28" viewBox="0 0 28 28" fill="none" xmlns="http://www.w3.org/2000/svg">
<path d="M23.9961 7.31337C20.2961 6.9467 16.5739 6.75781 12.8628 6.75781C10.6628 6.75781 8.46276 6.86892 6.26276 7.09115L3.99609 7.31337" stroke="#D23C33" stroke-width="1.2" stroke-linecap="round" stroke-linejoin="round"/>
<path d="M10.1094 6.19062L10.3538 4.73507C10.5316 3.67951 10.6649 2.89062 12.5427 2.89062H15.4538C17.3316 2.89062 17.476 3.72396 17.6427 4.74618L17.8872 6.19062" stroke="#D23C33" stroke-width="1.2" stroke-linecap="round" stroke-linejoin="round"/>
<path d="M21.6089 10.8242L20.8867 22.0131C20.7645 23.7575 20.6645 25.1131 17.5645 25.1131H10.4312C7.33116 25.1131 7.23116 23.7575 7.10894 22.0131L6.38672 10.8242" stroke="#D23C33" stroke-width="1.2" stroke-linecap="round" stroke-linejoin="round"/>
<path d="M12.1406 19H15.8406" stroke="#D23C33" stroke-width="1.2" stroke-linecap="round" stroke-linejoin="round"/>
<path d="M11.2188 14.5586H16.7743" stroke="#D23C33" stroke-width="1.2" stroke-linecap="round" stroke-linejoin="round"/>
</svg>
