<svg width="18" height="18" viewBox="0 0 18 18" fill="none" xmlns="http://www.w3.org/2000/svg">
<g id="town (1) 1" clip-path="url(#clip0_4146_100372)">
<g id="Outline">
<path id="Vector" d="M16.1914 16.6435V3.70604H16.7305C16.802 3.70604 16.8705 3.67765 16.9211 3.6271C16.9716 3.57655 17 3.508 17 3.43651V1.54979C17 1.51241 16.9922 1.47544 16.9772 1.44122C16.9621 1.40701 16.9401 1.3763 16.9125 1.35105C16.885 1.3258 16.8524 1.30656 16.817 1.29455C16.7816 1.28255 16.7441 1.27804 16.7069 1.28131L7.54282 2.0899C7.47568 2.0958 7.41319 2.12664 7.36766 2.17634C7.32213 2.22604 7.29688 2.29099 7.29688 2.35839V3.43651C7.29688 3.508 7.32527 3.57655 7.37582 3.6271C7.42637 3.67765 7.49492 3.70604 7.56641 3.70604H8.10547V8.01854H8.64453V3.70604H15.6523V16.6435H13.886C13.9843 16.4838 14.0359 16.2998 14.0352 16.1123C14.0352 15.7268 13.8333 15.5235 13.6859 15.3751C13.5542 15.2425 13.4961 15.1775 13.4961 15.0264C13.4961 14.3566 13.1258 13.6787 12.418 13.6787C11.7102 13.6787 11.3398 14.3566 11.3398 15.0264C11.3398 15.1775 11.2817 15.2425 11.15 15.3751C11.0026 15.5235 10.8008 15.7268 10.8008 16.1123C10.8 16.2998 10.8516 16.4838 10.9498 16.6435H8.10547V13.1396C8.10547 13.0682 8.07707 12.9996 8.02653 12.9491C7.97598 12.8985 7.90742 12.8701 7.83594 12.8701H6.21875C6.14727 12.8701 6.07871 12.8985 6.02816 12.9491C5.97762 12.9996 5.94922 13.0682 5.94922 13.1396V16.6435H5.14062V11.884L8.375 10.469L11.6094 11.884V13.4092H12.1484V12.1199L12.5795 12.3085C12.6205 12.3265 12.6653 12.3339 12.71 12.3302C12.7546 12.3265 12.7976 12.3117 12.8351 12.2872C12.8725 12.2626 12.9033 12.2292 12.9246 12.1898C12.9459 12.1504 12.957 12.1063 12.957 12.0615V10.7139C12.957 10.6615 12.9418 10.6102 12.9131 10.5663C12.8844 10.5225 12.8436 10.4879 12.7955 10.4669L8.48305 8.58021C8.44898 8.5653 8.41219 8.55761 8.375 8.55761C8.33781 8.55761 8.30102 8.5653 8.26695 8.58021L3.95445 10.4669C3.90645 10.4879 3.8656 10.5225 3.83692 10.5663C3.80824 10.6102 3.79297 10.6615 3.79297 10.7139V12.0615C3.79297 12.1063 3.80412 12.1504 3.82543 12.1897C3.84673 12.2291 3.87751 12.2626 3.91498 12.2871C3.95245 12.3116 3.99544 12.3264 4.04006 12.3301C4.08468 12.3338 4.12953 12.3264 4.17055 12.3084L4.60156 12.1198V16.6435H2.71484V12.0615H3.25391V11.5225H1.63672V5.59276H7.56641V5.0537H5.79134L4.79215 4.05451C4.76713 4.02949 4.73741 4.00963 4.70471 3.99609C4.67201 3.98254 4.63696 3.97557 4.60156 3.97558H2.44531C2.37383 3.97558 2.30527 4.00397 2.25473 4.05452C2.20418 4.10507 2.17578 4.17362 2.17578 4.24511V5.0537H1.36719C1.2957 5.0537 1.22715 5.0821 1.1766 5.13264C1.12605 5.18319 1.09766 5.25175 1.09766 5.32323V11.792C1.09766 11.8635 1.12605 11.932 1.1766 11.9826C1.22715 12.0331 1.2957 12.0615 1.36719 12.0615H2.17578V16.6435H1.09766V17.1826H17.2695V16.6435H16.1914ZM7.83594 2.60518L16.4609 1.84416V3.16698H7.83594V2.60518ZM4.33203 11.6494V10.8901L8.375 9.12133L12.418 10.8901V11.6494L12.1484 11.5315V11.5225H12.1278L8.48305 9.92787C8.44898 9.91296 8.41219 9.90526 8.375 9.90526C8.33781 9.90526 8.30102 9.91296 8.26695 9.92787L4.62218 11.5225H4.60156V11.5315L4.33203 11.6494ZM2.71484 4.51464H4.48994L5.02901 5.0537H2.71484V4.51464ZM6.48828 13.4092H7.56641V16.6435H6.48828V13.4092ZM11.8789 16.6435C11.7305 16.6435 11.3398 16.4802 11.3398 16.1123C11.3398 15.9555 11.3989 15.8894 11.5326 15.7548C11.6787 15.6076 11.8789 15.406 11.8789 15.0264C11.8789 14.3868 12.2315 14.2178 12.418 14.2178C12.8444 14.2178 12.957 14.7467 12.957 15.0264C12.957 15.406 13.1572 15.6076 13.3033 15.7548C13.437 15.8896 13.4961 15.9555 13.4961 16.1123C13.4961 16.4802 13.1054 16.6435 12.957 16.6435H11.8789Z" fill="#6B6A69"/>
<path id="Vector_2" d="M8.91406 13.4092C8.84258 13.4092 8.77402 13.4376 8.72347 13.4881C8.67293 13.5387 8.64453 13.6072 8.64453 13.6787V15.0264C8.64453 15.0979 8.67293 15.1664 8.72347 15.217C8.77402 15.2675 8.84258 15.2959 8.91406 15.2959H10.5312C10.6027 15.2959 10.6713 15.2675 10.7218 15.217C10.7724 15.1664 10.8008 15.0979 10.8008 15.0264V13.6787C10.8008 13.6072 10.7724 13.5387 10.7218 13.4881C10.6713 13.4376 10.6027 13.4092 10.5312 13.4092H8.91406ZM10.2617 14.7568H9.18359V13.9482H10.2617V14.7568Z" fill="#6B6A69"/>
<path id="Vector_3" d="M7.29688 11.792H6.75781V12.3311H7.29688V11.792Z" fill="#6B6A69"/>
<path id="Vector_4" d="M5.14062 9.36621V6.6709H7.56641V6.13184H2.44531C2.37383 6.13184 2.30527 6.16023 2.25473 6.21078C2.20418 6.26133 2.17578 6.32988 2.17578 6.40137V10.7139C2.17578 10.7854 2.20418 10.8539 2.25473 10.9045C2.30527 10.955 2.37383 10.9834 2.44531 10.9834H3.25391V10.4443H2.71484V6.6709H4.60156V9.36621H5.14062Z" fill="#6B6A69"/>
<path id="Vector_5" d="M9.72266 6.6709H11.3398C11.4113 6.6709 11.4799 6.6425 11.5304 6.59195C11.581 6.54141 11.6094 6.47285 11.6094 6.40137V4.78418C11.6094 4.7127 11.581 4.64414 11.5304 4.59359C11.4799 4.54305 11.4113 4.51465 11.3398 4.51465H9.72266C9.65117 4.51465 9.58262 4.54305 9.53207 4.59359C9.48152 4.64414 9.45312 4.7127 9.45312 4.78418V6.40137C9.45312 6.47285 9.48152 6.54141 9.53207 6.59195C9.58262 6.6425 9.65117 6.6709 9.72266 6.6709ZM9.99219 5.05371H11.0703V6.13184H9.99219V5.05371Z" fill="#6B6A69"/>
<path id="Vector_6" d="M12.957 6.6709H14.5742C14.6457 6.6709 14.7143 6.6425 14.7648 6.59195C14.8154 6.54141 14.8438 6.47285 14.8438 6.40137V4.78418C14.8438 4.7127 14.8154 4.64414 14.7648 4.59359C14.7143 4.54305 14.6457 4.51465 14.5742 4.51465H12.957C12.8855 4.51465 12.817 4.54305 12.7664 4.59359C12.7159 4.64414 12.6875 4.7127 12.6875 4.78418V6.40137C12.6875 6.47285 12.7159 6.54141 12.7664 6.59195C12.817 6.6425 12.8855 6.6709 12.957 6.6709ZM13.2266 5.05371H14.3047V6.13184H13.2266V5.05371Z" fill="#6B6A69"/>
<path id="Vector_7" d="M9.45312 8.55762H9.99219V8.01855H11.0703V9.36621H11.6094V7.74902C11.6094 7.67754 11.581 7.60898 11.5304 7.55844C11.4799 7.50789 11.4113 7.47949 11.3398 7.47949H9.72266C9.65117 7.47949 9.58262 7.50789 9.53207 7.55844C9.48152 7.60898 9.45312 7.67754 9.45312 7.74902V8.55762Z" fill="#6B6A69"/>
<path id="Vector_8" d="M12.6875 9.36621C12.6875 9.4377 12.7159 9.50625 12.7664 9.5568C12.817 9.60735 12.8855 9.63574 12.957 9.63574H14.5742C14.6457 9.63574 14.7143 9.60735 14.7648 9.5568C14.8154 9.50625 14.8438 9.4377 14.8438 9.36621V7.74902C14.8438 7.67754 14.8154 7.60898 14.7648 7.55844C14.7143 7.50789 14.6457 7.47949 14.5742 7.47949H12.957C12.8855 7.47949 12.817 7.50789 12.7664 7.55844C12.7159 7.60898 12.6875 7.67754 12.6875 7.74902V9.36621ZM13.2266 8.01855H14.3047V9.09668H13.2266V8.01855Z" fill="#6B6A69"/>
<path id="Vector_9" d="M13.4961 12.0615V12.6006H14.5742C14.6457 12.6006 14.7143 12.5722 14.7648 12.5216C14.8154 12.4711 14.8438 12.4025 14.8438 12.3311V10.7139C14.8438 10.6424 14.8154 10.5738 14.7648 10.5233C14.7143 10.4727 14.6457 10.4443 14.5742 10.4443H13.4961V10.9834H14.3047V12.0615H13.4961Z" fill="#6B6A69"/>
<path id="Vector_10" d="M3.79297 12.8701H3.25391V13.4092H3.79297V12.8701Z" fill="#6B6A69"/>
</g>
</g>
<defs>
<clipPath id="clip0_4146_100372">
<rect width="17.25" height="17.25" fill="white" transform="translate(0.558594 0.47168)"/>
</clipPath>
</defs>
</svg>
