<svg width="67" height="67" viewBox="0 0 67 67" fill="none" xmlns="http://www.w3.org/2000/svg">
<path d="M59.9832 55.7461C55.8455 48.5959 49.3496 43.5788 41.8016 41.451C45.4713 39.5856 48.4058 36.5387 50.1319 32.8014C51.858 29.0642 52.2752 24.8546 51.3161 20.8513C50.357 16.848 48.0775 13.2844 44.8453 10.735C41.6131 8.18572 37.6165 6.79928 33.4999 6.79928C29.3833 6.79928 25.3867 8.18572 22.1545 10.735C18.9223 13.2844 16.6428 16.848 15.6838 20.8513C14.7247 24.8546 15.1418 29.0642 16.8679 32.8014C18.594 36.5387 21.5285 39.5856 25.1982 41.451C17.6502 43.5762 11.1544 48.5933 7.01659 55.7461C6.90297 55.9248 6.82668 56.1247 6.7923 56.3337C6.75793 56.5426 6.76619 56.7564 6.81657 56.9621C6.86696 57.1678 6.95844 57.3612 7.0855 57.5307C7.21256 57.7001 7.37258 57.8421 7.55594 57.9481C7.7393 58.054 7.9422 58.1218 8.15244 58.1474C8.36268 58.1729 8.57592 58.1557 8.77932 58.0967C8.98272 58.0377 9.17208 57.9381 9.33601 57.804C9.49994 57.6699 9.63506 57.5041 9.73323 57.3164C14.7608 48.63 23.6436 43.4453 33.4999 43.4453C43.3562 43.4453 52.239 48.63 57.2666 57.3164C57.3648 57.5041 57.4999 57.6699 57.6638 57.804C57.8277 57.9381 58.0171 58.0377 58.2205 58.0967C58.4239 58.1557 58.6371 58.1729 58.8474 58.1474C59.0576 58.1218 59.2605 58.054 59.4439 57.9481C59.6272 57.8421 59.7873 57.7001 59.9143 57.5307C60.0414 57.3612 60.1329 57.1678 60.1832 56.9621C60.2336 56.7564 60.2419 56.5426 60.2075 56.3337C60.1731 56.1247 60.0968 55.9248 59.9832 55.7461ZM18.3202 25.125C18.3202 22.1227 19.2105 19.1879 20.8785 16.6916C22.5464 14.1953 24.9172 12.2497 27.6909 11.1008C30.4646 9.95188 33.5167 9.65127 36.4613 10.237C39.4059 10.8227 42.1106 12.2684 44.2336 14.3913C46.3565 16.5143 47.8022 19.219 48.3879 22.1636C48.9736 25.1082 48.673 28.1603 47.5241 30.934C46.3752 33.7077 44.4296 36.0785 41.9333 37.7464C39.437 39.4144 36.5022 40.3047 33.4999 40.3047C29.4755 40.2998 25.6173 38.699 22.7716 35.8533C19.9259 33.0076 18.3251 29.1494 18.3202 25.125Z" fill="#8D8D87"/>
</svg>
