<svg width="12" height="13" viewBox="0 0 12 13" fill="none" xmlns="http://www.w3.org/2000/svg">
<path d="M11.4141 10.4313C11.1194 9.73308 10.6916 9.09891 10.1547 8.56406C9.61947 8.02767 8.9854 7.60001 8.28754 7.30469C8.28129 7.30156 8.27504 7.3 8.26879 7.29688C9.24223 6.59375 9.87504 5.44844 9.87504 4.15625C9.87504 2.01563 8.14066 0.28125 6.00004 0.28125C3.85941 0.28125 2.12504 2.01563 2.12504 4.15625C2.12504 5.44844 2.75785 6.59375 3.73129 7.29844C3.72504 7.30156 3.71879 7.30313 3.71254 7.30625C3.01254 7.60156 2.38441 8.025 1.84535 8.56563C1.30896 9.10089 0.881296 9.73496 0.585977 10.4328C0.295855 11.116 0.139386 11.8485 0.125039 12.5906C0.124622 12.6073 0.127547 12.6239 0.133642 12.6394C0.139737 12.655 0.148878 12.6691 0.160527 12.681C0.172176 12.693 0.186098 12.7025 0.201471 12.7089C0.216844 12.7154 0.233358 12.7188 0.250039 12.7188H1.18754C1.25629 12.7188 1.31098 12.6641 1.31254 12.5969C1.34379 11.3906 1.82816 10.2609 2.68441 9.40469C3.57035 8.51875 4.74691 8.03125 6.00004 8.03125C7.25316 8.03125 8.42973 8.51875 9.31566 9.40469C10.1719 10.2609 10.6563 11.3906 10.6875 12.5969C10.6891 12.6656 10.7438 12.7188 10.8125 12.7188H11.75C11.7667 12.7188 11.7832 12.7154 11.7986 12.7089C11.814 12.7025 11.8279 12.693 11.8396 12.681C11.8512 12.6691 11.8603 12.655 11.8664 12.6394C11.8725 12.6239 11.8755 12.6073 11.875 12.5906C11.8594 11.8438 11.7047 11.1172 11.4141 10.4313ZM6.00004 6.84375C5.28285 6.84375 4.60785 6.56406 4.10004 6.05625C3.59223 5.54844 3.31254 4.87344 3.31254 4.15625C3.31254 3.43906 3.59223 2.76406 4.10004 2.25625C4.60785 1.74844 5.28285 1.46875 6.00004 1.46875C6.71723 1.46875 7.39223 1.74844 7.90004 2.25625C8.40785 2.76406 8.68754 3.43906 8.68754 4.15625C8.68754 4.87344 8.40785 5.54844 7.90004 6.05625C7.39223 6.56406 6.71723 6.84375 6.00004 6.84375Z" fill="#8E8E93"/>
</svg>
