<svg width="33" height="31" viewBox="0 0 33 31" fill="none" xmlns="http://www.w3.org/2000/svg">
<path d="M2.01562 3.22461C2.01562 2.42896 2.3317 1.6659 2.8943 1.10329C3.45691 0.54068 4.21998 0.224609 5.01562 0.224609H27.0156C27.8113 0.224609 28.5743 0.54068 29.1369 1.10329C29.6996 1.6659 30.0156 2.42896 30.0156 3.22461V17.2246C30.0156 18.0203 29.6996 18.7833 29.1369 19.3459C28.5743 19.9085 27.8113 20.2246 27.0156 20.2246H16.0156V18.2246H27.0156C27.2808 18.2246 27.5352 18.1193 27.7227 17.9317C27.9103 17.7442 28.0156 17.4898 28.0156 17.2246V3.22461C28.0156 2.95939 27.9103 2.70504 27.7227 2.5175C27.5352 2.32997 27.2808 2.22461 27.0156 2.22461H5.01562C4.75041 2.22461 4.49605 2.32997 4.30852 2.5175C4.12098 2.70504 4.01562 2.95939 4.01562 3.22461V6.22461H2.01562V3.22461ZM16.0156 24.2246H31.0156C31.2808 24.2246 31.5352 24.1193 31.7227 23.9317C31.9103 23.7442 32.0156 23.4898 32.0156 23.2246C32.0156 22.9594 31.9103 22.705 31.7227 22.5175C31.5352 22.33 31.2808 22.2246 31.0156 22.2246H16.0156V24.2246ZM6.01562 24.2246C5.75041 24.2246 5.49605 24.33 5.30852 24.5175C5.12098 24.705 5.01562 24.9594 5.01562 25.2246C5.01562 25.4898 5.12098 25.7442 5.30852 25.9317C5.49605 26.1193 5.75041 26.2246 6.01562 26.2246H8.01562C8.28084 26.2246 8.5352 26.1193 8.72273 25.9317C8.91027 25.7442 9.01562 25.4898 9.01562 25.2246C9.01562 24.9594 8.91027 24.705 8.72273 24.5175C8.5352 24.33 8.28084 24.2246 8.01562 24.2246H6.01562ZM0.015625 11.2246C0.015625 10.429 0.331696 9.6659 0.894305 9.10329C1.45691 8.54068 2.21998 8.22461 3.01562 8.22461H11.0156C11.8113 8.22461 12.5743 8.54068 13.1369 9.10329C13.6996 9.6659 14.0156 10.429 14.0156 11.2246V27.2246C14.0156 28.0203 13.6996 28.7833 13.1369 29.3459C12.5743 29.9085 11.8113 30.2246 11.0156 30.2246H3.01562C2.21998 30.2246 1.45691 29.9085 0.894305 29.3459C0.331696 28.7833 0.015625 28.0203 0.015625 27.2246V11.2246ZM3.01562 10.2246C2.75041 10.2246 2.49605 10.33 2.30852 10.5175C2.12098 10.705 2.01562 10.9594 2.01562 11.2246V27.2246C2.01562 27.4898 2.12098 27.7442 2.30852 27.9317C2.49605 28.1193 2.75041 28.2246 3.01562 28.2246H11.0156C11.2808 28.2246 11.5352 28.1193 11.7227 27.9317C11.9103 27.7442 12.0156 27.4898 12.0156 27.2246V11.2246C12.0156 10.9594 11.9103 10.705 11.7227 10.5175C11.5352 10.33 11.2808 10.2246 11.0156 10.2246H3.01562Z" fill="#A79F92"/>
</svg>
