<svg width="48" height="39" viewBox="0 0 48 39" fill="none" xmlns="http://www.w3.org/2000/svg">
<path d="M25.5 19.25C23.6766 19.25 21.9279 18.5257 20.6386 17.2364C19.3493 15.9471 18.625 14.1984 18.625 12.375C18.625 10.5516 19.3493 8.80296 20.6386 7.51364C21.9279 6.22433 23.6766 5.5 25.5 5.5C27.3234 5.5 29.072 6.22433 30.3614 7.51364C31.6507 8.80296 32.375 10.5516 32.375 12.375C32.375 14.1984 31.6507 15.9471 30.3614 17.2364C29.072 18.5257 27.3234 19.25 25.5 19.25ZM25.5 16.5C26.594 16.5 27.6432 16.0654 28.4168 15.2918C29.1904 14.5182 29.625 13.469 29.625 12.375C29.625 11.281 29.1904 10.2318 28.4168 9.45819C27.6432 8.6846 26.594 8.25 25.5 8.25C24.406 8.25 23.3568 8.6846 22.5832 9.45819C21.8096 10.2318 21.375 11.281 21.375 12.375C21.375 13.469 21.8096 14.5182 22.5832 15.2918C23.3568 16.0654 24.406 16.5 25.5 16.5ZM47.5 4.125C47.5 3.03098 47.0654 1.98177 46.2918 1.20818C45.5182 0.434597 44.469 0 43.375 0H7.62499C6.53097 0 5.48176 0.434597 4.70818 1.20818C3.93459 1.98177 3.49999 3.03098 3.49999 4.125V11.5088C4.36759 11.1378 5.30725 10.9658 6.24999 11.0055V4.125C6.24999 3.76033 6.39486 3.41059 6.65272 3.15273C6.91058 2.89487 7.26031 2.75 7.62499 2.75H43.375C43.7397 2.75 44.0894 2.89487 44.3473 3.15273C44.6051 3.41059 44.75 3.76033 44.75 4.125V28.875C44.75 29.2397 44.6051 29.5894 44.3473 29.8473C44.0894 30.1051 43.7397 30.25 43.375 30.25H36.5V26.125C36.5 25.031 36.0654 23.9818 35.2918 23.2082C34.5182 22.4346 33.469 22 32.375 22H18.625C17.531 22 16.4818 22.4346 15.7082 23.2082C14.9346 23.9818 14.5 25.031 14.5 26.125V26.73C15.4201 26.5736 16.3646 26.6464 17.25 26.9418V26.125C17.25 25.7603 17.3949 25.4106 17.6527 25.1527C17.9106 24.8949 18.2603 24.75 18.625 24.75H32.375C32.7397 24.75 33.0894 24.8949 33.3473 25.1527C33.6051 25.4106 33.75 25.7603 33.75 26.125V30.25H21.221C21.936 31.0668 22.4007 32.0155 22.6125 33H43.375C44.469 33 45.5182 32.5654 46.2918 31.7918C47.0654 31.0182 47.5 29.969 47.5 28.875V4.125ZM10.144 18.1005L9.36574 16.038C8.65624 14.1653 6.44524 13.2413 4.58074 14.036L3.51374 14.4925C2.21299 15.048 1.13774 16.0545 0.909489 17.4075C-0.34726 24.9013 6.15649 35.5603 13.642 38.28C14.995 38.7695 16.4552 38.39 17.6157 37.6035L18.5672 36.9573C18.9579 36.6941 19.2868 36.3494 19.5313 35.9468C19.7758 35.5442 19.93 35.0934 19.9833 34.6254C20.0366 34.1575 19.9878 33.6835 19.8402 33.2362C19.6926 32.789 19.4497 32.379 19.1282 32.0348L17.6295 30.3655C17.2781 29.9769 16.8291 29.6895 16.329 29.5333C15.8289 29.3771 15.2961 29.3577 14.786 29.4773L11.4172 30.2748C8.74699 28.6055 7.31424 26.2598 7.12174 23.2348L9.53624 20.8725C9.89776 20.5207 10.1481 20.0705 10.2561 19.5777C10.3641 19.0849 10.3252 18.5713 10.144 18.1005Z" fill="#2B2A28"/>
</svg>
