<svg width="20" height="18" viewBox="0 0 20 18" fill="none" xmlns="http://www.w3.org/2000/svg">
<path d="M0.726562 17L9.99656 1L19.2666 17H0.726562ZM2.44656 16H17.5466L9.99656 3L2.44656 16ZM9.99656 14.615C10.1712 14.615 10.3172 14.556 10.4346 14.438C10.5526 14.3207 10.6116 14.1747 10.6116 14C10.6116 13.8253 10.5526 13.6793 10.4346 13.562C10.3172 13.444 10.1712 13.385 9.99656 13.385C9.8219 13.385 9.6759 13.444 9.55856 13.562C9.44056 13.6793 9.38156 13.8253 9.38156 14C9.38156 14.1747 9.44056 14.3207 9.55856 14.438C9.6759 14.556 9.8219 14.615 9.99656 14.615ZM9.49656 12.385H10.4966V7.385H9.49656V12.385Z" fill="#A85B57" stroke="#A85B57" stroke-width="0.6"/>
</svg>
