<svg width="33" height="33" viewBox="0 0 33 33" fill="none" xmlns="http://www.w3.org/2000/svg">
<path d="M27.5801 4.77907C24.875 2.04699 21.2827 0.371503 17.451 0.0548137C13.6194 -0.261875 9.80072 0.801085 6.68379 3.05196C3.56687 5.30284 1.35688 8.59346 0.452464 12.3303C-0.451952 16.0671 0.0087424 20.0041 1.75145 23.4311L0.0407647 31.7363C0.0230145 31.819 0.0225118 31.9044 0.0392882 31.9873C0.0560647 32.0702 0.0897589 32.1487 0.138264 32.2179C0.209321 32.323 0.31075 32.4039 0.429006 32.4499C0.547263 32.4958 0.676718 32.5046 0.800083 32.475L8.93986 30.5457C12.3573 32.2442 16.2665 32.6753 19.9719 31.7622C23.6773 30.849 26.9386 28.6509 29.1754 25.5589C31.4122 22.4669 32.4795 18.6816 32.1874 14.8765C31.8953 11.0714 30.2627 7.49339 27.5801 4.77907ZM25.0421 25.0354C23.1705 26.9018 20.7604 28.1338 18.1514 28.5579C15.5425 28.9819 12.8662 28.5766 10.4999 27.3991L9.36531 26.8377L4.37508 28.0195L4.38986 27.9575L5.42395 22.9348L4.86849 21.8386C3.65937 19.464 3.23284 16.7676 3.65 14.1356C4.06715 11.5037 5.30659 9.07139 7.19077 7.18702C9.55826 4.82026 12.7688 3.49069 16.1164 3.49069C19.4641 3.49069 22.6746 4.82026 25.0421 7.18702C25.0623 7.21014 25.084 7.23186 25.1071 7.25202C27.4453 9.62488 28.7505 12.8259 28.7384 16.1571C28.7262 19.4884 27.3976 22.6797 25.0421 25.0354Z" fill="white"/>
<path d="M24.5997 21.3509C23.9881 22.3141 23.022 23.4929 21.8076 23.7854C19.6804 24.2995 16.4156 23.8031 12.3531 20.0154L12.3029 19.9711C8.73083 16.6591 7.8031 13.9025 8.02765 11.7161C8.15174 10.4752 9.18583 9.35246 10.0574 8.61974C10.1952 8.50213 10.3586 8.4184 10.5346 8.37523C10.7105 8.33207 10.8941 8.33068 11.0707 8.37116C11.2473 8.41165 11.4119 8.49289 11.5515 8.60838C11.6911 8.72388 11.8017 8.87044 11.8745 9.03633L13.1892 11.9909C13.2747 12.1824 13.3063 12.3937 13.2808 12.6019C13.2553 12.8101 13.1736 13.0074 13.0445 13.1727L12.3797 14.0354C12.2371 14.2136 12.151 14.4303 12.1326 14.6578C12.1141 14.8852 12.1642 15.113 12.2763 15.3118C12.6486 15.9647 13.5408 16.925 14.5306 17.8143C15.6415 18.8188 16.8736 19.7377 17.6536 20.0509C17.8623 20.1361 18.0917 20.1569 18.3124 20.1106C18.533 20.0643 18.7347 19.9529 18.8915 19.7909L19.6626 19.0138C19.8114 18.8671 19.9965 18.7625 20.1989 18.7106C20.4013 18.6587 20.6139 18.6614 20.8149 18.7184L23.9379 19.6047C24.1101 19.6576 24.268 19.7491 24.3995 19.8723C24.531 19.9956 24.6325 20.1472 24.6964 20.3157C24.7603 20.4842 24.7847 20.6651 24.768 20.8445C24.7512 21.0239 24.6937 21.1971 24.5997 21.3509Z" fill="white"/>
</svg>
