<svg width="24" height="21" viewBox="0 0 24 21" fill="none" xmlns="http://www.w3.org/2000/svg">
<path d="M1.3125 7.38792C1.31243 6.12749 1.70116 4.89772 2.42566 3.86633C3.15017 2.83493 4.17518 2.05213 5.36091 1.62466C6.54664 1.19719 7.83536 1.14588 9.05132 1.47772C10.2673 1.80956 11.3513 2.50839 12.1555 3.47892C12.6964 2.82509 13.3672 2.29077 14.1255 1.90982C14.8838 1.52887 15.7129 1.30961 16.5603 1.26593C17.4078 1.22226 18.255 1.35512 19.0484 1.65609C19.8418 1.95707 20.5641 2.4196 21.1693 3.01435C21.7746 3.60911 22.2497 4.32313 22.5645 5.11114C22.8793 5.89916 23.0269 6.74398 22.9981 7.59206C22.9692 8.44014 22.7645 9.27297 22.3969 10.0378C22.0293 10.8026 21.5068 11.4827 20.8625 12.0349L12.8355 19.4699C12.6506 19.6411 12.408 19.7362 12.156 19.7362C11.904 19.7362 11.6614 19.6411 11.4765 19.4699L3.4595 12.0449C2.78585 11.4704 2.24505 10.7564 1.87451 9.95235C1.50398 9.14826 1.31256 8.27327 1.3135 7.38792H1.3125Z" stroke="#2B2A28" stroke-width="1.71" stroke-linecap="round" stroke-linejoin="round"/>
</svg>
