<svg width="24" height="24" viewBox="0 0 24 24" fill="none" xmlns="http://www.w3.org/2000/svg">
<g id="x-mark 1" clip-path="url(#clip0_3585_26601)">
<path id="Vector" d="M12 24C5.38312 24 0 18.6169 0 12C0 5.38312 5.38312 0 12 0C18.6169 0 24 5.38312 24 12C24 18.6169 18.6169 24 12 24ZM12 1.71423C6.32849 1.71423 1.71423 6.32849 1.71423 12C1.71423 17.6715 6.32849 22.2858 12 22.2858C17.6715 22.2858 22.2858 17.6715 22.2858 12C22.2858 6.32849 17.6715 1.71423 12 1.71423Z" fill="black"/>
<path id="Vector_2" d="M16.2841 17.145C16.0647 17.145 15.8454 17.0613 15.678 16.8938L7.10664 8.32246C6.77174 7.98756 6.77174 7.4452 7.10664 7.11048C7.44136 6.77576 7.9839 6.77558 8.31862 7.11048L16.89 15.6818C17.2249 16.0167 17.2249 16.5591 16.89 16.8938C16.7226 17.0613 16.5034 17.145 16.2841 17.145Z" fill="black"/>
<path id="Vector_3" d="M7.71254 17.1451C7.49318 17.1451 7.274 17.0614 7.10664 16.8939C6.77174 16.5592 6.77174 16.0166 7.10664 15.6819L15.678 7.11055C16.0129 6.77565 16.5553 6.77565 16.89 7.11055C17.2247 7.44527 17.2249 7.98781 16.89 8.32253L8.31862 16.8939C8.15126 17.0614 7.9319 17.1451 7.71254 17.1451Z" fill="black"/>
</g>
<defs>
<clipPath id="clip0_3585_26601">
<rect width="24" height="24" fill="white"/>
</clipPath>
</defs>
</svg>
