<svg width="25" height="25" viewBox="0 0 25 25" fill="none" xmlns="http://www.w3.org/2000/svg">
<rect width="25" height="25" rx="3" fill="#FF0000"/>
<path d="M16.5776 7.8125H8.39669C8.06976 7.8125 7.74603 7.87692 7.44401 8.00208C7.14198 8.12724 6.86758 8.31069 6.63648 8.54194C6.40538 8.77319 6.22212 9.04772 6.09716 9.34982C5.97219 9.65193 5.90799 9.9757 5.9082 10.3026V14.727C5.90799 15.0539 5.97219 15.3777 6.09716 15.6798C6.22212 15.9819 6.40538 16.2564 6.63648 16.4877C6.86758 16.7189 7.14198 16.9024 7.44401 17.0275C7.74603 17.1527 8.06976 17.2171 8.39669 17.2171H16.5776C16.9045 17.2171 17.2283 17.1527 17.5303 17.0275C17.8323 16.9024 18.1067 16.7189 18.3378 16.4877C18.5689 16.2564 18.7522 15.9819 18.8771 15.6798C19.0021 15.3777 19.0663 15.0539 19.0661 14.727V10.3026C19.0663 9.9757 19.0021 9.65193 18.8771 9.34982C18.7522 9.04772 18.5689 8.77319 18.3378 8.54194C18.1067 8.31069 17.8323 8.12724 17.5303 8.00208C17.2283 7.87692 16.9045 7.8125 16.5776 7.8125ZM10.7536 14.5313V10.4984L14.2207 12.5148L10.7536 14.5313Z" fill="white"/>
</svg>
